<svg xmlns="http://www.w3.org/2000/svg" xmlns:xlink="http://www.w3.org/1999/xlink" viewBox="0 0 345 345"><defs><style>.cls-1{fill:url(#radial-gradient);}.cls-2{fill:#b62d55;}.cls-3{fill:#085c2f;}.cls-4{fill:#808088;}.cls-5{fill:#404346;}.cls-6{fill:#fff;}.cls-7{fill:#010101;}</style><radialGradient id="radial-gradient" cx="172.5" cy="172.5" r="172.5" gradientUnits="userSpaceOnUse"><stop offset="0" stop-color="#174170"/><stop offset="1" stop-color="#3a76bc"/></radialGradient></defs><g id="Layer_7" data-name="Layer 7"><rect class="cls-1" width="345" height="345"/></g><g id="Layer_1" data-name="Layer 1"><rect class="cls-2" x="178.07" y="151.07" width="3.67" height="3.67"/><rect class="cls-3" x="178.07" y="158.41" width="3.67" height="3.67"/><polygon class="cls-4" points="159.71 257.57 156.04 257.57 152.37 257.57 148.7 257.57 148.7 264.91 152.37 264.91 152.37 261.24 156.04 261.24 159.71 261.24 163.39 261.24 163.39 264.91 167.06 264.91 167.06 257.57 163.39 257.57 159.71 257.57"/><rect class="cls-4" x="163.39" y="103.33" width="3.67" height="7.34"/><rect class="cls-4" x="163.39" y="165.76" width="3.67" height="7.34"/><polygon class="cls-4" points="167.06 151.07 163.39 151.07 163.39 154.74 167.06 154.74 170.73 154.74 174.4 154.74 174.4 151.07 170.73 151.07 167.06 151.07"/><polygon class="cls-4" points="167.06 158.41 163.39 158.41 163.39 162.09 167.06 162.09 170.73 162.09 174.4 162.09 174.4 158.41 170.73 158.41 167.06 158.41"/><rect class="cls-4" x="170.73" y="88.64" width="3.67" height="22.03"/><rect class="cls-4" x="170.73" y="165.76" width="3.67" height="7.34"/><rect class="cls-4" x="170.73" y="184.12" width="3.67" height="3.67"/><rect class="cls-4" x="178.07" y="103.33" width="3.67" height="7.34"/><rect class="cls-4" x="178.07" y="165.76" width="3.67" height="7.34"/><polygon class="cls-4" points="192.76 257.57 189.09 257.57 185.42 257.57 181.75 257.57 178.07 257.57 178.07 264.91 181.75 264.91 181.75 261.24 185.42 261.24 189.09 261.24 192.76 261.24 192.76 264.91 196.44 264.91 196.44 257.57 192.76 257.57"/><rect class="cls-5" x="134.01" y="187.79" width="3.67" height="7.35"/><polygon class="cls-5" points="148.7 118.02 152.37 118.02 156.04 118.02 159.71 118.02 159.71 110.67 156.04 110.67 156.04 114.34 152.37 114.34 148.7 114.34 145.02 114.34 141.35 114.34 137.68 114.34 137.68 125.36 141.35 125.36 141.35 121.69 145.02 121.69 145.02 118.02 148.7 118.02"/><rect class="cls-5" x="145.02" y="121.69" width="3.67" height="7.34"/><rect class="cls-5" x="148.7" y="107" width="3.67" height="3.67"/><rect class="cls-5" x="152.37" y="99.66" width="3.67" height="7.34"/><polygon class="cls-5" points="152.37 129.03 148.7 129.03 148.7 173.1 145.02 173.1 141.35 173.1 137.68 173.1 134.01 173.1 134.01 180.45 137.68 180.45 137.68 176.78 141.35 176.78 145.02 176.78 148.7 176.78 148.7 198.81 145.02 198.81 141.35 198.81 137.68 198.81 137.68 264.91 141.35 264.91 145.02 264.91 148.7 264.91 148.7 257.57 152.37 257.57 152.37 187.79 156.04 187.79 159.71 187.79 163.39 187.79 167.06 187.79 170.73 187.79 170.73 184.12 167.06 184.12 163.39 184.12 159.71 184.12 156.04 184.12 152.37 184.12 152.37 132.71 156.04 132.71 156.04 129.03 152.37 129.03"/><rect class="cls-5" x="156.04" y="81.29" width="3.67" height="18.36"/><rect class="cls-5" x="159.71" y="62.93" width="3.67" height="18.36"/><rect class="cls-5" x="159.71" y="118.02" width="3.67" height="3.67"/><polygon class="cls-5" points="159.71 132.71 156.04 132.71 156.04 136.38 159.71 136.38 163.39 136.38 163.39 132.71 159.71 132.71"/><rect class="cls-5" x="159.71" y="191.46" width="3.67" height="3.67"/><polygon class="cls-5" points="167.06 88.64 170.73 88.64 170.73 81.29 167.06 81.29 163.39 81.29 163.39 88.64 167.06 88.64"/><rect class="cls-5" x="167.06" y="95.98" width="3.67" height="14.69"/><rect class="cls-5" x="170.73" y="59.26" width="3.67" height="22.03"/><polygon class="cls-5" points="178.07 88.64 181.75 88.64 181.75 81.29 178.07 81.29 174.4 81.29 174.4 88.64 178.07 88.64"/><rect class="cls-5" x="174.4" y="95.98" width="3.67" height="14.69"/><polygon class="cls-5" points="174.4 136.38 174.4 125.36 178.07 125.36 181.75 125.36 181.75 121.69 178.07 121.69 174.4 121.69 170.73 121.69 167.06 121.69 163.39 121.69 163.39 125.36 167.06 125.36 170.73 125.36 170.73 136.38 167.06 136.38 163.39 136.38 163.39 140.05 167.06 140.05 170.73 140.05 174.4 140.05 178.07 140.05 181.75 140.05 181.75 136.38 178.07 136.38 174.4 136.38"/><polygon class="cls-5" points="178.07 198.81 174.4 198.81 170.73 198.81 167.06 198.81 167.06 195.14 163.39 195.14 163.39 257.57 167.06 257.57 167.06 264.91 170.73 264.91 174.4 264.91 178.07 264.91 178.07 257.57 181.75 257.57 181.75 195.14 178.07 195.14 178.07 198.81"/><rect class="cls-5" x="181.75" y="118.02" width="3.67" height="3.67"/><polygon class="cls-5" points="181.75 132.71 181.75 136.38 185.42 136.38 189.09 136.38 189.09 132.71 185.42 132.71 181.75 132.71"/><rect class="cls-5" x="181.75" y="191.46" width="3.67" height="3.67"/><polygon class="cls-5" points="192.76 118.02 196.44 118.02 200.11 118.02 200.11 121.69 203.78 121.69 203.78 125.36 207.46 125.36 207.46 114.34 203.78 114.34 200.11 114.34 196.44 114.34 192.76 114.34 189.09 114.34 189.09 110.67 185.42 110.67 185.42 118.02 189.09 118.02 192.76 118.02"/><rect class="cls-5" x="196.44" y="121.69" width="3.67" height="7.34"/><polygon class="cls-5" points="207.46 173.1 203.78 173.1 200.11 173.1 196.44 173.1 196.44 129.03 192.76 129.03 189.09 129.03 189.09 132.71 192.76 132.71 192.76 184.12 189.09 184.12 185.42 184.12 181.75 184.12 178.07 184.12 174.4 184.12 174.4 187.79 178.07 187.79 181.75 187.79 185.42 187.79 189.09 187.79 192.76 187.79 192.76 257.57 196.44 257.57 196.44 264.91 200.11 264.91 203.78 264.91 207.46 264.91 207.46 198.81 203.78 198.81 200.11 198.81 196.44 198.81 196.44 176.78 200.11 176.78 203.78 176.78 207.46 176.78 207.46 180.45 211.13 180.45 211.13 173.1 207.46 173.1"/><rect class="cls-5" x="207.45" y="187.79" width="3.67" height="7.35"/><rect class="cls-6" x="203.78" y="95.98" width="3.67" height="3.67"/><path class="cls-6" d="M236.83,59.26V55.59H203.78v3.67h-3.67V88.64h3.67v3.67h3.67V96h3.68V92.31h3.67V88.64h22V85h3.68V59.26Zm-3.67,11h-3.67V74h-3.67v3.67h-3.68v3.67h-3.67V77.62H214.8V74h-3.67V70.28h-3.68V62.93h3.68v7.35h3.67V74h3.67v3.67h3.67V74h3.68V70.28h3.67V62.93h3.67Z"/><polygon class="cls-7" points="141.35 198.81 145.02 198.81 148.7 198.81 148.7 176.78 145.02 176.78 141.35 176.78 137.68 176.78 137.68 195.14 134.01 195.14 134.01 198.81 137.68 198.81 141.35 198.81"/><polygon class="cls-7" points="145.02 173.1 148.7 173.1 148.7 129.03 145.02 129.03 145.02 121.69 141.35 121.69 141.35 125.36 137.68 125.36 137.68 173.1 141.35 173.1 145.02 173.1"/><polygon class="cls-7" points="148.7 129.03 152.37 129.03 156.04 129.03 156.04 132.71 159.71 132.71 163.39 132.71 163.39 136.38 167.06 136.38 170.73 136.38 170.73 125.36 167.06 125.36 163.39 125.36 163.39 121.69 159.71 121.69 159.71 118.02 156.04 118.02 152.37 118.02 148.7 118.02 145.02 118.02 145.02 121.69 148.7 121.69 148.7 129.03"/><polygon class="cls-7" points="156.04 261.24 152.37 261.24 152.37 275.93 148.7 275.93 148.7 279.6 145.02 279.6 141.35 279.6 141.35 275.93 137.68 275.93 137.68 283.27 141.35 283.27 141.35 286.95 145.02 286.95 148.7 286.95 152.37 286.95 156.04 286.95 156.04 283.27 159.71 283.27 159.71 286.95 163.39 286.95 163.39 261.24 159.71 261.24 156.04 261.24"/><polygon class="cls-7" points="163.39 121.69 167.06 121.69 170.73 121.69 174.4 121.69 178.07 121.69 181.75 121.69 181.75 118.02 185.42 118.02 185.42 110.67 189.09 110.67 192.76 110.67 196.44 110.67 196.44 107 192.76 107 192.76 99.66 189.09 99.66 189.09 81.29 185.42 81.29 185.42 62.93 181.75 62.93 181.75 59.26 178.07 59.26 174.4 59.26 174.4 81.29 178.07 81.29 181.75 81.29 181.75 88.64 178.07 88.64 174.4 88.64 174.4 95.98 178.07 95.98 178.07 103.33 181.75 103.33 181.75 110.67 178.07 110.67 174.4 110.67 170.73 110.67 167.06 110.67 163.39 110.67 163.39 103.33 167.06 103.33 167.06 95.98 170.73 95.98 170.73 88.64 167.06 88.64 163.39 88.64 163.39 81.29 159.71 81.29 159.71 99.66 156.04 99.66 156.04 107 152.37 107 152.37 110.67 156.04 110.67 159.71 110.67 159.71 118.02 163.39 118.02 163.39 121.69"/><polygon class="cls-7" points="170.73 81.29 170.73 59.26 167.06 59.26 163.39 59.26 163.39 81.29 167.06 81.29 170.73 81.29"/><rect class="cls-7" x="170.73" y="81.29" width="3.67" height="7.35"/><polygon class="cls-7" points="181.75 191.46 185.42 191.46 185.42 195.14 181.75 195.14 181.75 257.57 185.42 257.57 189.09 257.57 192.76 257.57 192.76 187.79 189.09 187.79 185.42 187.79 181.75 187.79 178.07 187.79 174.4 187.79 170.73 187.79 167.06 187.79 163.39 187.79 159.71 187.79 156.04 187.79 152.37 187.79 152.37 257.57 156.04 257.57 159.71 257.57 163.39 257.57 163.39 195.14 159.71 195.14 159.71 191.46 163.39 191.46 163.39 195.14 167.06 195.14 167.06 198.81 170.73 198.81 174.4 198.81 178.07 198.81 178.07 195.14 181.75 195.14 181.75 191.46"/><polygon class="cls-7" points="181.75 121.69 181.75 125.36 178.07 125.36 174.4 125.36 174.4 136.38 178.07 136.38 181.75 136.38 181.75 132.71 185.42 132.71 189.09 132.71 189.09 129.03 192.76 129.03 196.44 129.03 196.44 121.69 200.11 121.69 200.11 118.02 196.44 118.02 192.76 118.02 189.09 118.02 185.42 118.02 185.42 121.69 181.75 121.69"/><path class="cls-7" d="M185.42,136.38h-3.67v3.67H163.39v-3.67H156v-3.67h-3.67v51.41h40.39V132.71h-3.67v3.67ZM167.06,173.1h-3.67v-7.34h3.67Zm7.34,0h-3.67v-7.34h3.67Zm0-11h-11v-3.68h11Zm0-7.35h-11v-3.67h11Zm7.35,18.36h-3.68v-7.34h3.68Zm0-11h-3.68v-3.68h3.68Zm0-7.35h-3.68v-3.67h3.68Z"/><polygon class="cls-7" points="196.44 129.03 196.44 173.1 200.11 173.1 203.78 173.1 207.46 173.1 207.46 125.36 203.78 125.36 203.78 121.69 200.11 121.69 200.11 129.03 196.44 129.03"/><rect class="cls-7" x="203.78" y="99.66" width="3.67" height="3.67"/><polygon class="cls-7" points="207.46 176.78 203.78 176.78 200.11 176.78 196.44 176.78 196.44 198.81 200.11 198.81 203.78 198.81 207.46 198.81 211.13 198.81 211.13 195.14 207.46 195.14 207.46 176.78"/><polygon class="cls-7" points="203.78 279.6 200.11 279.6 196.44 279.6 196.44 275.93 192.76 275.93 192.76 261.24 189.09 261.24 185.42 261.24 181.75 261.24 181.75 286.95 185.42 286.95 185.42 283.27 189.09 283.27 189.09 286.95 192.76 286.95 196.44 286.95 200.11 286.95 203.78 286.95 203.78 283.27 207.46 283.27 207.46 275.93 203.78 275.93 203.78 279.6"/><rect class="cls-7" x="207.45" y="62.93" width="3.67" height="7.35"/><rect class="cls-7" x="207.45" y="95.98" width="3.67" height="3.67"/><rect class="cls-7" x="211.13" y="70.28" width="3.67" height="3.67"/><rect class="cls-7" x="211.13" y="92.31" width="3.67" height="3.67"/><rect class="cls-7" x="214.8" y="73.95" width="3.67" height="3.67"/><rect class="cls-7" x="218.47" y="77.62" width="3.67" height="3.67"/><rect class="cls-7" x="222.14" y="73.95" width="3.67" height="3.67"/><rect class="cls-7" x="225.82" y="70.28" width="3.67" height="3.67"/><rect class="cls-7" x="229.49" y="62.93" width="3.67" height="7.35"/><polygon class="cls-7" points="240.51 62.93 240.51 84.96 236.83 84.96 236.83 88.64 233.16 88.64 229.49 88.64 225.82 88.64 222.14 88.64 218.47 88.64 214.8 88.64 214.8 92.31 218.47 92.31 222.14 92.31 225.82 92.31 229.49 92.31 233.16 92.31 236.83 92.31 240.51 92.31 240.51 88.64 244.18 88.64 244.18 62.93 240.51 62.93"/></g></svg>