<svg xmlns="http://www.w3.org/2000/svg" xmlns:xlink="http://www.w3.org/1999/xlink" viewBox="0 0 345 345"><defs><style>.cls-1{fill:url(#radial-gradient);}.cls-2{fill:#d6a629;}.cls-3{fill:#ffe300;}.cls-4{fill:#b62d55;}.cls-5{fill:#a0a0a8;}.cls-6{fill:#228c43;}.cls-7{fill:#4b143f;}.cls-8{fill:#7d3868;}.cls-9{fill:#ccd2d3;}.cls-10{fill:#fff;}.cls-11{fill:#010101;}</style><radialGradient id="radial-gradient" cx="172.5" cy="172.5" r="172.5" gradientUnits="userSpaceOnUse"><stop offset="0" stop-color="#174170"/><stop offset="1" stop-color="#3a76bc"/></radialGradient></defs><g id="Layer_7" data-name="Layer 7"><rect class="cls-1" width="345" height="345"/></g><g id="Layer_17" data-name="Layer 17"><rect class="cls-2" x="171.29" y="137.7" width="3.56" height="3.56"/><rect class="cls-2" x="171.29" y="144.82" width="3.56" height="3.56"/><rect class="cls-2" x="171.29" y="151.93" width="3.56" height="3.56"/><rect class="cls-2" x="171.29" y="159.04" width="3.56" height="3.56"/><rect class="cls-2" x="171.29" y="166.16" width="3.56" height="3.56"/><rect class="cls-2" x="171.29" y="173.27" width="3.56" height="3.56"/><path class="cls-3" d="M178.41,137.7v-3.56h-3.56v-3.55h-3.56v3.55h-3.55v3.56h-3.56v49.8h3.56v-3.56h3.55v-3.55h3.56v3.55h3.56v3.56H182V137.7Zm-3.56,39.13h-3.56v-3.56h3.56Zm0-7.11h-3.56v-3.56h3.56Zm0-7.12h-3.56V159h3.56Zm0-7.11h-3.56v-3.56h3.56Zm0-7.12h-3.56v-3.55h3.56Zm0-7.11h-3.56V137.7h3.56Z"/><rect class="cls-4" x="160.62" y="105.69" width="3.56" height="3.56"/><polygon class="cls-4" points="171.29 102.13 167.74 102.13 164.18 102.13 164.18 105.69 167.74 105.69 171.29 105.69 174.85 105.69 174.85 102.13 171.29 102.13"/><polygon class="cls-4" points="181.97 105.69 178.41 105.69 174.85 105.69 174.85 109.24 178.41 109.24 181.97 109.24 185.52 109.24 185.52 105.69 181.97 105.69"/><rect class="cls-5" x="157.07" y="91.46" width="3.56" height="10.67"/><polygon class="cls-5" points="167.74 112.8 167.74 119.92 171.29 119.92 171.29 116.36 174.85 116.36 174.85 112.8 171.29 112.8 167.74 112.8"/><polygon class="cls-5" points="171.29 95.02 167.74 95.02 167.74 98.57 171.29 98.57 174.85 98.57 174.85 91.46 171.29 91.46 171.29 95.02"/><rect class="cls-5" x="185.52" y="91.46" width="3.56" height="10.67"/><rect class="cls-6" x="153.51" y="91.46" width="3.56" height="3.56"/><polygon class="cls-6" points="157.06 84.34 153.51 84.34 153.51 87.9 157.06 87.9 157.06 91.46 160.62 91.46 160.62 70.11 157.06 70.11 157.06 84.34"/><polygon class="cls-6" points="174.85 127.03 171.29 127.03 167.74 127.03 164.18 127.03 164.18 137.7 167.74 137.7 167.74 134.14 171.29 134.14 171.29 130.59 174.85 130.59 174.85 134.14 178.41 134.14 178.41 137.7 181.97 137.7 181.97 127.03 178.41 127.03 174.85 127.03"/><polygon class="cls-6" points="181.97 66.56 178.41 66.56 174.85 66.56 171.29 66.56 167.74 66.56 164.18 66.56 160.62 66.56 160.62 70.11 164.18 70.11 164.18 73.67 167.74 73.67 167.74 77.23 171.29 77.23 171.29 80.79 174.85 80.79 174.85 77.23 178.41 77.23 178.41 73.67 181.97 73.67 181.97 70.11 185.52 70.11 185.52 66.56 181.97 66.56"/><polygon class="cls-6" points="192.64 87.9 192.64 84.34 189.08 84.34 189.08 70.11 185.52 70.11 185.52 91.46 189.08 91.46 189.08 87.9 192.64 87.9"/><rect class="cls-6" x="189.08" y="91.46" width="3.56" height="3.56"/><rect class="cls-7" x="146.39" y="130.59" width="3.56" height="3.56"/><rect class="cls-7" x="149.95" y="134.14" width="3.56" height="56.92"/><polygon class="cls-7" points="160.62 205.29 157.06 205.29 157.06 208.84 153.51 208.84 153.51 258.65 157.06 258.65 160.62 258.65 164.18 258.65 164.18 201.73 160.62 201.73 160.62 205.29"/><polygon class="cls-7" points="181.97 187.5 178.41 187.5 178.41 183.94 174.85 183.94 174.85 180.39 171.29 180.39 171.29 183.94 167.74 183.94 167.74 187.5 164.18 187.5 164.18 198.17 167.74 198.17 167.74 201.73 171.29 201.73 174.85 201.73 178.41 201.73 178.41 198.17 181.97 198.17 181.97 187.5"/><polygon class="cls-7" points="189.08 205.29 185.52 205.29 185.52 201.73 181.97 201.73 181.97 258.65 185.52 258.65 189.08 258.65 192.64 258.65 192.64 208.84 189.08 208.84 189.08 205.29"/><rect class="cls-7" x="192.64" y="134.14" width="3.56" height="56.92"/><rect class="cls-7" x="196.19" y="130.59" width="3.56" height="3.56"/><polygon class="cls-8" points="164.18 198.17 164.18 127.03 160.62 127.03 160.62 123.47 157.06 123.47 157.06 119.92 153.51 119.92 149.95 119.92 146.39 119.92 142.84 119.92 139.28 119.92 139.28 191.06 142.84 191.06 146.39 191.06 149.95 191.06 149.95 134.14 146.39 134.14 146.39 130.59 149.95 130.59 149.95 134.14 153.51 134.14 153.51 208.84 157.06 208.84 157.06 205.29 160.62 205.29 160.62 201.73 164.18 201.73 167.74 201.73 167.74 198.17 164.18 198.17"/><polygon class="cls-8" points="171.29 201.73 167.74 201.73 167.74 205.29 171.29 205.29 174.85 205.29 178.41 205.29 178.41 201.73 174.85 201.73 171.29 201.73"/><polygon class="cls-8" points="203.31 119.92 199.75 119.92 196.19 119.92 192.64 119.92 189.08 119.92 189.08 123.47 185.52 123.47 185.52 127.03 181.97 127.03 181.97 198.17 178.41 198.17 178.41 201.73 181.97 201.73 185.52 201.73 185.52 205.29 189.08 205.29 189.08 208.84 192.64 208.84 192.64 134.14 196.19 134.14 196.19 130.59 199.75 130.59 199.75 134.14 196.19 134.14 196.19 191.06 199.75 191.06 203.31 191.06 206.87 191.06 206.87 119.92 203.31 119.92"/><rect class="cls-9" x="135.72" y="191.06" width="3.56" height="7.11"/><path class="cls-9" d="M178.41,109.24H160.62v14.23h3.56V127H182v-3.56h3.55V109.24h-7.11Zm-3.56,7.12h-3.56v3.56h-3.55V112.8h7.11Z"/><path class="cls-9" d="M182,73.67h-3.56v3.56h-3.56v3.56h-3.56V77.23h-3.55V73.67h-3.56V70.11h-3.56v35.58h3.56v-3.56h10.67v3.56h10.67V70.11H182Zm0,17.79h-7.12v7.11h-7.11V95h3.55V91.46h-7.11V87.9h7.11v3.56h3.56V87.9H182Z"/><rect class="cls-9" x="206.87" y="191.06" width="3.56" height="7.11"/><polygon class="cls-10" points="153.51 201.73 153.51 191.06 149.95 191.06 146.39 191.06 142.84 191.06 139.28 191.06 139.28 198.17 135.72 198.17 135.72 201.73 139.28 201.73 142.84 201.73 146.39 201.73 149.95 201.73 153.51 201.73"/><rect class="cls-10" x="157.07" y="116.36" width="3.56" height="7.11"/><rect class="cls-10" x="160.62" y="123.47" width="3.56" height="3.56"/><polygon class="cls-10" points="160.62 258.65 157.06 258.65 153.51 258.65 149.95 258.65 149.95 265.76 153.51 265.76 153.51 262.2 157.06 262.2 160.62 262.2 164.18 262.2 164.18 265.76 167.74 265.76 167.74 258.65 164.18 258.65 160.62 258.65"/><rect class="cls-10" x="164.18" y="87.9" width="3.56" height="3.56"/><polygon class="cls-10" points="167.74 105.69 164.18 105.69 164.18 109.24 167.74 109.24 171.29 109.24 174.85 109.24 174.85 105.69 171.29 105.69 167.74 105.69"/><rect class="cls-10" x="174.85" y="87.9" width="3.56" height="3.56"/><rect class="cls-10" x="181.97" y="123.47" width="3.56" height="3.56"/><rect class="cls-10" x="185.52" y="116.36" width="3.56" height="7.11"/><polygon class="cls-10" points="189.08 258.65 185.52 258.65 181.97 258.65 178.41 258.65 178.41 265.76 181.97 265.76 181.97 262.2 185.52 262.2 189.08 262.2 192.64 262.2 192.64 265.76 196.19 265.76 196.19 258.65 192.64 258.65 189.08 258.65"/><rect class="cls-10" x="203.31" y="102.13" width="3.56" height="3.56"/><polygon class="cls-10" points="206.87 191.06 203.31 191.06 199.75 191.06 196.19 191.06 192.64 191.06 192.64 201.73 196.19 201.73 199.75 201.73 203.31 201.73 206.87 201.73 210.42 201.73 210.42 198.17 206.87 198.17 206.87 191.06"/><path class="cls-10" d="M235.32,66.56V63h-32v3.56h-3.56V95h3.56v3.56h3.56v3.56h3.55V98.57H214V95h21.34V91.46h3.56V66.56ZM231.77,87.9h-24.9V80.79h3.55v3.55h17.79V73.67h-3.56V70.11h7.12Z"/><polygon class="cls-11" points="157.06 262.2 153.51 262.2 153.51 276.43 149.95 276.43 149.95 279.99 146.39 279.99 142.84 279.99 142.84 276.43 139.28 276.43 139.28 283.55 142.84 283.55 142.84 287.1 146.39 287.1 149.95 287.1 153.51 287.1 157.06 287.1 157.06 283.55 160.62 283.55 160.62 287.1 164.18 287.1 164.18 262.2 160.62 262.2 157.06 262.2"/><rect class="cls-11" x="167.74" y="87.9" width="3.56" height="3.56"/><rect class="cls-11" x="178.41" y="87.9" width="3.56" height="3.56"/><rect class="cls-11" x="203.31" y="105.69" width="3.56" height="3.56"/><polygon class="cls-11" points="203.31 279.99 199.75 279.99 196.19 279.99 196.19 276.43 192.64 276.43 192.64 262.2 189.08 262.2 185.52 262.2 181.97 262.2 181.97 287.1 185.52 287.1 185.52 283.55 189.08 283.55 189.08 287.1 192.64 287.1 196.19 287.1 199.75 287.1 203.31 287.1 203.31 283.55 206.87 283.55 206.87 276.43 203.31 276.43 203.31 279.99"/><rect class="cls-11" x="206.87" y="102.13" width="3.56" height="3.56"/><polygon class="cls-11" points="213.98 87.9 217.54 87.9 221.09 87.9 224.65 87.9 228.21 87.9 231.77 87.9 231.77 70.11 228.21 70.11 224.65 70.11 224.65 73.67 228.21 73.67 228.21 84.34 224.65 84.34 221.09 84.34 217.54 84.34 213.98 84.34 210.42 84.34 210.42 80.79 206.87 80.79 206.87 87.9 210.42 87.9 213.98 87.9"/><rect class="cls-11" x="210.42" y="98.57" width="3.56" height="3.56"/><polygon class="cls-11" points="238.88 70.11 238.88 91.46 235.32 91.46 235.32 95.02 231.77 95.02 228.21 95.02 224.65 95.02 221.09 95.02 217.54 95.02 213.98 95.02 213.98 98.57 217.54 98.57 221.09 98.57 224.65 98.57 228.21 98.57 231.77 98.57 235.32 98.57 238.88 98.57 238.88 95.02 242.44 95.02 242.44 70.11 238.88 70.11"/></g></svg>