<svg xmlns="http://www.w3.org/2000/svg" xmlns:xlink="http://www.w3.org/1999/xlink" viewBox="0 0 345 345"><defs><style>.cls-1{fill:url(#radial-gradient);}.cls-2{fill:#a0a0a8;}.cls-3{fill:#84152b;}.cls-4{fill:#b62d55;}.cls-5{fill:#404346;}.cls-6{fill:#fff;}.cls-7{fill:#010101;}</style><radialGradient id="radial-gradient" cx="172.5" cy="172.5" r="172.5" gradientUnits="userSpaceOnUse"><stop offset="0" stop-color="#174170"/><stop offset="1" stop-color="#3a76bc"/></radialGradient></defs><g id="Layer_7" data-name="Layer 7"><rect class="cls-1" width="345" height="345"/></g><g id="Layer_16" data-name="Layer 16"><rect class="cls-2" x="171.29" y="187.5" width="3.56" height="3.56"/><polygon class="cls-3" points="164.18 87.9 167.74 87.9 171.29 87.9 171.29 84.34 167.74 84.34 164.18 84.34 160.62 84.34 160.62 80.78 157.07 80.78 157.07 87.9 160.62 87.9 164.18 87.9"/><polygon class="cls-3" points="167.74 109.24 167.74 98.57 164.18 98.57 160.62 98.57 160.62 95.02 157.07 95.02 157.07 102.13 160.62 102.13 164.18 102.13 164.18 109.24 167.74 109.24"/><polygon class="cls-3" points="167.74 112.8 167.74 119.92 171.29 119.92 171.29 116.36 174.85 116.36 174.85 112.8 171.29 112.8 167.74 112.8"/><polygon class="cls-3" points="185.52 80.78 185.52 84.34 181.97 84.34 178.41 84.34 174.85 84.34 174.85 87.9 178.41 87.9 181.97 87.9 185.52 87.9 189.08 87.9 189.08 80.78 185.52 80.78"/><polygon class="cls-3" points="185.52 98.57 181.97 98.57 178.41 98.57 178.41 109.24 181.97 109.24 181.97 102.13 185.52 102.13 189.08 102.13 189.08 95.02 185.52 95.02 185.52 98.57"/><polygon class="cls-4" points="171.29 98.57 171.29 91.46 167.74 91.46 167.74 95.02 164.18 95.02 164.18 91.46 160.62 91.46 160.62 98.57 164.18 98.57 167.74 98.57 167.74 105.69 171.29 105.69 174.85 105.69 178.41 105.69 178.41 98.57 181.97 98.57 185.52 98.57 185.52 91.46 181.97 91.46 181.97 95.02 178.41 95.02 178.41 91.46 174.85 91.46 174.85 98.57 171.29 98.57"/><polygon class="cls-4" points="181.97 66.56 178.41 66.56 174.85 66.56 171.29 66.56 167.74 66.56 164.18 66.56 164.18 70.11 160.62 70.11 160.62 84.34 164.18 84.34 167.74 84.34 171.29 84.34 171.29 91.46 174.85 91.46 174.85 84.34 178.41 84.34 181.97 84.34 185.52 84.34 185.52 70.11 181.97 70.11 181.97 66.56"/><path class="cls-4" d="M182,109.24H164.18v-7.11h-3.56v21.34h3.56V127H182v-3.56h3.55V102.13H182Zm-7.12,7.12h-3.56v3.56h-3.55V112.8h7.11Z"/><polygon class="cls-4" points="203.31 144.82 206.87 144.82 206.87 141.26 203.31 141.26 199.75 141.26 196.19 141.26 196.19 159.04 199.75 159.04 203.31 159.04 206.87 159.04 206.87 155.49 203.31 155.49 199.75 155.49 199.75 144.82 203.31 144.82"/><polygon class="cls-5" points="139.28 123.47 142.84 123.47 146.39 123.47 149.95 123.47 153.51 123.47 153.51 119.92 149.95 119.92 146.39 119.92 142.84 119.92 139.28 119.92 135.72 119.92 135.72 127.03 139.28 127.03 139.28 123.47"/><rect class="cls-5" x="135.72" y="191.06" width="3.56" height="7.11"/><rect class="cls-5" x="146.39" y="130.59" width="3.56" height="3.56"/><rect class="cls-5" x="160.62" y="194.62" width="3.56" height="3.56"/><polygon class="cls-5" points="160.62 258.65 157.07 258.65 153.51 258.65 149.95 258.65 149.95 265.76 153.51 265.76 153.51 262.2 157.07 262.2 160.62 262.2 164.18 262.2 164.18 265.76 167.74 265.76 167.74 258.65 164.18 258.65 160.62 258.65"/><polygon class="cls-5" points="164.18 187.5 160.62 187.5 157.07 187.5 153.51 187.5 153.51 159.04 157.07 159.04 160.62 159.04 164.18 159.04 164.18 155.49 160.62 155.49 157.07 155.49 153.51 155.49 153.51 144.82 157.07 144.82 160.62 144.82 164.18 144.82 164.18 155.49 167.74 155.49 167.74 141.26 164.18 141.26 160.62 141.26 157.07 141.26 153.51 141.26 153.51 134.14 149.95 134.14 149.95 176.83 146.39 176.83 142.84 176.83 139.28 176.83 135.72 176.83 135.72 183.94 139.28 183.94 139.28 180.39 142.84 180.39 146.39 180.39 149.95 180.39 149.95 201.73 153.51 201.73 153.51 191.06 157.07 191.06 160.62 191.06 164.18 191.06 167.74 191.06 171.29 191.06 171.29 187.5 167.74 187.5 164.18 187.5"/><rect class="cls-5" x="164.18" y="198.17" width="3.56" height="3.56"/><rect class="cls-5" x="171.29" y="127.03" width="3.56" height="60.47"/><polygon class="cls-5" points="178.41 201.73 174.85 201.73 171.29 201.73 167.74 201.73 167.74 205.29 171.29 205.29 174.85 205.29 178.41 205.29 178.41 201.73"/><rect class="cls-5" x="178.41" y="198.17" width="3.56" height="3.56"/><rect class="cls-5" x="181.97" y="194.62" width="3.56" height="3.56"/><polygon class="cls-5" points="189.08 258.65 185.52 258.65 181.97 258.65 178.41 258.65 178.41 265.76 181.97 265.76 181.97 262.2 185.52 262.2 189.08 262.2 192.64 262.2 192.64 265.76 196.19 265.76 196.19 258.65 192.64 258.65 189.08 258.65"/><rect class="cls-5" x="196.19" y="130.59" width="3.56" height="3.56"/><polygon class="cls-5" points="203.31 176.83 199.75 176.83 196.19 176.83 196.19 134.14 192.64 134.14 192.64 141.26 189.08 141.26 185.52 141.26 181.97 141.26 178.41 141.26 178.41 155.49 181.97 155.49 181.97 144.82 185.52 144.82 189.08 144.82 192.64 144.82 192.64 155.49 189.08 155.49 185.52 155.49 181.97 155.49 181.97 159.04 185.52 159.04 189.08 159.04 192.64 159.04 192.64 187.5 189.08 187.5 185.52 187.5 181.97 187.5 178.41 187.5 174.85 187.5 174.85 191.06 178.41 191.06 181.97 191.06 185.52 191.06 189.08 191.06 192.64 191.06 192.64 201.73 196.19 201.73 196.19 180.39 199.75 180.39 203.31 180.39 206.87 180.39 206.87 183.94 210.42 183.94 210.42 176.83 206.87 176.83 203.31 176.83"/><polygon class="cls-5" points="206.87 119.92 203.31 119.92 199.75 119.92 196.19 119.92 192.64 119.92 192.64 123.47 196.19 123.47 199.75 123.47 203.31 123.47 206.87 123.47 206.87 127.03 210.42 127.03 210.42 119.92 206.87 119.92"/><rect class="cls-5" x="206.87" y="191.06" width="3.56" height="7.11"/><rect class="cls-6" x="164.18" y="87.9" width="3.56" height="3.56"/><polygon class="cls-6" points="171.29 105.69 167.74 105.69 167.74 109.24 171.29 109.24 174.85 109.24 178.41 109.24 178.41 105.69 174.85 105.69 171.29 105.69"/><rect class="cls-6" x="178.41" y="87.9" width="3.56" height="3.56"/><polygon class="cls-6" points="199.75 144.82 199.75 155.49 203.31 155.49 206.87 155.49 206.87 151.93 203.31 151.93 203.31 148.37 206.87 148.37 206.87 144.82 203.31 144.82 199.75 144.82"/><rect class="cls-6" x="203.31" y="102.13" width="3.56" height="3.56"/><polygon class="cls-6" points="224.65 73.67 221.09 73.67 217.54 73.67 213.98 73.67 210.42 73.67 210.42 77.23 213.98 77.23 217.54 77.23 221.09 77.23 224.65 77.23 228.21 77.23 228.21 73.67 224.65 73.67"/><path class="cls-6" d="M235.32,66.56V63h-32v3.56h-3.56V95h3.56v3.56h3.56v3.56h3.55V98.57H214V95h21.34V91.46h3.56V66.56Zm-3.55,10.67h-3.56v3.56h3.56V87.9h-3.56V80.79H210.42V87.9h-3.55V70.11h24.9Z"/><polygon class="cls-7" points="142.84 201.73 146.39 201.73 149.95 201.73 149.95 180.39 146.39 180.39 142.84 180.39 139.28 180.39 139.28 198.17 135.72 198.17 135.72 201.73 139.28 201.73 142.84 201.73"/><polygon class="cls-7" points="146.39 176.83 149.95 176.83 149.95 134.14 146.39 134.14 146.39 130.59 149.95 130.59 149.95 134.14 153.51 134.14 153.51 141.26 157.07 141.26 160.62 141.26 164.18 141.26 167.74 141.26 167.74 155.49 164.18 155.49 164.18 159.04 160.62 159.04 157.07 159.04 153.51 159.04 153.51 187.5 157.07 187.5 160.62 187.5 164.18 187.5 167.74 187.5 171.29 187.5 171.29 127.03 167.74 127.03 164.18 127.03 164.18 123.47 160.62 123.47 160.62 116.36 157.07 116.36 157.07 119.92 153.51 119.92 153.51 123.47 149.95 123.47 146.39 123.47 142.84 123.47 139.28 123.47 139.28 176.83 142.84 176.83 146.39 176.83"/><polygon class="cls-7" points="157.07 262.2 153.51 262.2 153.51 276.43 149.95 276.43 149.95 279.99 146.39 279.99 142.84 279.99 142.84 276.43 139.28 276.43 139.28 283.55 142.84 283.55 142.84 287.1 146.39 287.1 149.95 287.1 153.51 287.1 157.07 287.1 157.07 283.55 160.62 283.55 160.62 287.1 164.18 287.1 164.18 262.2 160.62 262.2 157.07 262.2"/><rect class="cls-7" x="160.62" y="87.9" width="3.56" height="3.56"/><polygon class="cls-7" points="160.62 144.82 157.07 144.82 153.51 144.82 153.51 155.49 157.07 155.49 160.62 155.49 164.18 155.49 164.18 144.82 160.62 144.82"/><rect class="cls-7" x="164.18" y="91.46" width="3.56" height="3.56"/><rect class="cls-7" x="167.74" y="87.9" width="3.56" height="3.56"/><rect class="cls-7" x="171.29" y="91.46" width="3.56" height="7.11"/><rect class="cls-7" x="174.85" y="87.9" width="3.56" height="3.56"/><rect class="cls-7" x="178.41" y="91.46" width="3.56" height="3.56"/><polygon class="cls-7" points="181.97 194.62 185.52 194.62 185.52 198.17 181.97 198.17 181.97 258.65 185.52 258.65 189.08 258.65 192.64 258.65 192.64 191.06 189.08 191.06 185.52 191.06 181.97 191.06 178.41 191.06 174.85 191.06 171.29 191.06 167.74 191.06 164.18 191.06 160.62 191.06 157.07 191.06 153.51 191.06 153.51 258.65 157.07 258.65 160.62 258.65 164.18 258.65 164.18 198.17 160.62 198.17 160.62 194.62 164.18 194.62 164.18 198.17 167.74 198.17 167.74 201.73 171.29 201.73 174.85 201.73 178.41 201.73 178.41 198.17 181.97 198.17 181.97 194.62"/><rect class="cls-7" x="181.97" y="87.9" width="3.56" height="3.56"/><polygon class="cls-7" points="185.52 116.36 185.52 123.47 181.97 123.47 181.97 127.03 178.41 127.03 174.85 127.03 174.85 187.5 178.41 187.5 181.97 187.5 185.52 187.5 189.08 187.5 192.64 187.5 192.64 159.04 189.08 159.04 185.52 159.04 181.97 159.04 181.97 155.49 178.41 155.49 178.41 141.26 181.97 141.26 185.52 141.26 189.08 141.26 192.64 141.26 192.64 134.14 196.19 134.14 196.19 130.59 199.75 130.59 199.75 134.14 196.19 134.14 196.19 141.26 199.75 141.26 203.31 141.26 206.87 141.26 206.87 123.47 203.31 123.47 199.75 123.47 196.19 123.47 192.64 123.47 192.64 119.92 189.08 119.92 189.08 116.36 185.52 116.36"/><polygon class="cls-7" points="189.08 155.49 192.64 155.49 192.64 144.82 189.08 144.82 185.52 144.82 181.97 144.82 181.97 155.49 185.52 155.49 189.08 155.49"/><polygon class="cls-7" points="199.75 159.04 196.19 159.04 196.19 176.83 199.75 176.83 203.31 176.83 206.87 176.83 206.87 159.04 203.31 159.04 199.75 159.04"/><rect class="cls-7" x="203.31" y="105.69" width="3.56" height="3.56"/><rect class="cls-7" x="203.31" y="148.37" width="3.56" height="3.56"/><polygon class="cls-7" points="206.87 180.39 203.31 180.39 199.75 180.39 196.19 180.39 196.19 201.73 199.75 201.73 203.31 201.73 206.87 201.73 210.42 201.73 210.42 198.17 206.87 198.17 206.87 180.39"/><polygon class="cls-7" points="203.31 279.99 199.75 279.99 196.19 279.99 196.19 276.43 192.64 276.43 192.64 262.2 189.08 262.2 185.52 262.2 181.97 262.2 181.97 287.1 185.52 287.1 185.52 283.55 189.08 283.55 189.08 287.1 192.64 287.1 196.19 287.1 199.75 287.1 203.31 287.1 203.31 283.55 206.87 283.55 206.87 276.43 203.31 276.43 203.31 279.99"/><polygon class="cls-7" points="210.42 80.78 213.98 80.78 217.54 80.78 221.09 80.78 224.65 80.78 228.21 80.78 228.21 77.23 224.65 77.23 221.09 77.23 217.54 77.23 213.98 77.23 210.42 77.23 210.42 73.67 213.98 73.67 217.54 73.67 221.09 73.67 224.65 73.67 228.21 73.67 228.21 77.23 231.77 77.23 231.77 70.11 228.21 70.11 224.65 70.11 221.09 70.11 217.54 70.11 213.98 70.11 210.42 70.11 206.87 70.11 206.87 87.9 210.42 87.9 210.42 80.78"/><rect class="cls-7" x="206.87" y="102.13" width="3.56" height="3.56"/><rect class="cls-7" x="210.42" y="98.57" width="3.56" height="3.56"/><rect class="cls-7" x="228.21" y="80.79" width="3.56" height="7.12"/><polygon class="cls-7" points="238.88 70.11 238.88 91.46 235.32 91.46 235.32 95.02 231.77 95.02 228.21 95.02 224.65 95.02 221.09 95.02 217.54 95.02 213.98 95.02 213.98 98.57 217.54 98.57 221.09 98.57 224.65 98.57 228.21 98.57 231.77 98.57 235.32 98.57 238.88 98.57 238.88 95.02 242.44 95.02 242.44 70.11 238.88 70.11"/></g></svg>