<svg xmlns="http://www.w3.org/2000/svg" xmlns:xlink="http://www.w3.org/1999/xlink" viewBox="0 0 345 345"><defs><style>.cls-1{fill:url(#radial-gradient);}.cls-2{fill:#f3bba9;}.cls-3{fill:#8f4520;}.cls-4{fill:#d47d68;}.cls-5{fill:#085c2f;}.cls-6{fill:#228c43;}.cls-7{fill:#d6a629;}.cls-8{fill:#ffe300;}.cls-9{fill:#808088;}.cls-10{fill:#a0a0a8;}.cls-11{fill:#fff;}.cls-12{fill:#010101;}</style><radialGradient id="radial-gradient" cx="172.5" cy="172.5" r="172.5" gradientUnits="userSpaceOnUse"><stop offset="0" stop-color="#174170"/><stop offset="1" stop-color="#3a76bc"/></radialGradient></defs><g id="Layer_7" data-name="Layer 7"><rect class="cls-1" width="345" height="345"/></g><g id="Layer_15" data-name="Layer 15"><polygon class="cls-2" points="181.97 84.34 178.41 84.34 174.85 84.34 171.29 84.34 167.74 84.34 164.18 84.34 160.62 84.34 160.62 87.9 164.18 87.9 167.74 87.9 171.29 87.9 174.85 87.9 178.41 87.9 181.97 87.9 185.52 87.9 185.52 84.34 181.97 84.34"/><path class="cls-2" d="M182,95h-7.12v3.56h-7.11V95h-3.56V91.46h-3.56v32h3.56V127H182v-3.56h3.55v-32H182Zm-7.12,21.35h-3.56v3.56h-3.55V112.8h7.11Zm0-7.12H164.18v-7.11h10.67Z"/><polygon class="cls-3" points="185.52 73.67 185.52 70.11 181.97 70.11 181.97 66.56 178.41 66.56 174.85 66.56 171.29 66.56 167.74 66.56 164.18 66.56 164.18 70.11 160.62 70.11 160.62 73.67 157.07 73.67 157.07 91.46 160.62 91.46 160.62 84.34 164.18 84.34 167.74 84.34 171.29 84.34 174.85 84.34 178.41 84.34 181.97 84.34 185.52 84.34 185.52 91.46 189.08 91.46 189.08 73.67 185.52 73.67"/><rect class="cls-4" x="157.07" y="91.46" width="3.56" height="10.67"/><polygon class="cls-4" points="167.74 102.13 164.18 102.13 164.18 105.69 167.74 105.69 171.29 105.69 174.85 105.69 174.85 102.13 171.29 102.13 167.74 102.13"/><polygon class="cls-4" points="167.74 112.8 167.74 119.92 171.29 119.92 171.29 116.36 174.85 116.36 174.85 112.8 171.29 112.8 167.74 112.8"/><polygon class="cls-4" points="171.29 95.02 167.74 95.02 167.74 98.57 171.29 98.57 174.85 98.57 174.85 91.46 171.29 91.46 171.29 95.02"/><rect class="cls-4" x="185.52" y="91.46" width="3.56" height="10.67"/><rect class="cls-5" x="146.39" y="130.59" width="3.56" height="3.56"/><polygon class="cls-5" points="164.18 148.37 167.74 148.37 167.74 144.81 164.18 144.81 160.62 144.81 157.07 144.81 153.51 144.81 153.51 134.14 149.95 134.14 149.95 176.83 153.51 176.83 153.51 148.37 157.07 148.37 160.62 148.37 164.18 148.37"/><rect class="cls-5" x="160.62" y="194.62" width="3.56" height="3.56"/><rect class="cls-5" x="164.18" y="198.17" width="3.56" height="3.56"/><rect class="cls-5" x="167.74" y="141.26" width="3.56" height="3.56"/><polygon class="cls-5" points="171.29 201.73 167.74 201.73 167.74 205.29 171.29 205.29 174.85 205.29 178.41 205.29 178.41 201.73 174.85 201.73 171.29 201.73"/><rect class="cls-5" x="174.85" y="141.26" width="3.56" height="3.56"/><rect class="cls-5" x="178.41" y="198.17" width="3.56" height="3.56"/><rect class="cls-5" x="181.97" y="194.62" width="3.56" height="3.56"/><polygon class="cls-5" points="192.64 144.81 189.08 144.81 185.52 144.81 181.97 144.81 178.41 144.81 178.41 148.37 181.97 148.37 185.52 148.37 189.08 148.37 192.64 148.37 192.64 176.83 196.19 176.83 196.19 134.14 192.64 134.14 192.64 144.81"/><rect class="cls-5" x="196.19" y="130.59" width="3.56" height="3.56"/><polygon class="cls-6" points="185.52 191.06 181.97 191.06 178.41 191.06 174.85 191.06 171.29 191.06 167.74 191.06 164.18 191.06 160.62 191.06 157.07 191.06 153.51 191.06 153.51 258.65 157.07 258.65 160.62 258.65 164.18 258.65 164.18 198.17 160.62 198.17 160.62 194.62 164.18 194.62 164.18 198.17 167.74 198.17 167.74 201.73 171.29 201.73 174.85 201.73 178.41 201.73 178.41 198.17 181.97 198.17 181.97 194.62 185.52 194.62 185.52 198.17 181.97 198.17 181.97 258.65 185.52 258.65 189.08 258.65 192.64 258.65 192.64 191.06 189.08 191.06 185.52 191.06"/><polygon class="cls-6" points="203.31 119.92 199.75 119.92 196.19 119.92 192.64 119.92 189.08 119.92 189.08 123.47 185.52 123.47 185.52 127.03 181.97 127.03 181.97 130.59 178.41 130.59 174.85 130.59 171.29 130.59 167.74 130.59 164.18 130.59 164.18 127.03 160.62 127.03 160.62 123.47 157.07 123.47 157.07 119.92 153.51 119.92 149.95 119.92 146.39 119.92 142.84 119.92 139.28 119.92 139.28 176.83 142.84 176.83 146.39 176.83 149.95 176.83 149.95 134.14 146.39 134.14 146.39 130.59 149.95 130.59 149.95 134.14 153.51 134.14 153.51 144.81 157.07 144.81 160.62 144.81 164.18 144.81 167.74 144.81 167.74 141.26 171.29 141.26 171.29 144.81 167.74 144.81 167.74 148.37 164.18 148.37 160.62 148.37 157.07 148.37 153.51 148.37 153.51 187.5 157.07 187.5 160.62 187.5 164.18 187.5 167.74 187.5 171.29 187.5 174.85 187.5 178.41 187.5 181.97 187.5 185.52 187.5 189.08 187.5 192.64 187.5 192.64 148.37 189.08 148.37 185.52 148.37 181.97 148.37 178.41 148.37 178.41 144.81 174.85 144.81 174.85 141.26 178.41 141.26 178.41 144.81 181.97 144.81 185.52 144.81 189.08 144.81 192.64 144.81 192.64 134.14 196.19 134.14 196.19 130.59 199.75 130.59 199.75 134.14 196.19 134.14 196.19 176.83 199.75 176.83 203.31 176.83 206.87 176.83 206.87 119.92 203.31 119.92"/><rect class="cls-7" x="135.72" y="191.06" width="3.56" height="7.11"/><polygon class="cls-7" points="153.51 180.39 153.51 176.83 149.95 176.83 146.39 176.83 142.84 176.83 139.28 176.83 135.72 176.83 135.72 183.94 139.28 183.94 139.28 180.39 142.84 180.39 146.39 180.39 149.95 180.39 153.51 180.39"/><polygon class="cls-7" points="160.62 258.65 157.07 258.65 153.51 258.65 149.95 258.65 149.95 265.76 153.51 265.76 153.51 262.2 157.07 262.2 160.62 262.2 164.18 262.2 164.18 265.76 167.74 265.76 167.74 258.65 164.18 258.65 160.62 258.65"/><polygon class="cls-7" points="181.97 191.06 185.52 191.06 189.08 191.06 192.64 191.06 192.64 187.5 189.08 187.5 185.52 187.5 181.97 187.5 178.41 187.5 174.85 187.5 171.29 187.5 167.74 187.5 164.18 187.5 160.62 187.5 157.07 187.5 153.51 187.5 153.51 191.06 157.07 191.06 160.62 191.06 164.18 191.06 167.74 191.06 171.29 191.06 174.85 191.06 178.41 191.06 181.97 191.06"/><polygon class="cls-7" points="189.08 258.65 185.52 258.65 181.97 258.65 178.41 258.65 178.41 265.76 181.97 265.76 181.97 262.2 185.52 262.2 189.08 262.2 192.64 262.2 192.64 265.76 196.19 265.76 196.19 258.65 192.64 258.65 189.08 258.65"/><polygon class="cls-7" points="206.87 176.83 203.31 176.83 199.75 176.83 196.19 176.83 192.64 176.83 192.64 180.39 196.19 180.39 199.75 180.39 203.31 180.39 206.87 180.39 206.87 183.94 210.42 183.94 210.42 176.83 206.87 176.83"/><rect class="cls-7" x="206.87" y="191.06" width="3.56" height="7.11"/><polygon class="cls-8" points="142.84 201.73 146.39 201.73 149.95 201.73 153.51 201.73 153.51 180.39 149.95 180.39 146.39 180.39 142.84 180.39 139.28 180.39 139.28 198.17 135.72 198.17 135.72 201.73 139.28 201.73 142.84 201.73"/><rect class="cls-8" x="157.07" y="116.36" width="3.56" height="7.11"/><polygon class="cls-8" points="157.07 262.2 153.51 262.2 153.51 276.43 149.95 276.43 149.95 279.99 146.39 279.99 142.84 279.99 142.84 276.43 139.28 276.43 139.28 283.55 142.84 283.55 142.84 287.1 146.39 287.1 149.95 287.1 153.51 287.1 157.07 287.1 157.07 283.55 160.62 283.55 160.62 287.1 164.18 287.1 164.18 262.2 160.62 262.2 157.07 262.2"/><rect class="cls-8" x="160.62" y="123.47" width="3.56" height="3.56"/><polygon class="cls-8" points="181.97 127.03 178.41 127.03 174.85 127.03 171.29 127.03 167.74 127.03 164.18 127.03 164.18 130.59 167.74 130.59 171.29 130.59 174.85 130.59 178.41 130.59 181.97 130.59 181.97 127.03"/><rect class="cls-8" x="181.97" y="123.47" width="3.56" height="3.56"/><rect class="cls-8" x="185.52" y="116.36" width="3.56" height="7.11"/><polygon class="cls-8" points="203.31 279.99 199.75 279.99 196.19 279.99 196.19 276.43 192.64 276.43 192.64 262.2 189.08 262.2 185.52 262.2 181.97 262.2 181.97 287.1 185.52 287.1 185.52 283.55 189.08 283.55 189.08 287.1 192.64 287.1 196.19 287.1 199.75 287.1 203.31 287.1 203.31 283.55 206.87 283.55 206.87 276.43 203.31 276.43 203.31 279.99"/><polygon class="cls-8" points="206.87 198.17 206.87 180.39 203.31 180.39 199.75 180.39 196.19 180.39 192.64 180.39 192.64 201.73 196.19 201.73 199.75 201.73 203.31 201.73 206.87 201.73 210.42 201.73 210.42 198.17 206.87 198.17"/><polygon class="cls-9" points="125.05 102.13 125.05 105.69 128.61 105.69 132.16 105.69 132.16 102.13 128.61 102.13 125.05 102.13"/><polygon class="cls-9" points="132.16 112.8 132.16 109.24 128.61 109.24 125.05 109.24 125.05 112.8 128.61 112.8 132.16 112.8"/><polygon class="cls-9" points="132.16 212.4 132.16 208.84 128.61 208.84 125.05 208.84 125.05 212.4 128.61 212.4 132.16 212.4"/><polygon class="cls-9" points="128.61 215.96 125.05 215.96 125.05 219.52 128.61 219.52 132.16 219.52 132.16 215.96 128.61 215.96"/><rect class="cls-9" x="132.17" y="95.01" width="3.56" height="7.11"/><rect class="cls-9" x="132.17" y="219.52" width="3.56" height="7.11"/><rect class="cls-9" x="139.28" y="95.01" width="3.56" height="7.11"/><rect class="cls-9" x="139.28" y="219.52" width="3.56" height="7.11"/><polygon class="cls-9" points="142.84 102.13 142.84 105.69 146.39 105.69 149.95 105.69 149.95 102.13 146.39 102.13 142.84 102.13"/><polygon class="cls-9" points="142.84 109.24 142.84 112.8 146.39 112.8 149.95 112.8 149.95 109.24 146.39 109.24 142.84 109.24"/><polygon class="cls-9" points="142.84 116.36 142.84 119.92 146.39 119.92 149.95 119.92 149.95 116.36 146.39 116.36 142.84 116.36"/><polygon class="cls-9" points="142.84 201.73 142.84 205.29 146.39 205.29 149.95 205.29 149.95 201.73 146.39 201.73 142.84 201.73"/><polygon class="cls-9" points="142.84 208.84 142.84 212.4 146.39 212.4 149.95 212.4 149.95 208.84 146.39 208.84 142.84 208.84"/><polygon class="cls-9" points="142.84 215.96 142.84 219.52 146.39 219.52 149.95 219.52 149.95 215.96 146.39 215.96 142.84 215.96"/><polygon class="cls-9" points="196.19 102.13 196.19 105.69 199.75 105.69 203.31 105.69 203.31 102.13 199.75 102.13 196.19 102.13"/><polygon class="cls-9" points="203.31 112.8 203.31 109.24 199.75 109.24 196.19 109.24 196.19 112.8 199.75 112.8 203.31 112.8"/><polygon class="cls-9" points="203.31 119.92 203.31 116.36 199.75 116.36 196.19 116.36 196.19 119.92 199.75 119.92 203.31 119.92"/><polygon class="cls-9" points="203.31 205.29 203.31 201.73 199.75 201.73 196.19 201.73 196.19 205.29 199.75 205.29 203.31 205.29"/><polygon class="cls-9" points="203.31 212.4 203.31 208.84 199.75 208.84 196.19 208.84 196.19 212.4 199.75 212.4 203.31 212.4"/><polygon class="cls-9" points="199.75 215.96 196.19 215.96 196.19 219.52 199.75 219.52 203.31 219.52 203.31 215.96 199.75 215.96"/><rect class="cls-9" x="203.31" y="98.57" width="3.56" height="3.56"/><rect class="cls-9" x="203.31" y="219.52" width="3.56" height="7.11"/><rect class="cls-9" x="210.42" y="219.52" width="3.56" height="7.11"/><polygon class="cls-9" points="213.98 109.24 213.98 112.8 217.54 112.8 221.09 112.8 221.09 109.24 217.54 109.24 213.98 109.24"/><polygon class="cls-9" points="213.98 208.84 213.98 212.4 217.54 212.4 221.09 212.4 221.09 208.84 217.54 208.84 213.98 208.84"/><polygon class="cls-9" points="213.98 215.96 213.98 219.52 217.54 219.52 221.09 219.52 221.09 215.96 217.54 215.96 213.98 215.96"/><polygon class="cls-9" points="217.54 102.13 213.98 102.13 213.98 105.69 217.54 105.69 221.09 105.69 221.09 102.13 217.54 102.13"/><rect class="cls-10" x="121.49" y="112.8" width="3.56" height="3.56"/><rect class="cls-10" x="121.49" y="205.29" width="3.56" height="3.56"/><polygon class="cls-10" points="125.05 212.4 125.05 215.96 128.61 215.96 132.16 215.96 132.16 212.4 128.61 212.4 125.05 212.4"/><polygon class="cls-10" points="125.05 219.52 125.05 226.63 128.61 226.63 132.16 226.63 132.16 219.52 128.61 219.52 125.05 219.52"/><polygon class="cls-10" points="132.16 102.13 132.16 95.02 128.61 95.02 125.05 95.02 125.05 102.13 128.61 102.13 132.16 102.13"/><polygon class="cls-10" points="132.16 109.24 132.16 105.69 128.61 105.69 125.05 105.69 125.05 109.24 128.61 109.24 132.16 109.24"/><rect class="cls-10" x="132.17" y="112.8" width="3.56" height="3.56"/><rect class="cls-10" x="132.17" y="205.29" width="3.56" height="3.56"/><rect class="cls-10" x="135.72" y="95.01" width="3.56" height="7.11"/><rect class="cls-10" x="135.72" y="219.52" width="3.56" height="7.11"/><polygon class="cls-10" points="142.84 95.02 142.84 102.13 146.39 102.13 149.95 102.13 149.95 95.02 146.39 95.02 142.84 95.02"/><polygon class="cls-10" points="142.84 105.69 142.84 109.24 146.39 109.24 149.95 109.24 149.95 105.69 146.39 105.69 142.84 105.69"/><polygon class="cls-10" points="142.84 112.8 142.84 116.36 146.39 116.36 149.95 116.36 149.95 112.8 146.39 112.8 142.84 112.8"/><polygon class="cls-10" points="142.84 205.29 142.84 208.84 146.39 208.84 149.95 208.84 149.95 205.29 146.39 205.29 142.84 205.29"/><polygon class="cls-10" points="142.84 212.4 142.84 215.96 146.39 215.96 149.95 215.96 149.95 212.4 146.39 212.4 142.84 212.4"/><polygon class="cls-10" points="142.84 219.52 142.84 226.63 146.39 226.63 149.95 226.63 149.95 219.52 146.39 219.52 142.84 219.52"/><polygon class="cls-10" points="196.19 95.02 196.19 102.13 199.75 102.13 203.31 102.13 203.31 95.02 199.75 95.02 196.19 95.02"/><polygon class="cls-10" points="196.19 105.69 196.19 109.24 199.75 109.24 203.31 109.24 203.31 105.69 199.75 105.69 196.19 105.69"/><polygon class="cls-10" points="196.19 112.8 196.19 116.36 199.75 116.36 203.31 116.36 203.31 112.8 199.75 112.8 196.19 112.8"/><polygon class="cls-10" points="196.19 205.29 196.19 208.84 199.75 208.84 203.31 208.84 203.31 205.29 199.75 205.29 196.19 205.29"/><polygon class="cls-10" points="196.19 212.4 196.19 215.96 199.75 215.96 203.31 215.96 203.31 212.4 199.75 212.4 196.19 212.4"/><polygon class="cls-10" points="196.19 219.52 196.19 226.63 199.75 226.63 203.31 226.63 203.31 219.52 199.75 219.52 196.19 219.52"/><rect class="cls-10" x="206.87" y="219.52" width="3.56" height="7.11"/><rect class="cls-10" x="210.42" y="112.8" width="3.56" height="3.56"/><rect class="cls-10" x="210.42" y="205.29" width="3.56" height="3.56"/><polygon class="cls-10" points="213.98 212.4 213.98 215.96 217.54 215.96 221.09 215.96 221.09 212.4 217.54 212.4 213.98 212.4"/><polygon class="cls-10" points="213.98 219.52 213.98 226.63 217.54 226.63 221.09 226.63 221.09 219.52 217.54 219.52 213.98 219.52"/><polygon class="cls-10" points="221.09 102.13 221.09 98.57 217.54 98.57 213.98 98.57 213.98 102.13 217.54 102.13 221.09 102.13"/><polygon class="cls-10" points="221.09 109.24 221.09 105.69 217.54 105.69 213.98 105.69 213.98 109.24 217.54 109.24 221.09 109.24"/><rect class="cls-10" x="221.1" y="112.8" width="3.56" height="3.56"/><rect class="cls-10" x="221.1" y="205.29" width="3.56" height="3.56"/><polygon class="cls-11" points="167.74 105.69 164.18 105.69 164.18 109.24 167.74 109.24 171.29 109.24 174.85 109.24 174.85 105.69 171.29 105.69 167.74 105.69"/><rect class="cls-11" x="203.31" y="102.13" width="3.56" height="3.56"/><polygon class="cls-11" points="221.09 73.67 217.54 73.67 213.98 73.67 210.42 73.67 210.42 84.34 213.98 84.34 217.54 84.34 221.09 84.34 224.65 84.34 228.21 84.34 228.21 73.67 224.65 73.67 221.09 73.67"/><path class="cls-11" d="M235.32,66.56V63h-32v3.56h-3.56V95h3.56v3.56h3.56v3.56h3.55V98.57H214V95h21.34V91.46h3.56V66.56ZM231.77,87.9h-24.9V70.11h24.9Z"/><polygon class="cls-12" points="178.41 87.9 174.85 87.9 171.29 87.9 167.74 87.9 164.18 87.9 160.62 87.9 160.62 91.46 164.18 91.46 164.18 95.02 167.74 95.02 171.29 95.02 171.29 91.46 174.85 91.46 174.85 95.02 178.41 95.02 181.97 95.02 181.97 91.46 185.52 91.46 185.52 87.9 181.97 87.9 178.41 87.9"/><rect class="cls-12" x="203.31" y="105.69" width="3.56" height="3.56"/><rect class="cls-12" x="206.87" y="102.13" width="3.56" height="3.56"/><path class="cls-12" d="M214,87.9h17.79V70.11h-24.9V87.9H214Zm-3.56-14.23h17.79V84.34H210.42Z"/><rect class="cls-12" x="210.42" y="98.57" width="3.56" height="3.56"/><polygon class="cls-12" points="238.88 70.11 238.88 91.46 235.32 91.46 235.32 95.02 231.77 95.02 228.21 95.02 224.65 95.02 221.09 95.02 217.54 95.02 213.98 95.02 213.98 98.57 217.54 98.57 221.09 98.57 224.65 98.57 228.21 98.57 231.77 98.57 235.32 98.57 238.88 98.57 238.88 95.02 242.44 95.02 242.44 70.11 238.88 70.11"/></g></svg>