<svg xmlns="http://www.w3.org/2000/svg" xmlns:xlink="http://www.w3.org/1999/xlink" viewBox="0 0 345 345"><defs><style>.cls-1{fill:url(#radial-gradient);}.cls-2{fill:#fecf09;}.cls-3{fill:#b81f34;}.cls-4{fill:#b4d7ea;}.cls-5{fill:#dd1f2b;}.cls-6{fill:#22418a;}.cls-7{fill:#4060a4;}.cls-8{fill:#808088;}.cls-9{fill:#a0a0a8;}.cls-10{fill:#fff;}.cls-11{fill:#010101;}</style><radialGradient id="radial-gradient" cx="172.5" cy="172.5" r="172.5" gradientUnits="userSpaceOnUse"><stop offset="0" stop-color="#174170"/><stop offset="1" stop-color="#3a76bc"/></radialGradient></defs><g id="Layer_7" data-name="Layer 7"><rect class="cls-1" width="345" height="345"/></g><g id="Layer_19" data-name="Layer 19"><polygon class="cls-2" points="156.44 183.25 156.44 186.84 160.02 186.84 163.61 186.84 163.61 183.25 160.02 183.25 156.44 183.25"/><polygon class="cls-2" points="170.78 183.25 167.19 183.25 167.19 194.01 170.78 194.01 174.36 194.01 177.95 194.01 177.95 183.25 174.36 183.25 170.78 183.25"/><polygon class="cls-2" points="185.12 183.25 181.53 183.25 181.53 186.84 185.12 186.84 188.7 186.84 188.7 183.25 185.12 183.25"/><polygon class="cls-3" points="163.61 143.81 160.02 143.81 156.44 143.81 152.85 143.81 152.85 154.57 156.44 154.57 156.44 147.4 160.02 147.4 163.61 147.4 167.19 147.4 170.78 147.4 170.78 143.81 167.19 143.81 163.61 143.81"/><rect class="cls-3" x="170.78" y="129.47" width="3.58" height="14.34"/><polygon class="cls-3" points="188.7 143.81 185.12 143.81 181.53 143.81 177.95 143.81 174.36 143.81 174.36 147.4 177.95 147.4 181.53 147.4 185.12 147.4 188.7 147.4 188.7 154.57 192.29 154.57 192.29 143.81 188.7 143.81"/><rect class="cls-4" x="152.85" y="129.47" width="3.59" height="14.34"/><polygon class="cls-4" points="163.61 90.04 163.61 93.62 167.19 93.62 170.78 93.62 170.78 90.04 167.19 90.04 163.61 90.04"/><polygon class="cls-4" points="163.61 129.47 160.02 129.47 160.02 143.81 163.61 143.81 167.19 143.81 170.78 143.81 170.78 129.47 167.19 129.47 163.61 129.47"/><polygon class="cls-4" points="174.36 90.04 174.36 93.62 177.95 93.62 181.53 93.62 181.53 90.04 177.95 90.04 174.36 90.04"/><rect class="cls-4" x="177.95" y="129.47" width="3.59" height="14.34"/><polygon class="cls-4" points="192.29 129.47 188.7 129.47 185.12 129.47 185.12 143.81 188.7 143.81 192.29 143.81 195.87 143.81 195.87 129.47 192.29 129.47"/><polygon class="cls-5" points="145.68 147.4 142.09 147.4 138.51 147.4 138.51 176.08 142.09 176.08 145.68 176.08 149.26 176.08 152.85 176.08 152.85 147.4 149.26 147.4 145.68 147.4"/><polygon class="cls-5" points="156.44 165.33 156.44 176.08 160.02 176.08 163.61 176.08 163.61 165.33 160.02 165.33 156.44 165.33"/><polygon class="cls-5" points="181.53 147.4 177.95 147.4 174.36 147.4 174.36 143.81 170.78 143.81 170.78 147.4 167.19 147.4 163.61 147.4 160.02 147.4 156.44 147.4 156.44 154.57 160.02 154.57 163.61 154.57 163.61 150.99 167.19 150.99 170.78 150.99 174.36 150.99 177.95 150.99 181.53 150.99 181.53 154.57 185.12 154.57 188.7 154.57 188.7 147.4 185.12 147.4 181.53 147.4"/><polygon class="cls-5" points="181.53 165.33 181.53 176.08 185.12 176.08 188.7 176.08 188.7 165.33 185.12 165.33 181.53 165.33"/><polygon class="cls-5" points="199.46 147.4 195.87 147.4 192.29 147.4 192.29 176.08 195.87 176.08 199.46 176.08 203.04 176.08 206.63 176.08 206.63 147.4 203.04 147.4 199.46 147.4"/><polygon class="cls-5" points="206.63 125.89 210.22 125.89 210.22 115.13 206.63 115.13 203.04 115.13 199.46 115.13 195.87 115.13 192.29 115.13 188.7 115.13 188.7 122.31 185.12 122.31 181.53 122.31 177.95 122.31 174.36 122.31 170.78 122.31 167.19 122.31 163.61 122.31 160.02 122.31 156.44 122.31 156.44 115.13 152.85 115.13 149.26 115.13 145.68 115.13 142.09 115.13 138.51 115.13 134.92 115.13 134.92 125.89 138.51 125.89 142.09 125.89 142.09 129.47 138.51 129.47 138.51 133.06 134.92 133.06 134.92 143.81 138.51 143.81 142.09 143.81 145.68 143.81 149.26 143.81 149.26 125.89 152.85 125.89 156.44 125.89 160.02 125.89 163.61 125.89 167.19 125.89 170.78 125.89 170.78 129.47 174.36 129.47 174.36 125.89 177.95 125.89 181.53 125.89 185.12 125.89 188.7 125.89 192.29 125.89 195.87 125.89 195.87 143.81 199.46 143.81 203.04 143.81 206.63 143.81 210.22 143.81 210.22 133.06 206.63 133.06 206.63 129.47 203.04 129.47 203.04 125.89 206.63 125.89"/><rect class="cls-6" x="134.92" y="190.42" width="3.59" height="7.17"/><polygon class="cls-6" points="149.26 262.13 149.26 265.72 152.85 265.72 156.44 265.72 156.44 262.13 152.85 262.13 149.26 262.13"/><polygon class="cls-6" points="149.26 272.89 145.68 272.89 145.68 276.47 149.26 276.47 152.85 276.47 156.44 276.47 156.44 272.89 152.85 272.89 149.26 272.89"/><rect class="cls-6" x="152.85" y="251.38" width="3.59" height="3.59"/><rect class="cls-6" x="156.44" y="61.35" width="3.59" height="25.1"/><polygon class="cls-6" points="177.95 86.45 177.95 64.94 174.36 64.94 170.78 64.94 167.19 64.94 167.19 86.45 163.61 86.45 160.02 86.45 160.02 90.04 163.61 90.04 167.19 90.04 170.78 90.04 170.78 68.52 174.36 68.52 174.36 90.04 177.95 90.04 181.53 90.04 185.12 90.04 185.12 86.45 181.53 86.45 177.95 86.45"/><rect class="cls-6" x="185.12" y="61.35" width="3.59" height="25.1"/><rect class="cls-6" x="188.7" y="251.38" width="3.59" height="3.59"/><polygon class="cls-6" points="188.7 262.13 188.7 265.72 192.29 265.72 195.87 265.72 195.87 262.13 192.29 262.13 188.7 262.13"/><polygon class="cls-6" points="192.29 272.89 188.7 272.89 188.7 276.47 192.29 276.47 195.87 276.47 199.46 276.47 199.46 272.89 195.87 272.89 192.29 272.89"/><rect class="cls-6" x="206.63" y="190.42" width="3.59" height="7.17"/><polygon class="cls-7" points="145.68 201.18 149.26 201.18 152.85 201.18 152.85 179.67 149.26 179.67 145.68 179.67 142.09 179.67 138.51 179.67 138.51 197.59 134.92 197.59 134.92 201.18 138.51 201.18 142.09 201.18 145.68 201.18"/><polygon class="cls-7" points="160.02 233.45 156.44 233.45 152.85 233.45 152.85 251.38 156.44 251.38 156.44 254.96 152.85 254.96 149.26 254.96 149.26 262.13 152.85 262.13 156.44 262.13 156.44 265.72 152.85 265.72 149.26 265.72 145.68 265.72 145.68 272.89 149.26 272.89 152.85 272.89 156.44 272.89 156.44 276.47 152.85 276.47 149.26 276.47 145.68 276.47 142.09 276.47 142.09 283.64 145.68 283.64 149.26 283.64 152.85 283.64 156.44 283.64 160.02 283.64 163.61 283.64 167.19 283.64 167.19 276.47 163.61 276.47 163.61 265.72 167.19 265.72 167.19 262.13 163.61 262.13 163.61 251.38 167.19 251.38 167.19 233.45 163.61 233.45 160.02 233.45"/><polygon class="cls-7" points="167.19 86.45 167.19 68.52 163.61 68.52 163.61 72.11 160.02 72.11 160.02 86.45 163.61 86.45 167.19 86.45"/><polygon class="cls-7" points="167.19 111.55 163.61 111.55 163.61 90.04 160.02 90.04 160.02 118.72 163.61 118.72 167.19 118.72 170.78 118.72 170.78 115.13 167.19 115.13 167.19 111.55"/><polygon class="cls-7" points="163.61 125.89 160.02 125.89 156.44 125.89 152.85 125.89 149.26 125.89 149.26 143.81 152.85 143.81 152.85 129.47 156.44 129.47 160.02 129.47 163.61 129.47 167.19 129.47 170.78 129.47 170.78 125.89 167.19 125.89 163.61 125.89"/><polygon class="cls-7" points="177.95 129.47 181.53 129.47 185.12 129.47 188.7 129.47 192.29 129.47 195.87 129.47 195.87 125.89 192.29 125.89 188.7 125.89 185.12 125.89 181.53 125.89 177.95 125.89 174.36 125.89 174.36 143.81 177.95 143.81 177.95 129.47"/><polygon class="cls-7" points="181.53 118.72 185.12 118.72 185.12 90.04 181.53 90.04 181.53 111.55 177.95 111.55 177.95 115.13 174.36 115.13 174.36 118.72 177.95 118.72 181.53 118.72"/><polygon class="cls-7" points="185.12 86.45 185.12 72.11 181.53 72.11 181.53 68.52 177.95 68.52 177.95 86.45 181.53 86.45 185.12 86.45"/><polygon class="cls-7" points="195.87 276.47 192.29 276.47 188.7 276.47 188.7 272.89 192.29 272.89 195.87 272.89 199.46 272.89 199.46 265.72 195.87 265.72 192.29 265.72 188.7 265.72 188.7 262.13 192.29 262.13 195.87 262.13 195.87 254.96 192.29 254.96 188.7 254.96 188.7 251.38 192.29 251.38 192.29 233.45 188.7 233.45 185.12 233.45 181.53 233.45 177.95 233.45 177.95 251.38 181.53 251.38 181.53 262.13 177.95 262.13 177.95 265.72 181.53 265.72 181.53 276.47 177.95 276.47 177.95 283.64 181.53 283.64 185.12 283.64 188.7 283.64 192.29 283.64 195.87 283.64 199.46 283.64 203.04 283.64 203.04 276.47 199.46 276.47 195.87 276.47"/><polygon class="cls-7" points="206.63 197.59 206.63 179.67 203.04 179.67 199.46 179.67 195.87 179.67 192.29 179.67 192.29 201.18 195.87 201.18 199.46 201.18 203.04 201.18 206.63 201.18 210.22 201.18 210.22 197.59 206.63 197.59"/><rect class="cls-8" x="127.75" y="118.72" width="3.59" height="3.59"/><rect class="cls-8" x="127.75" y="125.89" width="3.59" height="3.58"/><rect class="cls-8" x="127.75" y="133.06" width="3.59" height="3.58"/><rect class="cls-8" x="131.34" y="100.79" width="3.59" height="14.34"/><rect class="cls-8" x="152.85" y="154.57" width="3.59" height="10.76"/><rect class="cls-8" x="152.85" y="201.18" width="3.59" height="3.59"/><rect class="cls-8" x="152.85" y="222.69" width="3.59" height="3.58"/><rect class="cls-8" x="156.44" y="86.45" width="3.59" height="14.34"/><polygon class="cls-8" points="156.44 176.08 156.44 179.67 160.02 179.67 163.61 179.67 167.19 179.67 170.78 179.67 174.36 179.67 177.95 179.67 181.53 179.67 185.12 179.67 188.7 179.67 188.7 176.08 185.12 176.08 181.53 176.08 177.95 176.08 174.36 176.08 170.78 176.08 167.19 176.08 163.61 176.08 160.02 176.08 156.44 176.08"/><polygon class="cls-8" points="156.44 190.43 152.85 190.43 152.85 194.01 156.44 194.01 160.02 194.01 160.02 190.43 156.44 190.43"/><rect class="cls-8" x="156.44" y="204.77" width="3.59" height="17.93"/><rect class="cls-8" x="160.02" y="194.01" width="3.59" height="3.58"/><rect class="cls-8" x="163.61" y="100.79" width="3.59" height="3.58"/><rect class="cls-8" x="163.61" y="197.59" width="3.59" height="3.59"/><rect class="cls-8" x="167.19" y="97.21" width="3.59" height="3.59"/><rect class="cls-8" x="170.78" y="68.52" width="3.58" height="28.68"/><rect class="cls-8" x="170.78" y="100.79" width="3.58" height="14.34"/><polygon class="cls-8" points="170.78 168.91 167.19 168.91 167.19 172.5 170.78 172.5 174.36 172.5 177.95 172.5 177.95 168.91 174.36 168.91 170.78 168.91"/><polygon class="cls-8" points="170.78 201.18 167.19 201.18 167.19 204.77 170.78 204.77 174.36 204.77 177.95 204.77 177.95 201.18 174.36 201.18 170.78 201.18"/><rect class="cls-8" x="174.36" y="97.21" width="3.59" height="3.59"/><polygon class="cls-8" points="177.95 154.57 174.36 154.57 170.78 154.57 167.19 154.57 167.19 158.16 170.78 158.16 174.36 158.16 177.95 158.16 177.95 154.57"/><polygon class="cls-8" points="177.95 161.74 174.36 161.74 170.78 161.74 167.19 161.74 167.19 165.33 170.78 165.33 174.36 165.33 177.95 165.33 177.95 161.74"/><rect class="cls-8" x="177.95" y="100.79" width="3.59" height="3.58"/><rect class="cls-8" x="177.95" y="197.59" width="3.59" height="3.59"/><rect class="cls-8" x="181.53" y="194.01" width="3.59" height="3.58"/><rect class="cls-8" x="185.12" y="86.45" width="3.59" height="14.34"/><polygon class="cls-8" points="185.12 190.43 185.12 194.01 188.7 194.01 192.29 194.01 192.29 190.43 188.7 190.43 185.12 190.43"/><rect class="cls-8" x="185.12" y="204.77" width="3.59" height="17.93"/><rect class="cls-8" x="188.7" y="154.57" width="3.59" height="10.76"/><rect class="cls-8" x="188.7" y="201.18" width="3.59" height="3.59"/><rect class="cls-8" x="188.7" y="222.69" width="3.59" height="3.58"/><rect class="cls-8" x="210.22" y="100.79" width="3.59" height="14.34"/><rect class="cls-8" x="213.8" y="118.72" width="3.59" height="3.59"/><rect class="cls-8" x="213.8" y="125.89" width="3.59" height="3.58"/><rect class="cls-8" x="213.8" y="133.06" width="3.59" height="3.58"/><polygon class="cls-9" points="127.75 115.13 127.75 118.72 131.34 118.72 131.34 122.31 127.75 122.31 127.75 125.89 131.34 125.89 131.34 129.47 127.75 129.47 127.75 133.06 131.34 133.06 131.34 136.64 127.75 136.64 127.75 140.23 131.34 140.23 134.92 140.23 134.92 115.13 131.34 115.13 127.75 115.13"/><rect class="cls-9" x="152.85" y="204.77" width="3.59" height="17.93"/><polygon class="cls-9" points="160.02 194.01 156.44 194.01 152.85 194.01 152.85 201.18 156.44 201.18 156.44 204.77 160.02 204.77 160.02 222.69 156.44 222.69 156.44 226.28 152.85 226.28 152.85 229.86 156.44 229.86 160.02 229.86 163.61 229.86 167.19 229.86 167.19 208.35 163.61 208.35 163.61 197.59 160.02 197.59 160.02 194.01"/><path class="cls-9" d="M163.61,165.33v10.75h17.92V165.33h7.17V154.57h-7.17V151H163.61v3.58h-7.17v10.76h7.17Zm3.58-10.76H178v3.59H167.19Zm0,7.17H178v3.59H167.19Zm0,7.17H178v3.59H167.19Z"/><polygon class="cls-9" points="170.78 97.21 170.78 93.62 167.19 93.62 163.61 93.62 163.61 100.79 167.19 100.79 167.19 97.21 170.78 97.21"/><polygon class="cls-9" points="167.19 115.13 170.78 115.13 170.78 100.79 167.19 100.79 167.19 104.38 163.61 104.38 163.61 111.55 167.19 111.55 167.19 115.13"/><rect class="cls-9" x="170.78" y="97.21" width="3.58" height="3.59"/><rect class="cls-9" x="170.78" y="115.13" width="3.58" height="3.58"/><polygon class="cls-9" points="174.36 115.13 177.95 115.13 177.95 111.55 181.53 111.55 181.53 104.38 177.95 104.38 177.95 100.79 174.36 100.79 174.36 115.13"/><polygon class="cls-9" points="177.95 100.79 181.53 100.79 181.53 93.62 177.95 93.62 174.36 93.62 174.36 97.21 177.95 97.21 177.95 100.79"/><polygon class="cls-9" points="181.53 197.59 181.53 208.35 177.95 208.35 177.95 229.86 181.53 229.86 185.12 229.86 188.7 229.86 192.29 229.86 192.29 226.28 188.7 226.28 188.7 222.69 185.12 222.69 185.12 204.77 188.7 204.77 188.7 201.18 192.29 201.18 192.29 194.01 188.7 194.01 185.12 194.01 185.12 197.59 181.53 197.59"/><path class="cls-9" d="M185.12,179.67H152.85v10.75H160V194h3.59v3.58h3.58v3.59H178v-3.59h3.58V194h3.59v-3.59h7.17V179.67h-7.17Zm-21.51,7.17h-7.17v-3.59h7.17ZM178,194H167.19V183.25H178Zm10.75-7.17h-7.17v-3.59h7.17Z"/><rect class="cls-9" x="188.7" y="204.77" width="3.59" height="17.93"/><polygon class="cls-9" points="217.39 118.72 217.39 115.13 213.8 115.13 210.22 115.13 210.22 140.23 213.8 140.23 217.39 140.23 217.39 136.64 213.8 136.64 213.8 133.06 217.39 133.06 217.39 129.47 213.8 129.47 213.8 125.89 217.39 125.89 217.39 122.31 213.8 122.31 213.8 118.72 217.39 118.72"/><polygon class="cls-10" points="134.92 125.89 134.92 133.06 138.51 133.06 138.51 129.47 142.09 129.47 142.09 125.89 138.51 125.89 134.92 125.89"/><rect class="cls-10" x="156.44" y="129.47" width="3.59" height="14.34"/><rect class="cls-10" x="181.53" y="129.47" width="3.59" height="14.34"/><polygon class="cls-10" points="203.04 125.89 203.04 129.47 206.63 129.47 206.63 133.06 210.22 133.06 210.22 125.89 206.63 125.89 203.04 125.89"/><rect class="cls-10" x="206.63" y="97.21" width="3.59" height="3.59"/><polygon class="cls-10" points="224.56 68.52 220.97 68.52 217.39 68.52 213.8 68.52 213.8 79.28 217.39 79.28 220.97 79.28 224.56 79.28 228.14 79.28 231.73 79.28 231.73 68.52 228.14 68.52 224.56 68.52"/><path class="cls-10" d="M238.9,61.35V57.77H206.63v3.58H203V90h3.59v3.58h3.59v3.59h3.58V93.62h3.59V90H238.9V86.45h3.58V61.35Zm-3.59,21.52H210.22V64.94h25.09Z"/><polygon class="cls-11" points="149.26 147.4 152.85 147.4 152.85 143.81 149.26 143.81 145.68 143.81 142.09 143.81 142.09 147.4 145.68 147.4 149.26 147.4"/><polygon class="cls-11" points="149.26 179.67 152.85 179.67 152.85 176.08 149.26 176.08 145.68 176.08 142.09 176.08 142.09 179.67 145.68 179.67 149.26 179.67"/><polygon class="cls-11" points="160.02 229.86 156.44 229.86 156.44 233.45 160.02 233.45 163.61 233.45 167.19 233.45 167.19 229.86 163.61 229.86 160.02 229.86"/><polygon class="cls-11" points="160.02 283.64 156.44 283.64 152.85 283.64 149.26 283.64 145.68 283.64 142.09 283.64 142.09 287.23 145.68 287.23 149.26 287.23 152.85 287.23 156.44 287.23 160.02 287.23 163.61 287.23 167.19 287.23 167.19 283.64 163.61 283.64 160.02 283.64"/><rect class="cls-11" x="163.61" y="251.38" width="3.59" height="10.76"/><rect class="cls-11" x="163.61" y="265.72" width="3.59" height="10.76"/><polygon class="cls-11" points="181.53 122.31 185.12 122.31 188.7 122.31 188.7 118.72 185.12 118.72 181.53 118.72 177.95 118.72 174.36 118.72 170.78 118.72 167.19 118.72 163.61 118.72 160.02 118.72 156.44 118.72 156.44 122.31 160.02 122.31 163.61 122.31 167.19 122.31 170.78 122.31 174.36 122.31 177.95 122.31 181.53 122.31"/><rect class="cls-11" x="177.95" y="251.38" width="3.59" height="10.76"/><rect class="cls-11" x="177.95" y="265.72" width="3.59" height="10.76"/><polygon class="cls-11" points="185.12 233.45 188.7 233.45 188.7 229.86 185.12 229.86 181.53 229.86 177.95 229.86 177.95 233.45 181.53 233.45 185.12 233.45"/><polygon class="cls-11" points="195.87 143.81 192.29 143.81 192.29 147.4 195.87 147.4 199.46 147.4 203.04 147.4 203.04 143.81 199.46 143.81 195.87 143.81"/><polygon class="cls-11" points="195.87 176.08 192.29 176.08 192.29 179.67 195.87 179.67 199.46 179.67 203.04 179.67 203.04 176.08 199.46 176.08 195.87 176.08"/><polygon class="cls-11" points="195.87 283.64 192.29 283.64 188.7 283.64 185.12 283.64 181.53 283.64 177.95 283.64 177.95 287.23 181.53 287.23 185.12 287.23 188.7 287.23 192.29 287.23 195.87 287.23 199.46 287.23 203.04 287.23 203.04 283.64 199.46 283.64 195.87 283.64"/><rect class="cls-11" x="206.63" y="100.79" width="3.59" height="3.58"/><rect class="cls-11" x="210.22" y="97.21" width="3.59" height="3.59"/><path class="cls-11" d="M217.39,82.87h17.92V64.94H210.22V82.87h7.17ZM213.8,68.52h17.93V79.28H213.8Z"/><rect class="cls-11" x="213.8" y="93.62" width="3.59" height="3.58"/><polygon class="cls-11" points="242.48 64.94 242.48 86.45 238.9 86.45 238.9 90.04 235.31 90.04 231.73 90.04 228.14 90.04 224.56 90.04 220.97 90.04 217.39 90.04 217.39 93.62 220.97 93.62 224.56 93.62 228.14 93.62 231.73 93.62 235.31 93.62 238.9 93.62 242.48 93.62 242.48 90.04 246.07 90.04 246.07 64.94 242.48 64.94"/></g></svg>