<svg xmlns="http://www.w3.org/2000/svg" xmlns:xlink="http://www.w3.org/1999/xlink" viewBox="0 0 345 345"><defs><style>.cls-1{fill:url(#radial-gradient);}.cls-2{fill:#64518b;}.cls-3{fill:#dd1f2b;}.cls-4{fill:#808088;}.cls-5{fill:#a0a0a8;}.cls-6{fill:#404346;}.cls-7{fill:#fff;}.cls-8{fill:#010101;}</style><radialGradient id="radial-gradient" cx="172.5" cy="172.5" r="172.5" gradientUnits="userSpaceOnUse"><stop offset="0" stop-color="#174170"/><stop offset="1" stop-color="#3a76bc"/></radialGradient></defs><g id="Layer_7" data-name="Layer 7"><rect class="cls-1" width="345" height="345"/></g><g id="Layer_20" data-name="Layer 20"><rect class="cls-2" x="167.19" y="129.47" width="3.58" height="3.58"/><rect class="cls-2" x="170.78" y="133.06" width="3.59" height="3.59"/><rect class="cls-2" x="174.36" y="129.47" width="3.59" height="3.58"/><polygon class="cls-3" points="163.61 90.04 163.61 93.62 167.19 93.62 170.78 93.62 170.78 90.04 167.19 90.04 163.61 90.04"/><polygon class="cls-3" points="163.61 150.99 160.02 150.99 160.02 154.57 163.61 154.57 167.19 154.57 170.78 154.57 170.78 150.99 167.19 150.99 163.61 150.99"/><polygon class="cls-3" points="177.95 90.04 174.36 90.04 174.36 93.62 177.95 93.62 181.53 93.62 181.53 90.04 177.95 90.04"/><rect class="cls-4" x="142.1" y="133.06" width="3.59" height="7.17"/><rect class="cls-4" x="149.27" y="133.06" width="3.59" height="7.17"/><polygon class="cls-4" points="156.44 111.55 160.02 111.55 163.61 111.55 163.61 107.96 160.02 107.96 160.02 82.86 163.61 82.86 163.61 86.45 167.19 86.45 170.78 86.45 170.78 68.52 167.19 68.52 163.61 68.52 163.61 79.28 160.02 79.28 160.02 72.11 156.44 72.11 156.44 100.79 152.85 100.79 152.85 107.96 149.26 107.96 149.26 111.55 152.85 111.55 156.44 111.55"/><rect class="cls-4" x="152.85" y="201.18" width="3.58" height="3.59"/><rect class="cls-4" x="152.85" y="222.69" width="3.58" height="3.59"/><rect class="cls-4" x="156.43" y="204.77" width="3.59" height="17.93"/><polygon class="cls-4" points="174.36 93.62 170.78 93.62 170.78 97.21 167.19 97.21 167.19 100.79 170.78 100.79 174.36 100.79 174.36 93.62"/><polygon class="cls-4" points="174.36 118.72 174.36 111.55 170.78 111.55 167.19 111.55 167.19 115.13 170.78 115.13 170.78 118.72 174.36 118.72"/><polygon class="cls-4" points="185.12 143.82 181.53 143.82 177.95 143.82 174.36 143.82 170.78 143.82 167.19 143.82 163.61 143.82 160.02 143.82 156.44 143.82 152.85 143.82 152.85 165.33 156.44 165.33 156.44 147.4 160.02 147.4 163.61 147.4 167.19 147.4 170.78 147.4 174.36 147.4 177.95 147.4 181.53 147.4 185.12 147.4 188.7 147.4 188.7 165.33 192.29 165.33 192.29 143.82 188.7 143.82 185.12 143.82"/><rect class="cls-4" x="185.12" y="204.77" width="3.58" height="17.93"/><polygon class="cls-4" points="192.29 100.79 188.7 100.79 188.7 72.11 185.12 72.11 185.12 79.28 181.53 79.28 181.53 68.52 177.95 68.52 174.36 68.52 174.36 86.45 177.95 86.45 181.53 86.45 181.53 82.86 185.12 82.86 185.12 107.96 181.53 107.96 181.53 111.55 185.12 111.55 188.7 111.55 192.29 111.55 195.87 111.55 195.87 107.96 192.29 107.96 192.29 100.79"/><rect class="cls-4" x="188.7" y="201.18" width="3.59" height="3.59"/><rect class="cls-4" x="188.7" y="222.69" width="3.59" height="3.59"/><rect class="cls-4" x="192.29" y="133.06" width="3.58" height="7.17"/><rect class="cls-4" x="199.46" y="133.06" width="3.58" height="7.17"/><polygon class="cls-5" points="152.85 147.4 149.26 147.4 145.68 147.4 142.1 147.4 138.51 147.4 138.51 176.08 142.1 176.08 145.68 176.08 149.26 176.08 152.85 176.08 152.85 147.4"/><polygon class="cls-5" points="149.26 272.89 145.68 272.89 145.68 276.47 149.26 276.47 152.85 276.47 156.44 276.47 156.44 272.89 152.85 272.89 149.26 272.89"/><rect class="cls-5" x="152.85" y="204.77" width="3.58" height="17.93"/><rect class="cls-5" x="152.85" y="251.38" width="3.58" height="3.59"/><polygon class="cls-5" points="156.44 262.13 152.85 262.13 149.26 262.13 149.26 265.72 152.85 265.72 156.44 265.72 156.44 262.13"/><rect class="cls-5" x="160.02" y="72.11" width="3.58" height="7.17"/><polygon class="cls-5" points="163.61 197.59 160.02 197.59 160.02 194.01 156.44 194.01 152.85 194.01 152.85 201.18 156.44 201.18 156.44 204.77 160.02 204.77 160.02 222.69 156.44 222.69 156.44 226.28 152.85 226.28 152.85 229.86 156.44 229.86 160.02 229.86 163.61 229.86 167.19 229.86 167.19 208.35 163.61 208.35 163.61 197.59"/><polygon class="cls-5" points="160.02 283.64 156.44 283.64 152.85 283.64 149.26 283.64 145.68 283.64 142.1 283.64 142.1 287.23 145.68 287.23 149.26 287.23 152.85 287.23 156.44 287.23 160.02 287.23 163.61 287.23 167.19 287.23 167.19 283.64 163.61 283.64 160.02 283.64"/><polygon class="cls-5" points="167.19 118.72 170.78 118.72 170.78 115.13 167.19 115.13 167.19 111.55 170.78 111.55 174.36 111.55 174.36 118.72 177.95 118.72 181.53 118.72 185.12 118.72 185.12 111.55 181.53 111.55 181.53 107.96 185.12 107.96 185.12 90.04 181.53 90.04 181.53 93.62 177.95 93.62 174.36 93.62 174.36 100.79 170.78 100.79 167.19 100.79 167.19 97.21 170.78 97.21 170.78 93.62 167.19 93.62 163.61 93.62 163.61 90.04 160.02 90.04 160.02 107.96 163.61 107.96 163.61 104.38 167.19 104.38 170.78 104.38 174.36 104.38 174.36 107.96 170.78 107.96 167.19 107.96 163.61 107.96 163.61 111.55 160.02 111.55 160.02 118.72 163.61 118.72 167.19 118.72"/><rect class="cls-5" x="170.78" y="68.52" width="3.59" height="17.93"/><path class="cls-5" d="M181.53,179.67V165.33h7.17V147.4H156.43v17.93h7.18v14.34h17.92Zm-10.75-25.1H160V151h10.76ZM178,151h3.58v3.58H178Z"/><rect class="cls-5" x="181.53" y="72.11" width="3.59" height="7.17"/><polygon class="cls-5" points="185.12 194.01 185.12 197.59 181.53 197.59 181.53 208.35 177.95 208.35 177.95 229.86 181.53 229.86 185.12 229.86 188.7 229.86 192.29 229.86 192.29 226.28 188.7 226.28 188.7 222.69 185.12 222.69 185.12 204.77 188.7 204.77 188.7 201.18 192.29 201.18 192.29 194.01 188.7 194.01 185.12 194.01"/><rect class="cls-5" x="188.7" y="204.77" width="3.59" height="17.93"/><rect class="cls-5" x="188.7" y="251.38" width="3.59" height="3.59"/><polygon class="cls-5" points="188.7 262.13 188.7 265.72 192.29 265.72 195.87 265.72 195.87 262.13 192.29 262.13 188.7 262.13"/><polygon class="cls-5" points="192.29 272.89 188.7 272.89 188.7 276.47 192.29 276.47 195.87 276.47 199.46 276.47 199.46 272.89 195.87 272.89 192.29 272.89"/><polygon class="cls-5" points="195.87 283.64 192.29 283.64 188.7 283.64 185.12 283.64 181.53 283.64 177.95 283.64 177.95 287.23 181.53 287.23 185.12 287.23 188.7 287.23 192.29 287.23 195.87 287.23 199.46 287.23 203.04 287.23 203.04 283.64 199.46 283.64 195.87 283.64"/><polygon class="cls-5" points="199.46 147.4 195.87 147.4 192.29 147.4 192.29 176.08 195.87 176.08 199.46 176.08 203.04 176.08 206.63 176.08 206.63 147.4 203.04 147.4 199.46 147.4"/><path class="cls-5" d="M206.63,108v7.17H188.7v7.17H156.43v-7.17H138.51V108h-3.59v35.86h75.3V108Zm-60.95,32.27H142.1v-7.17h3.58Zm7.17,0h-3.58v-7.17h3.58Zm25.1-7.17h-3.59v3.58h-3.58v-3.58h-3.59v-3.59h3.59v3.59h3.58v-3.59H178Zm17.92,7.17h-3.58v-7.17h3.58Zm7.17,0h-3.58v-7.17H203Z"/><rect class="cls-6" x="134.92" y="190.42" width="3.59" height="7.17"/><polygon class="cls-6" points="149.26 147.4 152.85 147.4 152.85 143.82 149.26 143.82 145.68 143.82 142.1 143.82 142.1 147.4 145.68 147.4 149.26 147.4"/><polygon class="cls-6" points="149.26 176.08 145.68 176.08 142.1 176.08 142.1 179.67 145.68 179.67 149.26 179.67 152.85 179.67 152.85 176.08 149.26 176.08"/><polygon class="cls-6" points="156.44 190.42 152.85 190.42 152.85 194.01 156.44 194.01 160.02 194.01 160.02 190.42 156.44 190.42"/><polygon class="cls-6" points="163.61 168.91 163.61 165.33 160.02 165.33 156.44 165.33 156.44 168.91 160.02 168.91 163.61 168.91"/><polygon class="cls-6" points="163.61 176.08 163.61 172.5 160.02 172.5 156.44 172.5 156.44 176.08 160.02 176.08 163.61 176.08"/><rect class="cls-6" x="160.02" y="194.01" width="3.58" height="3.59"/><polygon class="cls-6" points="160.02 229.86 156.44 229.86 156.44 233.45 160.02 233.45 163.61 233.45 167.19 233.45 167.19 229.86 163.61 229.86 160.02 229.86"/><rect class="cls-6" x="163.61" y="197.6" width="3.59" height="3.58"/><polygon class="cls-6" points="170.78 201.18 167.19 201.18 167.19 204.77 170.78 204.77 174.36 204.77 177.95 204.77 177.95 201.18 174.36 201.18 170.78 201.18"/><rect class="cls-6" x="177.95" y="197.6" width="3.59" height="3.58"/><rect class="cls-6" x="181.53" y="194.01" width="3.59" height="3.59"/><polygon class="cls-6" points="181.53 229.86 177.95 229.86 177.95 233.45 181.53 233.45 185.12 233.45 188.7 233.45 188.7 229.86 185.12 229.86 181.53 229.86"/><polygon class="cls-6" points="188.7 168.91 188.7 165.33 185.12 165.33 181.53 165.33 181.53 168.91 185.12 168.91 188.7 168.91"/><polygon class="cls-6" points="188.7 176.08 188.7 172.5 185.12 172.5 181.53 172.5 181.53 176.08 185.12 176.08 188.7 176.08"/><polygon class="cls-6" points="185.12 179.67 181.53 179.67 177.95 179.67 174.36 179.67 170.78 179.67 167.19 179.67 163.61 179.67 160.02 179.67 156.44 179.67 152.85 179.67 152.85 183.25 156.44 183.25 160.02 183.25 163.61 183.25 167.19 183.25 170.78 183.25 174.36 183.25 177.95 183.25 181.53 183.25 185.12 183.25 188.7 183.25 192.29 183.25 192.29 179.67 188.7 179.67 185.12 179.67"/><polygon class="cls-6" points="185.12 190.42 185.12 194.01 188.7 194.01 192.29 194.01 192.29 190.42 188.7 190.42 185.12 190.42"/><polygon class="cls-6" points="195.87 143.82 192.29 143.82 192.29 147.4 195.87 147.4 199.46 147.4 203.04 147.4 203.04 143.82 199.46 143.82 195.87 143.82"/><polygon class="cls-6" points="195.87 176.08 192.29 176.08 192.29 179.67 195.87 179.67 199.46 179.67 203.04 179.67 203.04 176.08 199.46 176.08 195.87 176.08"/><rect class="cls-6" x="206.63" y="190.42" width="3.58" height="7.17"/><polygon class="cls-7" points="167.19 104.38 163.61 104.38 163.61 107.96 167.19 107.96 170.78 107.96 174.36 107.96 174.36 104.38 170.78 104.38 167.19 104.38"/><rect class="cls-7" x="206.63" y="97.21" width="3.58" height="3.58"/><path class="cls-7" d="M238.9,61.35V57.77H206.63v3.58H203V90h3.59v3.58h3.59v3.59h3.58V93.62h3.59V90H238.9V86.45h3.58V61.35Zm-3.59,21.52h-3.58V68.52h-7.17V82.87H221V68.52H213.8V82.87h-3.58V64.94H221v3.58h3.59V64.94h10.75Z"/><polygon class="cls-8" points="163.61 122.3 167.19 122.3 170.78 122.3 174.36 122.3 177.95 122.3 181.53 122.3 185.12 122.3 188.7 122.3 188.7 118.72 185.12 118.72 181.53 118.72 177.95 118.72 174.36 118.72 170.78 118.72 167.19 118.72 163.61 118.72 160.02 118.72 156.44 118.72 156.44 122.3 160.02 122.3 163.61 122.3"/><polygon class="cls-8" points="163.61 172.5 163.61 168.91 160.02 168.91 156.44 168.91 156.44 172.5 160.02 172.5 163.61 172.5"/><polygon class="cls-8" points="163.61 179.67 163.61 176.08 160.02 176.08 156.44 176.08 156.44 179.67 160.02 179.67 163.61 179.67"/><polygon class="cls-8" points="160.02 233.45 156.44 233.45 152.85 233.45 152.85 251.38 156.44 251.38 156.44 254.96 152.85 254.96 149.26 254.96 149.26 262.13 152.85 262.13 156.44 262.13 156.44 265.72 152.85 265.72 149.26 265.72 145.68 265.72 145.68 272.89 149.26 272.89 152.85 272.89 156.44 272.89 156.44 276.47 152.85 276.47 149.26 276.47 145.68 276.47 142.1 276.47 142.1 283.64 145.68 283.64 149.26 283.64 152.85 283.64 156.44 283.64 160.02 283.64 163.61 283.64 167.19 283.64 167.19 233.45 163.61 233.45 160.02 233.45"/><polygon class="cls-8" points="167.19 90.04 170.78 90.04 170.78 93.62 174.36 93.62 174.36 90.04 177.95 90.04 181.53 90.04 185.12 90.04 185.12 82.86 181.53 82.86 181.53 86.45 177.95 86.45 174.36 86.45 170.78 86.45 167.19 86.45 163.61 86.45 163.61 82.86 160.02 82.86 160.02 90.04 163.61 90.04 167.19 90.04"/><rect class="cls-8" x="177.95" y="150.99" width="3.59" height="3.59"/><polygon class="cls-8" points="188.7 168.91 185.12 168.91 181.53 168.91 181.53 172.5 185.12 172.5 188.7 172.5 188.7 168.91"/><polygon class="cls-8" points="188.7 179.67 188.7 176.08 185.12 176.08 181.53 176.08 181.53 179.67 185.12 179.67 188.7 179.67"/><polygon class="cls-8" points="195.87 276.47 192.29 276.47 188.7 276.47 188.7 272.89 192.29 272.89 195.87 272.89 199.46 272.89 199.46 265.72 195.87 265.72 192.29 265.72 188.7 265.72 188.7 262.13 192.29 262.13 195.87 262.13 195.87 254.96 192.29 254.96 188.7 254.96 188.7 251.38 192.29 251.38 192.29 233.45 188.7 233.45 185.12 233.45 181.53 233.45 177.95 233.45 177.95 283.64 181.53 283.64 185.12 283.64 188.7 283.64 192.29 283.64 195.87 283.64 199.46 283.64 203.04 283.64 203.04 276.47 199.46 276.47 195.87 276.47"/><polygon class="cls-8" points="206.63 179.67 203.04 179.67 199.46 179.67 195.87 179.67 192.29 179.67 192.29 183.25 188.7 183.25 185.12 183.25 181.53 183.25 177.95 183.25 174.36 183.25 170.78 183.25 167.19 183.25 163.61 183.25 160.02 183.25 156.44 183.25 152.85 183.25 152.85 179.67 149.26 179.67 145.68 179.67 142.1 179.67 138.51 179.67 138.51 197.59 134.92 197.59 134.92 201.18 138.51 201.18 142.1 201.18 145.68 201.18 149.26 201.18 152.85 201.18 152.85 190.42 156.44 190.42 160.02 190.42 160.02 194.01 163.61 194.01 163.61 197.59 167.19 197.59 167.19 201.18 170.78 201.18 174.36 201.18 177.95 201.18 177.95 197.59 181.53 197.59 181.53 194.01 185.12 194.01 185.12 190.42 188.7 190.42 192.29 190.42 192.29 201.18 195.87 201.18 199.46 201.18 203.04 201.18 206.63 201.18 210.22 201.18 210.22 197.59 206.63 197.59 206.63 179.67"/><rect class="cls-8" x="206.63" y="100.79" width="3.58" height="3.59"/><polygon class="cls-8" points="213.8 68.52 217.39 68.52 220.97 68.52 220.97 64.94 217.39 64.94 213.8 64.94 210.22 64.94 210.22 82.86 213.8 82.86 213.8 68.52"/><rect class="cls-8" x="210.22" y="97.21" width="3.58" height="3.58"/><rect class="cls-8" x="213.8" y="93.62" width="3.59" height="3.58"/><rect class="cls-8" x="220.97" y="68.52" width="3.58" height="14.34"/><polygon class="cls-8" points="231.73 68.52 231.73 82.86 235.31 82.86 235.31 64.94 231.73 64.94 228.14 64.94 224.56 64.94 224.56 68.52 228.14 68.52 231.73 68.52"/><polygon class="cls-8" points="242.48 64.94 242.48 86.45 238.9 86.45 238.9 90.04 235.31 90.04 231.73 90.04 228.14 90.04 224.56 90.04 220.97 90.04 217.39 90.04 217.39 93.62 220.97 93.62 224.56 93.62 228.14 93.62 231.73 93.62 235.31 93.62 238.9 93.62 242.48 93.62 242.48 90.04 246.07 90.04 246.07 64.94 242.48 64.94"/></g></svg>