<svg xmlns="http://www.w3.org/2000/svg" xmlns:xlink="http://www.w3.org/1999/xlink" viewBox="0 0 345 345"><defs><style>.cls-1{fill:url(#radial-gradient);}.cls-2{fill:#ccd2d3;}.cls-3{fill:#fecf09;}.cls-4{fill:#b4d7ea;}.cls-5{fill:#a0a0a8;}.cls-6{fill:#808088;}.cls-7{fill:#efa8b7;}.cls-8{fill:#ea6524;}.cls-9{fill:#db6884;}.cls-10{fill:#228c43;}.cls-11{fill:#085c2f;}.cls-12{fill:#fff;}.cls-13{fill:#010101;}</style><radialGradient id="radial-gradient" cx="172.5" cy="172.5" r="172.5" gradientUnits="userSpaceOnUse"><stop offset="0" stop-color="#174170"/><stop offset="1" stop-color="#3a76bc"/></radialGradient></defs><g id="Layer_7" data-name="Layer 7"><rect class="cls-1" width="345" height="345"/></g><g id="Layer_21" data-name="Layer 21"><polygon class="cls-2" points="167.19 104.38 163.61 104.38 163.61 107.96 167.19 107.96 170.78 107.96 174.36 107.96 174.36 104.38 170.78 104.38 167.19 104.38"/><polygon class="cls-2" points="167.19 111.55 167.19 115.13 170.78 115.13 170.78 118.72 174.36 118.72 174.36 111.55 170.78 111.55 167.19 111.55"/><polygon class="cls-2" points="170.78 93.62 170.78 97.21 167.19 97.21 167.19 100.79 170.78 100.79 174.36 100.79 174.36 93.62 170.78 93.62"/><polygon class="cls-3" points="163.61 90.04 163.61 93.62 167.19 93.62 170.78 93.62 170.78 90.04 167.19 90.04 163.61 90.04"/><polygon class="cls-3" points="177.95 90.04 174.36 90.04 174.36 93.62 177.95 93.62 181.53 93.62 181.53 90.04 177.95 90.04"/><polygon class="cls-4" points="160.02 82.87 156.44 82.87 156.44 86.45 152.85 86.45 152.85 97.21 156.44 97.21 156.44 100.79 160.02 100.79 163.61 100.79 163.61 97.21 160.02 97.21 160.02 86.45 163.61 86.45 167.19 86.45 167.19 82.87 163.61 82.87 160.02 82.87"/><polygon class="cls-4" points="188.7 86.45 188.7 82.87 185.12 82.87 181.53 82.87 177.95 82.87 177.95 86.45 181.53 86.45 185.12 86.45 185.12 97.21 181.53 97.21 181.53 100.79 185.12 100.79 188.7 100.79 188.7 97.21 192.29 97.21 192.29 86.45 188.7 86.45"/><polygon class="cls-5" points="177.95 150.98 181.53 150.98 185.12 150.98 188.7 150.98 192.29 150.98 192.29 147.4 188.7 147.4 185.12 147.4 181.53 147.4 177.95 147.4 174.36 147.4 174.36 143.81 170.78 143.81 170.78 147.4 167.19 147.4 163.61 147.4 160.02 147.4 156.44 147.4 152.85 147.4 152.85 150.98 156.44 150.98 160.02 150.98 163.61 150.98 167.19 150.98 170.78 150.98 170.78 154.57 167.19 154.57 163.61 154.57 160.02 154.57 156.44 154.57 152.85 154.57 152.85 158.16 156.44 158.16 160.02 158.16 163.61 158.16 167.19 158.16 170.78 158.16 170.78 161.74 167.19 161.74 163.61 161.74 160.02 161.74 156.44 161.74 152.85 161.74 152.85 165.33 156.44 165.33 160.02 165.33 163.61 165.33 167.19 165.33 170.78 165.33 170.78 168.91 167.19 168.91 163.61 168.91 160.02 168.91 156.44 168.91 152.85 168.91 152.85 172.5 156.44 172.5 160.02 172.5 163.61 172.5 167.19 172.5 170.78 172.5 174.36 172.5 177.95 172.5 181.53 172.5 185.12 172.5 188.7 172.5 192.29 172.5 192.29 168.91 188.7 168.91 185.12 168.91 181.53 168.91 177.95 168.91 174.36 168.91 174.36 165.33 177.95 165.33 181.53 165.33 185.12 165.33 188.7 165.33 192.29 165.33 192.29 161.74 188.7 161.74 185.12 161.74 181.53 161.74 177.95 161.74 174.36 161.74 174.36 158.16 177.95 158.16 181.53 158.16 185.12 158.16 188.7 158.16 192.29 158.16 192.29 154.57 188.7 154.57 185.12 154.57 181.53 154.57 177.95 154.57 174.36 154.57 174.36 150.98 177.95 150.98"/><polygon class="cls-6" points="163.61 150.98 160.02 150.98 156.44 150.98 152.85 150.98 149.26 150.98 149.26 154.57 152.85 154.57 156.44 154.57 160.02 154.57 163.61 154.57 167.19 154.57 170.78 154.57 170.78 150.98 167.19 150.98 163.61 150.98"/><polygon class="cls-6" points="163.61 158.16 160.02 158.16 156.44 158.16 152.85 158.16 149.26 158.16 149.26 161.74 152.85 161.74 156.44 161.74 160.02 161.74 163.61 161.74 167.19 161.74 170.78 161.74 170.78 158.16 167.19 158.16 163.61 158.16"/><polygon class="cls-6" points="163.61 165.33 160.02 165.33 156.44 165.33 152.85 165.33 149.26 165.33 149.26 168.91 152.85 168.91 156.44 168.91 160.02 168.91 163.61 168.91 167.19 168.91 170.78 168.91 170.78 165.33 167.19 165.33 163.61 165.33"/><polygon class="cls-6" points="188.7 158.16 185.12 158.16 181.53 158.16 177.95 158.16 174.36 158.16 174.36 161.74 177.95 161.74 181.53 161.74 185.12 161.74 188.7 161.74 192.29 161.74 195.87 161.74 195.87 158.16 192.29 158.16 188.7 158.16"/><polygon class="cls-6" points="188.7 165.33 185.12 165.33 181.53 165.33 177.95 165.33 174.36 165.33 174.36 168.91 177.95 168.91 181.53 168.91 185.12 168.91 188.7 168.91 192.29 168.91 195.87 168.91 195.87 165.33 192.29 165.33 188.7 165.33"/><polygon class="cls-6" points="192.29 150.98 188.7 150.98 185.12 150.98 181.53 150.98 177.95 150.98 174.36 150.98 174.36 154.57 177.95 154.57 181.53 154.57 185.12 154.57 188.7 154.57 192.29 154.57 195.87 154.57 195.87 150.98 192.29 150.98"/><polygon class="cls-7" points="142.09 86.45 142.09 93.62 145.68 93.62 149.26 93.62 149.26 86.45 145.68 86.45 142.09 86.45"/><polygon class="cls-7" points="149.26 75.69 145.68 75.69 145.68 82.87 149.26 82.87 149.26 86.45 152.85 86.45 152.85 79.28 149.26 79.28 149.26 75.69"/><polygon class="cls-7" points="152.85 100.79 152.85 97.21 149.26 97.21 145.68 97.21 142.09 97.21 142.09 104.38 145.68 104.38 149.26 104.38 149.26 100.79 152.85 100.79"/><polygon class="cls-7" points="149.26 107.96 145.68 107.96 145.68 111.55 149.26 111.55 152.85 111.55 152.85 104.38 149.26 104.38 149.26 107.96"/><polygon class="cls-7" points="156.44 72.11 152.85 72.11 149.26 72.11 149.26 75.69 152.85 75.69 152.85 79.28 156.44 79.28 160.02 79.28 160.02 75.69 156.44 75.69 156.44 72.11"/><rect class="cls-7" x="152.85" y="100.79" width="3.58" height="3.58"/><rect class="cls-7" x="156.44" y="104.38" width="3.59" height="7.17"/><polygon class="cls-7" points="167.19 68.52 163.61 68.52 160.02 68.52 160.02 75.69 163.61 75.69 163.61 79.28 167.19 79.28 167.19 82.87 170.78 82.87 170.78 72.11 167.19 72.11 167.19 68.52"/><rect class="cls-7" x="170.78" y="57.77" width="3.59" height="3.59"/><polygon class="cls-7" points="181.53 68.52 177.95 68.52 177.95 72.11 174.36 72.11 174.36 82.87 177.95 82.87 177.95 79.28 181.53 79.28 181.53 75.69 185.12 75.69 185.12 68.52 181.53 68.52"/><rect class="cls-7" x="185.12" y="104.38" width="3.59" height="7.17"/><rect class="cls-7" x="188.7" y="100.79" width="3.59" height="3.58"/><polygon class="cls-7" points="195.87 75.69 195.87 72.11 192.29 72.11 188.7 72.11 188.7 75.69 185.12 75.69 185.12 79.28 188.7 79.28 192.29 79.28 192.29 75.69 195.87 75.69"/><polygon class="cls-7" points="192.29 111.55 195.87 111.55 199.46 111.55 199.46 107.96 195.87 107.96 195.87 104.38 192.29 104.38 192.29 111.55"/><polygon class="cls-7" points="199.46 82.87 199.46 75.69 195.87 75.69 195.87 79.28 192.29 79.28 192.29 86.45 195.87 86.45 195.87 82.87 199.46 82.87"/><polygon class="cls-7" points="195.87 97.21 192.29 97.21 192.29 100.79 195.87 100.79 195.87 104.38 199.46 104.38 203.04 104.38 203.04 97.21 199.46 97.21 195.87 97.21"/><polygon class="cls-7" points="199.46 86.45 195.87 86.45 195.87 93.62 199.46 93.62 203.04 93.62 203.04 86.45 199.46 86.45"/><polygon class="cls-8" points="167.19 136.64 163.61 136.64 163.61 122.3 160.02 122.3 156.44 122.3 156.44 115.13 152.85 115.13 149.26 115.13 145.68 115.13 142.09 115.13 142.09 118.72 145.68 118.72 149.26 118.72 149.26 143.81 145.68 143.81 142.09 143.81 142.09 147.4 145.68 147.4 149.26 147.4 152.85 147.4 156.44 147.4 156.44 143.81 160.02 143.81 163.61 143.81 167.19 143.81 170.78 143.81 170.78 122.3 167.19 122.3 167.19 136.64"/><polygon class="cls-8" points="199.46 118.72 203.04 118.72 203.04 115.13 199.46 115.13 195.87 115.13 192.29 115.13 188.7 115.13 188.7 122.3 185.12 122.3 181.53 122.3 181.53 136.64 177.95 136.64 177.95 122.3 174.36 122.3 174.36 143.81 177.95 143.81 181.53 143.81 185.12 143.81 188.7 143.81 188.7 147.4 192.29 147.4 195.87 147.4 199.46 147.4 203.04 147.4 203.04 143.81 199.46 143.81 195.87 143.81 195.87 118.72 199.46 118.72"/><rect class="cls-9" x="142.09" y="68.52" width="3.59" height="3.59"/><polygon class="cls-9" points="142.09 104.38 138.51 104.38 138.51 107.96 142.09 107.96 145.68 107.96 149.26 107.96 149.26 104.38 145.68 104.38 142.09 104.38"/><rect class="cls-9" x="145.68" y="72.11" width="3.59" height="3.59"/><polygon class="cls-9" points="145.68 82.87 142.09 82.87 138.51 82.87 138.51 86.45 142.09 86.45 145.68 86.45 149.26 86.45 149.26 82.87 145.68 82.87"/><rect class="cls-9" x="149.26" y="75.7" width="3.59" height="3.58"/><polygon class="cls-9" points="149.26 93.62 145.68 93.62 142.09 93.62 138.51 93.62 138.51 97.21 142.09 97.21 145.68 97.21 149.26 97.21 152.85 97.21 152.85 86.45 149.26 86.45 149.26 93.62"/><rect class="cls-9" x="149.26" y="100.79" width="3.59" height="3.58"/><rect class="cls-9" x="152.85" y="97.21" width="3.58" height="3.59"/><rect class="cls-9" x="152.85" y="104.38" width="3.58" height="3.58"/><rect class="cls-9" x="156.44" y="64.94" width="3.59" height="10.76"/><polygon class="cls-9" points="160.02 104.38 160.02 118.72 163.61 118.72 163.61 100.79 160.02 100.79 156.44 100.79 156.44 104.38 160.02 104.38"/><polygon class="cls-9" points="163.61 79.28 163.61 75.69 160.02 75.69 160.02 79.28 156.44 79.28 152.85 79.28 152.85 86.45 156.44 86.45 156.44 82.87 160.02 82.87 163.61 82.87 167.19 82.87 167.19 79.28 163.61 79.28"/><rect class="cls-9" x="167.19" y="57.77" width="3.58" height="3.59"/><rect class="cls-9" x="170.78" y="54.18" width="3.59" height="3.58"/><polygon class="cls-9" points="174.36 61.35 170.78 61.35 170.78 82.87 167.19 82.87 167.19 86.45 170.78 86.45 170.78 90.04 174.36 90.04 174.36 86.45 177.95 86.45 177.95 82.87 174.36 82.87 174.36 61.35"/><rect class="cls-9" x="174.36" y="57.77" width="3.59" height="3.59"/><rect class="cls-9" x="185.12" y="64.94" width="3.59" height="10.76"/><polygon class="cls-9" points="185.12 100.79 181.53 100.79 181.53 118.72 185.12 118.72 185.12 104.38 188.7 104.38 188.7 100.79 185.12 100.79"/><polygon class="cls-9" points="188.7 79.28 185.12 79.28 185.12 75.69 181.53 75.69 181.53 79.28 177.95 79.28 177.95 82.87 181.53 82.87 185.12 82.87 188.7 82.87 188.7 86.45 192.29 86.45 192.29 79.28 188.7 79.28"/><rect class="cls-9" x="188.7" y="97.21" width="3.59" height="3.59"/><rect class="cls-9" x="188.7" y="104.38" width="3.59" height="3.58"/><rect class="cls-9" x="192.29" y="75.7" width="3.58" height="3.58"/><polygon class="cls-9" points="192.29 86.45 192.29 97.21 195.87 97.21 199.46 97.21 203.04 97.21 206.63 97.21 206.63 93.62 203.04 93.62 199.46 93.62 195.87 93.62 195.87 86.45 192.29 86.45"/><rect class="cls-9" x="192.29" y="100.79" width="3.58" height="3.58"/><rect class="cls-9" x="195.87" y="72.11" width="3.59" height="3.59"/><polygon class="cls-9" points="199.46 107.96 203.04 107.96 206.63 107.96 206.63 104.38 203.04 104.38 199.46 104.38 195.87 104.38 195.87 107.96 199.46 107.96"/><rect class="cls-9" x="199.46" y="68.52" width="3.58" height="3.59"/><polygon class="cls-9" points="203.04 86.45 206.63 86.45 206.63 82.87 203.04 82.87 199.46 82.87 195.87 82.87 195.87 86.45 199.46 86.45 203.04 86.45"/><polygon class="cls-10" points="131.34 158.16 131.34 154.57 127.75 154.57 127.75 125.89 131.34 125.89 134.92 125.89 138.51 125.89 142.09 125.89 145.68 125.89 145.68 122.3 142.09 122.3 138.51 122.3 134.92 122.3 131.34 122.3 127.75 122.3 124.17 122.3 124.17 158.16 127.75 158.16 131.34 158.16"/><polygon class="cls-10" points="134.92 179.67 134.92 176.08 131.34 176.08 127.75 176.08 127.75 172.5 131.34 172.5 131.34 168.91 127.75 168.91 124.17 168.91 124.17 179.67 127.75 179.67 131.34 179.67 134.92 179.67"/><rect class="cls-10" x="134.92" y="158.15" width="3.59" height="17.93"/><polygon class="cls-10" points="138.51 136.64 138.51 154.57 142.09 154.57 142.09 140.23 145.68 140.23 145.68 136.64 142.09 136.64 138.51 136.64"/><polygon class="cls-10" points="145.68 272.89 142.09 272.89 138.51 272.89 134.92 272.89 131.34 272.89 131.34 283.64 134.92 283.64 138.51 283.64 138.51 280.06 134.92 280.06 134.92 276.47 138.51 276.47 142.09 276.47 142.09 287.23 145.68 287.23 149.26 287.23 149.26 283.64 145.68 283.64 145.68 272.89"/><polygon class="cls-10" points="156.44 183.25 152.85 183.25 149.26 183.25 149.26 186.84 152.85 186.84 152.85 190.42 149.26 190.42 145.68 190.42 145.68 179.67 142.09 179.67 142.09 194.01 145.68 194.01 149.26 194.01 152.85 194.01 156.44 194.01 156.44 183.25"/><polygon class="cls-10" points="160.02 222.69 156.44 222.69 156.44 283.64 160.02 283.64 160.02 226.28 163.61 226.28 163.61 176.08 160.02 176.08 160.02 222.69"/><polygon class="cls-10" points="185.12 176.08 181.53 176.08 181.53 226.28 185.12 226.28 185.12 283.64 188.7 283.64 188.7 222.69 185.12 222.69 185.12 176.08"/><polygon class="cls-10" points="199.46 194.01 203.04 194.01 203.04 179.67 199.46 179.67 199.46 190.42 195.87 190.42 192.29 190.42 192.29 186.84 195.87 186.84 195.87 183.25 192.29 183.25 188.7 183.25 188.7 194.01 192.29 194.01 195.87 194.01 199.46 194.01"/><polygon class="cls-10" points="203.04 154.57 206.63 154.57 206.63 136.64 203.04 136.64 199.46 136.64 199.46 140.23 203.04 140.23 203.04 154.57"/><rect class="cls-10" x="206.63" y="158.15" width="3.59" height="17.93"/><polygon class="cls-10" points="206.63 272.89 203.04 272.89 199.46 272.89 199.46 283.64 195.87 283.64 195.87 287.23 199.46 287.23 203.04 287.23 203.04 276.47 206.63 276.47 210.22 276.47 210.22 280.06 206.63 280.06 206.63 283.64 210.22 283.64 213.8 283.64 213.8 272.89 210.22 272.89 206.63 272.89"/><polygon class="cls-10" points="213.8 168.91 213.8 172.5 217.39 172.5 217.39 176.08 213.8 176.08 210.22 176.08 210.22 179.67 213.8 179.67 217.39 179.67 220.97 179.67 220.97 168.91 217.39 168.91 213.8 168.91"/><polygon class="cls-10" points="217.39 122.3 213.8 122.3 210.22 122.3 206.63 122.3 203.04 122.3 199.46 122.3 199.46 125.89 203.04 125.89 206.63 125.89 210.22 125.89 213.8 125.89 217.39 125.89 217.39 154.57 213.8 154.57 213.8 158.16 217.39 158.16 220.97 158.16 220.97 122.3 217.39 122.3"/><polygon class="cls-11" points="145.68 179.67 145.68 154.57 142.09 154.57 138.51 154.57 134.92 154.57 134.92 133.06 138.51 133.06 142.09 133.06 145.68 133.06 145.68 129.47 142.09 129.47 138.51 129.47 134.92 129.47 131.34 129.47 131.34 158.16 134.92 158.16 138.51 158.16 142.09 158.16 142.09 176.08 138.51 176.08 134.92 176.08 134.92 190.42 131.34 190.42 127.75 190.42 127.75 186.84 131.34 186.84 131.34 183.25 127.75 183.25 124.17 183.25 124.17 194.01 127.75 194.01 131.34 194.01 134.92 194.01 138.51 194.01 138.51 179.67 142.09 179.67 145.68 179.67"/><polygon class="cls-11" points="167.19 229.86 163.61 229.86 163.61 283.64 160.02 283.64 156.44 283.64 152.85 283.64 152.85 265.72 149.26 265.72 145.68 265.72 145.68 258.55 149.26 258.55 149.26 262.13 152.85 262.13 152.85 254.96 149.26 254.96 145.68 254.96 142.09 254.96 142.09 269.3 145.68 269.3 149.26 269.3 149.26 287.23 152.85 287.23 156.44 287.23 160.02 287.23 163.61 287.23 167.19 287.23 167.19 233.45 170.78 233.45 170.78 176.08 167.19 176.08 167.19 229.86"/><polygon class="cls-11" points="195.87 254.96 192.29 254.96 192.29 262.13 195.87 262.13 195.87 258.55 199.46 258.55 199.46 265.72 195.87 265.72 192.29 265.72 192.29 283.64 188.7 283.64 185.12 283.64 181.53 283.64 181.53 229.86 177.95 229.86 177.95 176.08 174.36 176.08 174.36 233.45 177.95 233.45 177.95 287.23 181.53 287.23 185.12 287.23 188.7 287.23 192.29 287.23 195.87 287.23 195.87 269.3 199.46 269.3 203.04 269.3 203.04 254.96 199.46 254.96 195.87 254.96"/><polygon class="cls-11" points="217.39 183.25 213.8 183.25 213.8 186.84 217.39 186.84 217.39 190.42 213.8 190.42 210.22 190.42 210.22 176.08 206.63 176.08 203.04 176.08 203.04 158.16 206.63 158.16 210.22 158.16 213.8 158.16 213.8 129.47 210.22 129.47 206.63 129.47 203.04 129.47 199.46 129.47 199.46 133.06 203.04 133.06 206.63 133.06 210.22 133.06 210.22 154.57 206.63 154.57 203.04 154.57 199.46 154.57 199.46 179.67 203.04 179.67 206.63 179.67 206.63 194.01 210.22 194.01 213.8 194.01 217.39 194.01 220.97 194.01 220.97 183.25 217.39 183.25"/><rect class="cls-12" x="170.78" y="90.04" width="3.59" height="3.59"/><polygon class="cls-12" points="177.95 86.45 174.36 86.45 174.36 90.04 177.95 90.04 181.53 90.04 181.53 93.62 177.95 93.62 174.36 93.62 174.36 100.79 170.78 100.79 167.19 100.79 167.19 97.21 170.78 97.21 170.78 93.62 167.19 93.62 163.61 93.62 163.61 90.04 167.19 90.04 170.78 90.04 170.78 86.45 167.19 86.45 163.61 86.45 160.02 86.45 160.02 97.21 163.61 97.21 163.61 104.38 167.19 104.38 170.78 104.38 174.36 104.38 174.36 107.96 170.78 107.96 167.19 107.96 163.61 107.96 163.61 136.64 167.19 136.64 167.19 122.3 170.78 122.3 170.78 115.13 167.19 115.13 167.19 111.55 170.78 111.55 174.36 111.55 174.36 122.3 177.95 122.3 177.95 136.64 181.53 136.64 181.53 97.21 185.12 97.21 185.12 86.45 181.53 86.45 177.95 86.45"/><rect class="cls-12" x="206.63" y="97.21" width="3.59" height="3.59"/><polygon class="cls-12" points="224.56 68.52 220.97 68.52 217.39 68.52 213.8 68.52 213.8 79.28 217.39 79.28 220.97 79.28 224.56 79.28 224.56 75.69 228.14 75.69 228.14 79.28 231.73 79.28 231.73 68.52 228.14 68.52 224.56 68.52"/><path class="cls-12" d="M238.9,61.35V57.77H206.63v3.58H203V82.87h3.59v3.58H203V90h3.59v3.58h3.58v3.59h3.59V93.62h3.59V90H238.9V86.45h3.58V61.35Zm-3.59,21.52h-7.17v3.58h-3.58V82.87H210.21V64.94h25.1Z"/><polygon class="cls-13" points="142.09 118.72 142.09 122.3 145.68 122.3 145.68 125.89 142.09 125.89 142.09 129.47 145.68 129.47 145.68 133.06 142.09 133.06 142.09 136.64 145.68 136.64 145.68 140.23 142.09 140.23 142.09 143.81 145.68 143.81 149.26 143.81 149.26 118.72 145.68 118.72 142.09 118.72"/><polygon class="cls-13" points="163.61 122.3 163.61 118.72 160.02 118.72 156.44 118.72 156.44 122.3 160.02 122.3 163.61 122.3"/><polygon class="cls-13" points="163.61 143.81 160.02 143.81 156.44 143.81 156.44 147.4 160.02 147.4 163.61 147.4 167.19 147.4 170.78 147.4 170.78 143.81 167.19 143.81 163.61 143.81"/><rect class="cls-13" x="170.78" y="118.72" width="3.59" height="25.1"/><polygon class="cls-13" points="181.53 118.72 181.53 122.3 185.12 122.3 188.7 122.3 188.7 118.72 185.12 118.72 181.53 118.72"/><polygon class="cls-13" points="181.53 143.81 177.95 143.81 174.36 143.81 174.36 147.4 177.95 147.4 181.53 147.4 185.12 147.4 188.7 147.4 188.7 143.81 185.12 143.81 181.53 143.81"/><polygon class="cls-13" points="181.53 172.5 177.95 172.5 174.36 172.5 170.78 172.5 167.19 172.5 163.61 172.5 160.02 172.5 156.44 172.5 156.44 179.67 160.02 179.67 160.02 176.08 163.61 176.08 163.61 179.67 167.19 179.67 167.19 176.08 170.78 176.08 170.78 179.67 174.36 179.67 174.36 176.08 177.95 176.08 177.95 179.67 181.53 179.67 181.53 176.08 185.12 176.08 185.12 179.67 188.7 179.67 188.7 172.5 185.12 172.5 181.53 172.5"/><polygon class="cls-13" points="195.87 118.72 195.87 143.81 199.46 143.81 203.04 143.81 203.04 140.23 199.46 140.23 199.46 136.64 203.04 136.64 203.04 133.06 199.46 133.06 199.46 129.47 203.04 129.47 203.04 125.89 199.46 125.89 199.46 122.3 203.04 122.3 203.04 118.72 199.46 118.72 195.87 118.72"/><rect class="cls-13" x="206.63" y="100.79" width="3.59" height="3.58"/><rect class="cls-13" x="210.21" y="97.21" width="3.58" height="3.59"/><path class="cls-13" d="M217.39,82.87h7.17v3.58h3.58V82.87h7.17V64.94h-25.1V82.87h7.18ZM213.8,68.52h17.93V79.28h-3.59V75.7h-3.58v3.58H213.8Z"/><rect class="cls-13" x="213.8" y="93.62" width="3.59" height="3.58"/><polygon class="cls-13" points="242.48 64.94 242.48 86.45 238.9 86.45 238.9 90.04 235.31 90.04 231.73 90.04 228.14 90.04 224.56 90.04 220.97 90.04 217.39 90.04 217.39 93.62 220.97 93.62 224.56 93.62 228.14 93.62 231.73 93.62 235.31 93.62 238.9 93.62 242.48 93.62 242.48 90.04 246.07 90.04 246.07 64.94 242.48 64.94"/></g></svg>