<svg xmlns="http://www.w3.org/2000/svg" xmlns:xlink="http://www.w3.org/1999/xlink" viewBox="0 0 345 345"><defs><style>.cls-1{fill:url(#radial-gradient);}.cls-2{fill:#808088;}.cls-3{fill:#a0a0a8;}.cls-4{fill:#fecf09;}.cls-5{fill:#ea6524;}.cls-6{fill:#b81f34;}.cls-7{fill:#dd1f2b;}.cls-8{fill:#fff;}.cls-9{fill:#010101;}</style><radialGradient id="radial-gradient" cx="172.5" cy="172.5" r="172.5" gradientUnits="userSpaceOnUse"><stop offset="0" stop-color="#174170"/><stop offset="1" stop-color="#3a76bc"/></radialGradient></defs><g id="Layer_7" data-name="Layer 7"><rect class="cls-1" width="345" height="345"/></g><g id="Layer_22" data-name="Layer 22"><polygon class="cls-2" points="156.37 164.71 156.37 168.3 159.95 168.3 163.54 168.3 163.54 164.71 159.95 164.71 156.37 164.71"/><polygon class="cls-2" points="156.37 171.88 156.37 175.47 159.95 175.47 163.54 175.47 163.54 171.88 159.95 171.88 156.37 171.88"/><polygon class="cls-2" points="170.71 96.59 167.12 96.59 167.12 100.18 170.71 100.18 174.29 100.18 174.29 93 170.71 93 170.71 96.59"/><polygon class="cls-2" points="181.46 171.88 181.46 175.47 185.05 175.47 188.63 175.47 188.63 171.88 185.05 171.88 181.46 171.88"/><polygon class="cls-2" points="185.05 164.71 181.46 164.71 181.46 168.3 185.05 168.3 188.63 168.3 188.63 164.71 185.05 164.71"/><polygon class="cls-3" points="156.37 168.3 156.37 171.88 159.95 171.88 163.54 171.88 163.54 168.3 159.95 168.3 156.37 168.3"/><polygon class="cls-3" points="156.37 175.47 156.37 179.05 159.95 179.05 163.54 179.05 163.54 175.47 159.95 175.47 156.37 175.47"/><rect class="cls-3" x="170.71" y="89.42" width="3.58" height="3.59"/><polygon class="cls-3" points="181.46 93 177.88 93 174.29 93 174.29 100.18 170.71 100.18 167.12 100.18 167.12 96.59 170.71 96.59 170.71 93 167.12 93 163.54 93 163.54 103.76 167.12 103.76 170.71 103.76 174.29 103.76 174.29 107.35 170.71 107.35 167.12 107.35 163.54 107.35 163.54 110.93 167.12 110.93 167.12 114.52 170.71 114.52 174.29 114.52 177.88 114.52 177.88 110.93 181.46 110.93 181.46 93"/><polygon class="cls-3" points="181.46 175.47 181.46 179.05 185.05 179.05 188.63 179.05 188.63 175.47 185.05 175.47 181.46 175.47"/><polygon class="cls-3" points="185.05 168.3 181.46 168.3 181.46 171.88 185.05 171.88 188.63 171.88 188.63 168.3 185.05 168.3"/><rect class="cls-4" x="138.44" y="157.54" width="3.59" height="3.59"/><rect class="cls-4" x="142.03" y="161.13" width="3.59" height="3.59"/><polygon class="cls-4" points="149.2 146.78 152.78 146.78 156.37 146.78 159.95 146.78 163.54 146.78 167.12 146.78 167.12 143.2 163.54 143.2 163.54 139.61 159.95 139.61 159.95 136.03 156.37 136.03 156.37 132.44 152.78 132.44 152.78 143.2 149.2 143.2 145.61 143.2 142.03 143.2 142.03 146.78 145.61 146.78 149.2 146.78"/><rect class="cls-4" x="145.61" y="164.71" width="3.58" height="3.59"/><rect class="cls-4" x="149.2" y="168.3" width="3.59" height="3.59"/><polygon class="cls-4" points="149.2 175.47 145.61 175.47 142.03 175.47 142.03 179.05 145.61 179.05 149.2 179.05 152.78 179.05 152.78 175.47 149.2 175.47"/><rect class="cls-4" x="152.78" y="236.42" width="3.58" height="3.59"/><rect class="cls-4" x="156.37" y="240" width="3.59" height="3.59"/><polygon class="cls-4" points="159.95 229.25 156.37 229.25 156.37 232.83 159.95 232.83 163.54 232.83 167.12 232.83 167.12 229.25 163.54 229.25 159.95 229.25"/><rect class="cls-4" x="159.95" y="243.59" width="3.58" height="3.59"/><polygon class="cls-4" points="159.95 283.03 156.37 283.03 152.78 283.03 149.2 283.03 145.61 283.03 142.03 283.03 142.03 286.61 145.61 286.61 149.2 286.61 152.78 286.61 156.37 286.61 159.95 286.61 163.54 286.61 167.12 286.61 167.12 283.03 163.54 283.03 159.95 283.03"/><rect class="cls-4" x="163.54" y="247.17" width="3.59" height="3.59"/><polygon class="cls-4" points="174.29 143.2 177.88 143.2 177.88 139.61 174.29 139.61 174.29 121.69 177.88 121.69 181.46 121.69 185.05 121.69 188.63 121.69 188.63 118.1 185.05 118.1 181.46 118.1 177.88 118.1 174.29 118.1 170.71 118.1 167.12 118.1 163.54 118.1 159.95 118.1 156.37 118.1 156.37 121.69 159.95 121.69 163.54 121.69 167.12 121.69 170.71 121.69 170.71 139.61 167.12 139.61 167.12 143.2 170.71 143.2 174.29 143.2"/><polygon class="cls-4" points="181.46 146.78 185.05 146.78 188.63 146.78 192.22 146.78 195.81 146.78 199.39 146.78 202.98 146.78 202.98 143.2 199.39 143.2 195.81 143.2 192.22 143.2 192.22 132.44 188.63 132.44 188.63 136.03 185.05 136.03 185.05 139.61 181.46 139.61 181.46 143.2 177.88 143.2 177.88 146.78 181.46 146.78"/><rect class="cls-4" x="177.88" y="247.17" width="3.58" height="3.59"/><polygon class="cls-4" points="185.05 232.83 188.63 232.83 188.63 229.25 185.05 229.25 181.46 229.25 177.88 229.25 177.88 232.83 181.46 232.83 185.05 232.83"/><rect class="cls-4" x="181.46" y="243.59" width="3.59" height="3.59"/><polygon class="cls-4" points="185.05 179.05 181.46 179.05 177.88 179.05 174.29 179.05 170.71 179.05 167.12 179.05 163.54 179.05 159.95 179.05 156.37 179.05 152.78 179.05 152.78 182.64 156.37 182.64 159.95 182.64 163.54 182.64 167.12 182.64 167.12 186.22 170.71 186.22 170.71 189.81 174.29 189.81 174.29 186.22 177.88 186.22 177.88 182.64 181.46 182.64 185.05 182.64 188.63 182.64 192.22 182.64 192.22 179.05 188.63 179.05 185.05 179.05"/><rect class="cls-4" x="185.05" y="240" width="3.58" height="3.59"/><rect class="cls-4" x="188.64" y="236.42" width="3.58" height="3.59"/><rect class="cls-4" x="192.22" y="168.3" width="3.58" height="3.59"/><rect class="cls-4" x="195.81" y="164.71" width="3.59" height="3.59"/><polygon class="cls-4" points="195.81 175.47 192.22 175.47 192.22 179.05 195.81 179.05 199.39 179.05 202.98 179.05 202.98 175.47 199.39 175.47 195.81 175.47"/><polygon class="cls-4" points="195.81 283.03 192.22 283.03 188.63 283.03 185.05 283.03 181.46 283.03 177.88 283.03 177.88 286.61 181.46 286.61 185.05 286.61 188.63 286.61 192.22 286.61 195.81 286.61 199.39 286.61 202.98 286.61 202.98 283.03 199.39 283.03 195.81 283.03"/><rect class="cls-4" x="199.39" y="161.13" width="3.59" height="3.59"/><rect class="cls-4" x="202.98" y="157.54" width="3.59" height="3.59"/><polygon class="cls-5" points="145.61 175.47 149.2 175.47 152.78 175.47 152.78 171.88 149.2 171.88 149.2 168.3 145.61 168.3 145.61 164.71 142.03 164.71 142.03 161.13 138.44 161.13 138.44 175.47 142.03 175.47 145.61 175.47"/><polygon class="cls-5" points="156.37 136.03 159.95 136.03 159.95 139.61 163.54 139.61 163.54 143.2 167.12 143.2 167.12 139.61 170.71 139.61 170.71 121.69 167.12 121.69 163.54 121.69 159.95 121.69 156.37 121.69 152.78 121.69 152.78 132.44 156.37 132.44 156.37 136.03"/><polygon class="cls-5" points="163.54 247.17 159.95 247.17 159.95 243.59 156.37 243.59 156.37 240 152.78 240 152.78 250.76 156.37 250.76 156.37 254.34 152.78 254.34 149.2 254.34 149.2 261.52 152.78 261.52 156.37 261.52 156.37 265.1 152.78 265.1 149.2 265.1 145.61 265.1 145.61 272.27 149.2 272.27 152.78 272.27 156.37 272.27 156.37 275.86 152.78 275.86 149.2 275.86 145.61 275.86 142.03 275.86 142.03 283.03 145.61 283.03 149.2 283.03 152.78 283.03 156.37 283.03 159.95 283.03 163.54 283.03 167.12 283.03 167.12 250.76 163.54 250.76 163.54 247.17"/><polygon class="cls-5" points="167.12 118.1 170.71 118.1 174.29 118.1 177.88 118.1 181.46 118.1 185.05 118.1 185.05 89.42 181.46 89.42 181.46 110.93 177.88 110.93 177.88 114.52 174.29 114.52 170.71 114.52 167.12 114.52 167.12 110.93 163.54 110.93 163.54 89.42 159.95 89.42 159.95 118.1 163.54 118.1 167.12 118.1"/><polygon class="cls-5" points="181.46 179.05 181.46 161.13 177.88 161.13 174.29 161.13 170.71 161.13 167.12 161.13 163.54 161.13 163.54 179.05 167.12 179.05 170.71 179.05 174.29 179.05 177.88 179.05 181.46 179.05"/><polygon class="cls-5" points="181.46 121.69 177.88 121.69 174.29 121.69 174.29 139.61 177.88 139.61 177.88 143.2 181.46 143.2 181.46 139.61 185.05 139.61 185.05 136.03 188.63 136.03 188.63 132.44 192.22 132.44 192.22 121.69 188.63 121.69 185.05 121.69 181.46 121.69"/><polygon class="cls-5" points="195.81 275.86 192.22 275.86 188.63 275.86 188.63 272.27 192.22 272.27 195.81 272.27 199.39 272.27 199.39 265.1 195.81 265.1 192.22 265.1 188.63 265.1 188.63 261.52 192.22 261.52 195.81 261.52 195.81 254.34 192.22 254.34 188.63 254.34 188.63 250.76 192.22 250.76 192.22 240 188.63 240 188.63 243.59 185.05 243.59 185.05 247.17 181.46 247.17 181.46 250.76 177.88 250.76 177.88 283.03 181.46 283.03 185.05 283.03 188.63 283.03 192.22 283.03 195.81 283.03 199.39 283.03 202.98 283.03 202.98 275.86 199.39 275.86 195.81 275.86"/><polygon class="cls-5" points="202.98 161.13 202.98 164.71 199.39 164.71 199.39 168.3 195.81 168.3 195.81 171.88 192.22 171.88 192.22 175.47 195.81 175.47 199.39 175.47 202.98 175.47 206.56 175.47 206.56 161.13 202.98 161.13"/><rect class="cls-6" x="134.86" y="189.81" width="3.59" height="7.17"/><rect class="cls-6" x="138.44" y="132.44" width="3.59" height="7.17"/><rect class="cls-6" x="145.61" y="132.44" width="3.58" height="7.17"/><rect class="cls-6" x="152.78" y="146.78" width="3.58" height="17.93"/><rect class="cls-6" x="152.78" y="200.56" width="3.58" height="3.58"/><rect class="cls-6" x="152.78" y="222.08" width="3.58" height="3.58"/><polygon class="cls-6" points="156.37 189.81 152.78 189.81 152.78 179.05 149.2 179.05 149.2 200.56 152.78 200.56 152.78 193.39 156.37 193.39 159.95 193.39 159.95 189.81 156.37 189.81"/><rect class="cls-6" x="156.37" y="204.15" width="3.59" height="17.93"/><polygon class="cls-6" points="163.54 89.42 167.12 89.42 170.71 89.42 174.29 89.42 177.88 89.42 181.46 89.42 185.05 89.42 188.63 89.42 188.63 67.91 185.05 67.91 185.05 78.66 181.46 78.66 181.46 82.25 177.88 82.25 177.88 85.83 174.29 85.83 174.29 64.32 170.71 64.32 170.71 85.83 167.12 85.83 167.12 82.25 163.54 82.25 163.54 78.66 159.95 78.66 159.95 67.91 156.37 67.91 156.37 89.42 159.95 89.42 163.54 89.42"/><rect class="cls-6" x="159.95" y="193.39" width="3.58" height="3.59"/><rect class="cls-6" x="163.54" y="196.98" width="3.59" height="3.59"/><polygon class="cls-6" points="174.29 150.37 174.29 146.78 177.88 146.78 177.88 143.2 174.29 143.2 170.71 143.2 167.12 143.2 167.12 146.78 170.71 146.78 170.71 150.37 174.29 150.37"/><polygon class="cls-6" points="170.71 200.56 167.12 200.56 167.12 204.15 170.71 204.15 174.29 204.15 177.88 204.15 177.88 200.56 174.29 200.56 170.71 200.56"/><rect class="cls-6" x="177.88" y="196.98" width="3.58" height="3.59"/><rect class="cls-6" x="181.46" y="193.39" width="3.59" height="3.59"/><rect class="cls-6" x="185.05" y="204.15" width="3.58" height="17.93"/><rect class="cls-6" x="188.64" y="146.78" width="3.58" height="17.93"/><rect class="cls-6" x="188.64" y="200.56" width="3.58" height="3.58"/><rect class="cls-6" x="188.64" y="222.08" width="3.58" height="3.58"/><polygon class="cls-6" points="192.22 189.81 188.63 189.81 185.05 189.81 185.05 193.39 188.63 193.39 192.22 193.39 192.22 200.56 195.81 200.56 195.81 179.05 192.22 179.05 192.22 189.81"/><rect class="cls-6" x="195.81" y="132.44" width="3.59" height="7.17"/><rect class="cls-6" x="202.98" y="132.44" width="3.59" height="7.17"/><rect class="cls-6" x="206.56" y="189.81" width="3.59" height="7.17"/><path class="cls-7" d="M142,143.2h10.75V121.69h3.59v-7.17H138.44v-3.59h-3.58V143.2H142Zm3.58-10.76h3.59v7.17h-3.59Zm-7.17,0H142v7.17h-3.59Z"/><polygon class="cls-7" points="149.2 200.56 149.2 179.05 145.61 179.05 142.03 179.05 138.44 179.05 138.44 196.98 134.85 196.98 134.85 200.56 138.44 200.56 142.03 200.56 145.61 200.56 149.2 200.56"/><polygon class="cls-7" points="152.78 168.3 152.78 146.78 149.2 146.78 145.61 146.78 142.03 146.78 138.44 146.78 138.44 157.54 142.03 157.54 142.03 161.13 145.61 161.13 145.61 164.71 149.2 164.71 149.2 168.3 152.78 168.3"/><polygon class="cls-7" points="149.2 261.52 149.2 265.1 152.78 265.1 156.37 265.1 156.37 261.52 152.78 261.52 149.2 261.52"/><polygon class="cls-7" points="149.2 272.27 145.61 272.27 145.61 275.86 149.2 275.86 152.78 275.86 156.37 275.86 156.37 272.27 152.78 272.27 149.2 272.27"/><rect class="cls-7" x="152.78" y="204.15" width="3.58" height="17.93"/><rect class="cls-7" x="152.78" y="250.76" width="3.58" height="3.59"/><rect class="cls-7" x="156.37" y="89.42" width="3.59" height="10.76"/><polygon class="cls-7" points="159.95 193.39 156.37 193.39 152.78 193.39 152.78 200.56 156.37 200.56 156.37 204.15 159.95 204.15 159.95 222.08 156.37 222.08 156.37 225.66 152.78 225.66 152.78 229.25 156.37 229.25 159.95 229.25 163.54 229.25 167.12 229.25 167.12 207.74 163.54 207.74 163.54 196.98 159.95 196.98 159.95 193.39"/><polygon class="cls-7" points="159.95 232.83 156.37 232.83 152.78 232.83 152.78 236.42 156.37 236.42 156.37 240 159.95 240 159.95 243.59 163.54 243.59 163.54 247.17 167.12 247.17 167.12 232.83 163.54 232.83 159.95 232.83"/><polygon class="cls-7" points="163.54 82.25 167.12 82.25 167.12 85.83 170.71 85.83 170.71 67.91 167.12 67.91 163.54 67.91 163.54 71.49 159.95 71.49 159.95 78.66 163.54 78.66 163.54 82.25"/><polygon class="cls-7" points="170.71 93 170.71 89.42 167.12 89.42 163.54 89.42 163.54 93 167.12 93 170.71 93"/><polygon class="cls-7" points="170.71 146.78 167.12 146.78 163.54 146.78 159.95 146.78 156.37 146.78 156.37 164.71 159.95 164.71 163.54 164.71 163.54 161.13 167.12 161.13 170.71 161.13 174.29 161.13 177.88 161.13 181.46 161.13 181.46 164.71 185.05 164.71 188.63 164.71 188.63 146.78 185.05 146.78 181.46 146.78 177.88 146.78 174.29 146.78 174.29 150.37 170.71 150.37 170.71 146.78"/><polygon class="cls-7" points="177.88 82.25 181.46 82.25 181.46 78.66 185.05 78.66 185.05 71.49 181.46 71.49 181.46 67.91 177.88 67.91 174.29 67.91 174.29 85.83 177.88 85.83 177.88 82.25"/><polygon class="cls-7" points="177.88 196.98 181.46 196.98 181.46 193.39 185.05 193.39 185.05 189.81 188.63 189.81 192.22 189.81 192.22 182.64 188.63 182.64 185.05 182.64 181.46 182.64 177.88 182.64 177.88 186.22 174.29 186.22 174.29 189.81 170.71 189.81 170.71 186.22 167.12 186.22 167.12 182.64 163.54 182.64 159.95 182.64 156.37 182.64 152.78 182.64 152.78 189.81 156.37 189.81 159.95 189.81 159.95 193.39 163.54 193.39 163.54 196.98 167.12 196.98 167.12 200.56 170.71 200.56 174.29 200.56 177.88 200.56 177.88 196.98"/><polygon class="cls-7" points="181.46 93 181.46 89.42 177.88 89.42 174.29 89.42 174.29 93 177.88 93 181.46 93"/><polygon class="cls-7" points="181.46 196.98 181.46 207.74 177.88 207.74 177.88 229.25 181.46 229.25 185.05 229.25 188.63 229.25 192.22 229.25 192.22 225.66 188.63 225.66 188.63 222.08 185.05 222.08 185.05 204.15 188.63 204.15 188.63 200.56 192.22 200.56 192.22 193.39 188.63 193.39 185.05 193.39 185.05 196.98 181.46 196.98"/><rect class="cls-7" x="185.05" y="89.42" width="3.58" height="10.76"/><polygon class="cls-7" points="188.63 236.42 192.22 236.42 192.22 232.83 188.63 232.83 185.05 232.83 181.46 232.83 177.88 232.83 177.88 247.17 181.46 247.17 181.46 243.59 185.05 243.59 185.05 240 188.63 240 188.63 236.42"/><rect class="cls-7" x="188.64" y="204.15" width="3.58" height="17.93"/><rect class="cls-7" x="188.64" y="250.76" width="3.58" height="3.59"/><polygon class="cls-7" points="188.63 261.52 188.63 265.1 192.22 265.1 195.81 265.1 195.81 261.52 192.22 261.52 188.63 261.52"/><polygon class="cls-7" points="195.81 164.71 199.39 164.71 199.39 161.13 202.98 161.13 202.98 157.54 206.56 157.54 206.56 146.78 202.98 146.78 199.39 146.78 195.81 146.78 192.22 146.78 192.22 168.3 195.81 168.3 195.81 164.71"/><polygon class="cls-7" points="192.22 272.27 188.63 272.27 188.63 275.86 192.22 275.86 195.81 275.86 199.39 275.86 199.39 272.27 195.81 272.27 192.22 272.27"/><polygon class="cls-7" points="206.56 179.05 202.98 179.05 199.39 179.05 195.81 179.05 195.81 200.56 199.39 200.56 202.98 200.56 206.56 200.56 210.15 200.56 210.15 196.98 206.56 196.98 206.56 179.05"/><path class="cls-7" d="M206.56,110.93v3.59H188.64v7.17h3.58V143.2h17.93V110.93Zm-7.17,28.68h-3.58v-7.17h3.58Zm7.17,0H203v-7.17h3.58Z"/><polygon class="cls-8" points="167.12 103.76 163.54 103.76 163.54 107.35 167.12 107.35 170.71 107.35 174.29 107.35 174.29 103.76 170.71 103.76 167.12 103.76"/><rect class="cls-8" x="206.56" y="96.59" width="3.59" height="3.59"/><path class="cls-8" d="M238.83,60.74V57.15H206.56v3.59H203V89.42h3.58V93h3.59v3.58h3.58V93h3.59V89.42h21.51V85.83h3.58V60.74Zm-3.59,7.17H213.73v3.58h21.51v3.59H213.73v7.17h-3.58V64.32h25.09Z"/><rect class="cls-9" x="206.56" y="100.18" width="3.59" height="3.58"/><polygon class="cls-9" points="213.73 75.08 217.32 75.08 220.9 75.08 224.49 75.08 228.07 75.08 231.66 75.08 235.24 75.08 235.24 71.49 231.66 71.49 228.07 71.49 224.49 71.49 220.9 71.49 217.32 71.49 213.73 71.49 213.73 67.91 217.32 67.91 220.9 67.91 224.49 67.91 228.07 67.91 231.66 67.91 235.24 67.91 235.24 64.32 231.66 64.32 228.07 64.32 224.49 64.32 220.9 64.32 217.32 64.32 213.73 64.32 210.15 64.32 210.15 82.25 213.73 82.25 213.73 75.08"/><rect class="cls-9" x="210.15" y="96.59" width="3.58" height="3.59"/><rect class="cls-9" x="213.73" y="93.01" width="3.59" height="3.59"/><polygon class="cls-9" points="242.41 64.32 242.41 85.83 238.83 85.83 238.83 89.42 235.24 89.42 231.66 89.42 228.07 89.42 224.49 89.42 220.9 89.42 217.32 89.42 217.32 93 220.9 93 224.49 93 228.07 93 231.66 93 235.24 93 238.83 93 242.41 93 242.41 89.42 246 89.42 246 64.32 242.41 64.32"/></g></svg>