<svg xmlns="http://www.w3.org/2000/svg" xmlns:xlink="http://www.w3.org/1999/xlink" viewBox="0 0 345 345"><defs><style>.cls-1{fill:url(#radial-gradient);}.cls-2{fill:#84152b;}.cls-3{fill:#707a3d;}.cls-4{fill:#959b59;}.cls-5{fill:#674118;}.cls-6{fill:#b62d55;}.cls-7{fill:#8f642b;}.cls-8{fill:#eec21f;}.cls-9{fill:#a0a0a8;}.cls-10{fill:#ccd2d3;}.cls-11{fill:#fff;}.cls-12{fill:#010101;}</style><radialGradient id="radial-gradient" cx="172.5" cy="172.5" r="172.5" gradientUnits="userSpaceOnUse"><stop offset="0" stop-color="#174170"/><stop offset="1" stop-color="#3a76bc"/></radialGradient></defs><g id="Layer_7" data-name="Layer 7"><rect class="cls-1" width="345" height="345"/></g><g id="Layer_4" data-name="Layer 4"><rect class="cls-2" x="134.2" y="173.1" width="3.67" height="7.34"/><rect class="cls-2" x="137.87" y="173.1" width="3.67" height="3.67"/><rect class="cls-2" x="141.54" y="173.1" width="3.67" height="3.67"/><rect class="cls-2" x="145.21" y="173.1" width="3.67" height="3.67"/><rect class="cls-2" x="148.89" y="173.1" width="3.67" height="3.67"/><rect class="cls-3" x="152.56" y="77.62" width="3.67" height="11.02"/><rect class="cls-3" x="152.56" y="114.34" width="3.67" height="3.67"/><rect class="cls-3" x="156.23" y="118.02" width="3.67" height="3.67"/><rect class="cls-3" x="159.91" y="191.46" width="3.67" height="3.67"/><rect class="cls-3" x="163.58" y="195.14" width="3.67" height="3.67"/><polygon class="cls-3" points="170.92 198.81 167.25 198.81 167.25 202.48 170.92 202.48 174.59 202.48 178.26 202.48 178.26 198.81 174.59 198.81 170.92 198.81"/><polygon class="cls-3" points="178.26 121.69 174.59 121.69 170.92 121.69 167.25 121.69 163.58 121.69 159.91 121.69 159.91 125.36 163.58 125.36 167.25 125.36 170.92 125.36 174.59 125.36 178.26 125.36 181.94 125.36 185.61 125.36 185.61 121.69 181.94 121.69 178.26 121.69"/><rect class="cls-3" x="178.27" y="195.14" width="3.67" height="3.67"/><rect class="cls-3" x="181.94" y="191.46" width="3.67" height="3.67"/><rect class="cls-3" x="185.61" y="118.02" width="3.67" height="3.67"/><rect class="cls-3" x="189.28" y="114.34" width="3.67" height="3.67"/><polygon class="cls-4" points="163.58 81.29 167.25 81.29 170.92 81.29 174.59 81.29 178.26 81.29 181.94 81.29 185.61 81.29 189.28 81.29 189.28 66.6 185.61 66.6 185.61 62.93 181.94 62.93 181.94 59.26 178.26 59.26 174.59 59.26 170.92 59.26 167.25 59.26 163.58 59.26 163.58 62.93 159.91 62.93 159.91 66.6 156.23 66.6 156.23 81.29 159.91 81.29 163.58 81.29"/><polygon class="cls-4" points="159.91 121.69 163.58 121.69 167.25 121.69 167.25 95.98 163.58 95.98 163.58 92.31 159.91 92.31 156.23 92.31 156.23 118.02 159.91 118.02 159.91 121.69"/><polygon class="cls-4" points="163.58 151.07 163.58 147.4 167.25 147.4 170.92 147.4 170.92 143.72 167.25 143.72 167.25 136.38 170.92 136.38 170.92 132.71 167.25 132.71 163.58 132.71 159.91 132.71 156.23 132.71 152.56 132.71 152.56 173.1 156.23 173.1 156.23 158.41 159.91 158.41 159.91 151.07 163.58 151.07"/><rect class="cls-4" x="170.92" y="136.38" width="3.67" height="7.34"/><polygon class="cls-4" points="181.94 151.07 178.26 151.07 174.59 151.07 174.59 147.4 170.92 147.4 170.92 151.07 167.25 151.07 163.58 151.07 163.58 158.41 159.91 158.41 159.91 173.1 163.58 173.1 167.25 173.1 170.92 173.1 174.59 173.1 178.26 173.1 181.94 173.1 185.61 173.1 185.61 158.41 181.94 158.41 181.94 151.07"/><polygon class="cls-4" points="189.28 118.02 189.28 92.31 185.61 92.31 181.94 92.31 181.94 95.98 178.26 95.98 178.26 121.69 181.94 121.69 185.61 121.69 185.61 118.02 189.28 118.02"/><polygon class="cls-4" points="185.61 132.71 181.94 132.71 178.26 132.71 174.59 132.71 174.59 136.38 178.26 136.38 178.26 143.72 174.59 143.72 174.59 147.4 178.26 147.4 181.94 147.4 181.94 151.07 185.61 151.07 185.61 158.41 189.28 158.41 189.28 173.1 192.96 173.1 192.96 132.71 189.28 132.71 185.61 132.71"/><polygon class="cls-4" points="185.61 187.79 181.94 187.79 178.26 187.79 174.59 187.79 170.92 187.79 167.25 187.79 163.58 187.79 159.91 187.79 156.23 187.79 152.56 187.79 152.56 198.81 156.23 198.81 159.91 198.81 163.58 198.81 163.58 195.14 159.91 195.14 159.91 191.46 163.58 191.46 163.58 195.14 167.25 195.14 167.25 198.81 170.92 198.81 174.59 198.81 178.26 198.81 178.26 195.14 181.94 195.14 181.94 191.46 185.61 191.46 185.61 195.14 181.94 195.14 181.94 198.81 185.61 198.81 189.28 198.81 192.96 198.81 192.96 187.79 189.28 187.79 185.61 187.79"/><polygon class="cls-4" points="189.28 118.02 189.28 121.69 185.61 121.69 185.61 125.36 181.94 125.36 178.26 125.36 174.59 125.36 170.92 125.36 167.25 125.36 163.58 125.36 159.91 125.36 159.91 121.69 156.23 121.69 156.23 118.02 152.56 118.02 152.56 129.03 156.23 129.03 159.91 129.03 163.58 129.03 167.25 129.03 170.92 129.03 174.59 129.03 178.26 129.03 181.94 129.03 185.61 129.03 189.28 129.03 192.96 129.03 192.96 118.02 189.28 118.02"/><rect class="cls-2" x="192.96" y="173.1" width="3.67" height="3.67"/><polygon class="cls-5" points="159.91 257.57 156.23 257.57 152.56 257.57 148.89 257.57 148.89 264.91 152.56 264.91 152.56 261.24 156.23 261.24 159.91 261.24 163.58 261.24 163.58 264.91 167.25 264.91 167.25 257.57 163.58 257.57 159.91 257.57"/><path class="cls-5" d="M181.94,187.79h11v-3.67h-3.68v-3.67H193v-3.67h-40.4v3.67h3.67v3.67h-3.67v3.67h29.38Zm0-7.34h3.67v3.67h-3.67Zm-18.36,3.67h-3.67v-3.67h3.67Zm7.34,0h-3.67v-3.67h3.67Zm3.67,0v-3.67h3.68v3.67Z"/><polygon class="cls-5" points="192.96 257.57 189.28 257.57 185.61 257.57 181.94 257.57 178.26 257.57 178.26 264.91 181.94 264.91 181.94 261.24 185.61 261.24 189.28 261.24 192.96 261.24 192.96 264.91 196.63 264.91 196.63 257.57 192.96 257.57"/><rect class="cls-2" x="196.63" y="173.1" width="3.67" height="3.67"/><rect class="cls-2" x="200.3" y="173.1" width="3.67" height="3.67"/><rect class="cls-2" x="203.97" y="173.1" width="3.67" height="3.67"/><polygon class="cls-6" points="145.22 176.78 141.54 176.78 137.87 176.78 137.87 187.79 141.54 187.79 145.22 187.79 148.89 187.79 152.56 187.79 152.56 176.78 148.89 176.78 145.22 176.78"/><polygon class="cls-6" points="163.58 88.64 159.91 88.64 156.23 88.64 156.23 92.31 159.91 92.31 163.58 92.31 163.58 95.98 167.25 95.98 167.25 121.69 170.92 121.69 170.92 88.64 167.25 88.64 163.58 88.64"/><polygon class="cls-6" points="181.94 81.29 178.26 81.29 174.59 81.29 170.92 81.29 167.25 81.29 163.58 81.29 159.91 81.29 156.23 81.29 156.23 84.96 159.91 84.96 163.58 84.96 167.25 84.96 170.92 84.96 174.59 84.96 178.26 84.96 181.94 84.96 185.61 84.96 189.28 84.96 189.28 81.29 185.61 81.29 181.94 81.29"/><polygon class="cls-6" points="181.94 88.64 178.26 88.64 174.59 88.64 174.59 121.69 178.26 121.69 178.26 95.98 181.94 95.98 181.94 92.31 185.61 92.31 189.28 92.31 189.28 88.64 185.61 88.64 181.94 88.64"/><polygon class="cls-6" points="203.97 176.78 200.3 176.78 196.63 176.78 192.96 176.78 192.96 187.79 196.63 187.79 200.3 187.79 203.97 187.79 207.65 187.79 207.65 176.78 203.97 176.78"/><rect class="cls-7" x="152.56" y="180.45" width="3.67" height="3.67"/><polygon class="cls-7" points="156.23 261.24 152.56 261.24 152.56 275.93 148.89 275.93 148.89 279.6 145.22 279.6 141.54 279.6 141.54 275.93 137.87 275.93 137.87 283.28 141.54 283.28 141.54 286.95 145.22 286.95 148.89 286.95 152.56 286.95 156.23 286.95 156.23 283.28 159.91 283.28 159.91 286.95 163.58 286.95 163.58 261.24 159.91 261.24 156.23 261.24"/><rect class="cls-7" x="159.91" y="180.45" width="3.67" height="3.67"/><rect class="cls-7" x="167.25" y="180.45" width="3.67" height="3.67"/><rect class="cls-7" x="174.59" y="180.45" width="3.67" height="3.67"/><rect class="cls-7" x="181.94" y="180.45" width="3.67" height="3.67"/><rect class="cls-7" x="189.28" y="180.45" width="3.67" height="3.67"/><polygon class="cls-7" points="203.97 275.93 203.97 279.6 200.3 279.6 196.63 279.6 196.63 275.93 192.96 275.93 192.96 261.24 189.28 261.24 185.61 261.24 181.94 261.24 181.94 286.95 185.61 286.95 185.61 283.28 189.28 283.28 189.28 286.95 192.96 286.95 196.63 286.95 200.3 286.95 203.97 286.95 203.97 283.28 207.65 283.28 207.65 275.93 203.97 275.93"/><polygon class="cls-8" points="148.89 118.02 152.56 118.02 152.56 114.34 148.89 114.34 145.22 114.34 141.54 114.34 137.87 114.34 137.87 125.36 134.2 125.36 134.2 129.03 137.87 129.03 141.54 129.03 141.54 125.36 145.22 125.36 145.22 121.69 148.89 121.69 148.89 118.02"/><polygon class="cls-8" points="159.91 228.19 156.23 228.19 152.56 228.19 148.89 228.19 148.89 235.53 152.56 235.53 152.56 231.86 156.23 231.86 156.23 235.53 159.91 235.53 159.91 231.86 163.58 231.86 163.58 235.53 167.25 235.53 167.25 228.19 163.58 228.19 159.91 228.19"/><polygon class="cls-8" points="189.28 228.19 185.61 228.19 181.94 228.19 178.26 228.19 178.26 235.53 181.94 235.53 181.94 231.86 185.61 231.86 185.61 235.53 189.28 235.53 189.28 231.86 192.96 231.86 192.96 235.53 196.63 235.53 196.63 228.19 192.96 228.19 189.28 228.19"/><polygon class="cls-8" points="207.65 125.36 207.65 114.34 203.97 114.34 200.3 114.34 196.63 114.34 192.96 114.34 192.96 118.02 196.63 118.02 196.63 121.69 200.3 121.69 200.3 125.36 203.97 125.36 203.97 129.03 207.65 129.03 211.32 129.03 211.32 125.36 207.65 125.36"/><rect class="cls-2" x="207.65" y="173.1" width="3.67" height="7.34"/><rect class="cls-9" x="134.2" y="187.79" width="3.67" height="7.34"/><polygon class="cls-9" points="137.87 143.72 137.87 147.4 141.54 147.4 141.54 154.74 137.87 154.74 137.87 158.41 141.54 158.41 145.22 158.41 145.22 143.72 141.54 143.72 137.87 143.72"/><polygon class="cls-9" points="152.56 48.24 152.56 51.91 156.23 51.91 159.91 51.91 159.91 48.24 156.23 48.24 152.56 48.24"/><polygon class="cls-9" points="152.56 206.15 152.56 209.83 156.23 209.83 156.23 217.17 152.56 217.17 152.56 220.84 156.23 220.84 159.91 220.84 159.91 206.15 156.23 206.15 152.56 206.15"/><polygon class="cls-9" points="185.61 206.15 185.61 220.84 189.28 220.84 192.96 220.84 192.96 217.17 189.28 217.17 189.28 209.83 192.96 209.83 192.96 206.15 189.28 206.15 185.61 206.15"/><polygon class="cls-9" points="207.65 154.74 203.97 154.74 203.97 147.4 207.65 147.4 207.65 143.72 203.97 143.72 200.3 143.72 200.3 158.41 203.97 158.41 207.65 158.41 207.65 154.74"/><rect class="cls-9" x="207.65" y="187.79" width="3.67" height="7.34"/><rect class="cls-10" x="137.87" y="147.4" width="3.67" height="7.35"/><polygon class="cls-10" points="148.89 187.79 145.22 187.79 141.54 187.79 137.87 187.79 137.87 195.14 134.2 195.14 134.2 198.81 137.87 198.81 141.54 198.81 145.22 198.81 148.89 198.81 152.56 198.81 152.56 187.79 148.89 187.79"/><rect class="cls-10" x="152.56" y="51.91" width="3.67" height="25.71"/><polygon class="cls-10" points="156.23 132.71 159.91 132.71 163.58 132.71 167.25 132.71 170.92 132.71 170.92 136.38 174.59 136.38 174.59 132.71 178.26 132.71 181.94 132.71 185.61 132.71 189.28 132.71 192.96 132.71 192.96 173.1 196.63 173.1 200.3 173.1 203.97 173.1 207.65 173.1 207.65 158.41 203.97 158.41 200.3 158.41 200.3 143.72 203.97 143.72 207.65 143.72 207.65 129.03 203.97 129.03 203.97 125.36 200.3 125.36 200.3 121.69 196.63 121.69 196.63 118.02 192.96 118.02 192.96 129.03 189.28 129.03 185.61 129.03 181.94 129.03 178.26 129.03 174.59 129.03 170.92 129.03 167.25 129.03 163.58 129.03 159.91 129.03 156.23 129.03 152.56 129.03 152.56 118.02 148.89 118.02 148.89 121.69 145.22 121.69 145.22 125.36 141.54 125.36 141.54 129.03 137.87 129.03 137.87 143.72 141.54 143.72 145.22 143.72 145.22 158.41 141.54 158.41 137.87 158.41 137.87 173.1 141.54 173.1 145.22 173.1 148.89 173.1 152.56 173.1 152.56 132.71 156.23 132.71"/><rect class="cls-10" x="152.56" y="209.83" width="3.67" height="7.34"/><polygon class="cls-10" points="156.23 198.81 152.56 198.81 152.56 206.15 156.23 206.15 159.91 206.15 159.91 220.84 156.23 220.84 152.56 220.84 152.56 228.19 156.23 228.19 159.91 228.19 163.58 228.19 163.58 198.81 159.91 198.81 156.23 198.81"/><rect class="cls-10" x="159.91" y="151.07" width="3.67" height="7.34"/><polygon class="cls-10" points="159.91 235.53 156.23 235.53 156.23 231.86 152.56 231.86 152.56 257.57 156.23 257.57 159.91 257.57 163.58 257.57 163.58 231.86 159.91 231.86 159.91 235.53"/><rect class="cls-10" x="167.25" y="136.38" width="3.67" height="7.34"/><polygon class="cls-10" points="170.92 151.07 170.92 147.4 167.25 147.4 163.58 147.4 163.58 151.07 167.25 151.07 170.92 151.07"/><rect class="cls-10" x="170.92" y="143.72" width="3.67" height="3.67"/><rect class="cls-10" x="174.59" y="136.38" width="3.67" height="7.34"/><polygon class="cls-10" points="178.26 151.07 181.94 151.07 181.94 147.4 178.26 147.4 174.59 147.4 174.59 151.07 178.26 151.07"/><rect class="cls-10" x="181.94" y="151.07" width="3.67" height="7.34"/><polygon class="cls-10" points="185.61 176.78 189.28 176.78 192.96 176.78 192.96 173.1 189.28 173.1 189.28 158.41 185.61 158.41 185.61 173.1 181.94 173.1 178.26 173.1 174.59 173.1 170.92 173.1 167.25 173.1 163.58 173.1 159.91 173.1 159.91 158.41 156.23 158.41 156.23 173.1 152.56 173.1 152.56 176.78 156.23 176.78 159.91 176.78 163.58 176.78 167.25 176.78 170.92 176.78 174.59 176.78 178.26 176.78 181.94 176.78 185.61 176.78"/><polygon class="cls-10" points="185.61 198.81 181.94 198.81 181.94 228.19 185.61 228.19 189.28 228.19 192.96 228.19 192.96 220.84 189.28 220.84 185.61 220.84 185.61 206.15 189.28 206.15 192.96 206.15 192.96 198.81 189.28 198.81 185.61 198.81"/><rect class="cls-10" x="189.28" y="209.83" width="3.67" height="7.34"/><polygon class="cls-10" points="189.28 235.53 185.61 235.53 185.61 231.86 181.94 231.86 181.94 257.57 185.61 257.57 189.28 257.57 192.96 257.57 192.96 231.86 189.28 231.86 189.28 235.53"/><rect class="cls-10" x="203.97" y="147.4" width="3.67" height="7.35"/><polygon class="cls-10" points="207.65 195.14 207.65 187.79 203.97 187.79 200.3 187.79 196.63 187.79 192.96 187.79 192.96 198.81 196.63 198.81 200.3 198.81 203.97 198.81 207.65 198.81 211.32 198.81 211.32 195.14 207.65 195.14"/><rect class="cls-11" x="203.97" y="95.98" width="3.67" height="3.67"/><path class="cls-11" d="M237,59.26V55.58H204v3.68H200.3V88.64H204v3.67h3.68V96h3.67V92.31H215V88.64h22V85h3.67V59.26Zm-3.68,7.34h-22v3.68h22V74h-22v7.34h-3.67V62.93h25.7Z"/><polygon class="cls-12" points="181.94 84.96 178.26 84.96 174.59 84.96 170.92 84.96 167.25 84.96 163.58 84.96 159.91 84.96 156.23 84.96 156.23 88.64 159.91 88.64 163.58 88.64 167.25 88.64 170.92 88.64 170.92 121.69 174.59 121.69 174.59 88.64 178.26 88.64 181.94 88.64 185.61 88.64 189.28 88.64 189.28 84.96 185.61 84.96 181.94 84.96"/><rect class="cls-12" x="203.97" y="99.65" width="3.67" height="3.67"/><polygon class="cls-12" points="211.32 73.95 214.99 73.95 218.66 73.95 222.34 73.95 226.01 73.95 229.68 73.95 233.35 73.95 233.35 70.28 229.68 70.28 226.01 70.28 222.34 70.28 218.66 70.28 214.99 70.28 211.32 70.28 211.32 66.6 214.99 66.6 218.66 66.6 222.34 66.6 226.01 66.6 229.68 66.6 233.35 66.6 233.35 62.93 229.68 62.93 226.01 62.93 222.34 62.93 218.66 62.93 214.99 62.93 211.32 62.93 207.65 62.93 207.65 81.29 211.32 81.29 211.32 73.95"/><rect class="cls-12" x="207.65" y="95.98" width="3.67" height="3.67"/><rect class="cls-12" x="211.32" y="92.31" width="3.67" height="3.67"/><polygon class="cls-12" points="240.7 62.93 240.7 84.96 237.03 84.96 237.03 88.64 233.35 88.64 229.68 88.64 226.01 88.64 222.34 88.64 218.66 88.64 214.99 88.64 214.99 92.31 218.66 92.31 222.34 92.31 226.01 92.31 229.68 92.31 233.35 92.31 237.03 92.31 240.7 92.31 240.7 88.64 244.37 88.64 244.37 62.93 240.7 62.93"/></g></svg>