<svg xmlns="http://www.w3.org/2000/svg" xmlns:xlink="http://www.w3.org/1999/xlink" viewBox="0 0 345 345"><defs><style>.cls-1{fill:url(#radial-gradient);}.cls-2{fill:#b62d55;}.cls-3{fill:#808088;}.cls-4{fill:#a0a0a8;}.cls-5{fill:#fff;}.cls-6{fill:#010101;}</style><radialGradient id="radial-gradient" cx="172.5" cy="172.5" r="172.5" gradientUnits="userSpaceOnUse"><stop offset="0" stop-color="#174170"/><stop offset="1" stop-color="#3a76bc"/></radialGradient></defs><g id="Layer_7" data-name="Layer 7"><rect class="cls-1" width="345" height="345"/></g><g id="Layer_5" data-name="Layer 5"><polygon class="cls-2" points="174.59 73.97 170.92 73.97 167.25 73.97 167.25 77.64 170.92 77.64 174.59 77.64 178.27 77.64 178.27 73.97 174.59 73.97"/><rect class="cls-3" x="134.2" y="187.81" width="3.67" height="7.34"/><polygon class="cls-3" points="141.54 154.76 141.54 158.43 145.22 158.43 148.89 158.43 148.89 154.76 145.22 154.76 141.54 154.76"/><polygon class="cls-3" points="145.22 129.05 141.54 129.05 141.54 132.72 145.22 132.72 148.89 132.72 148.89 129.05 145.22 129.05"/><polygon class="cls-3" points="148.89 180.47 145.22 180.47 141.54 180.47 141.54 184.14 145.22 184.14 148.89 184.14 148.89 180.47"/><rect class="cls-3" x="148.89" y="132.72" width="3.67" height="22.03"/><rect class="cls-3" x="148.89" y="184.14" width="3.67" height="14.69"/><rect class="cls-3" x="148.89" y="275.95" width="3.67" height="3.67"/><rect class="cls-3" x="152.56" y="129.05" width="3.67" height="3.67"/><rect class="cls-3" x="152.56" y="279.62" width="3.67" height="3.67"/><rect class="cls-3" x="156.23" y="132.72" width="3.67" height="25.71"/><polygon class="cls-3" points="156.23 198.83 156.23 202.5 159.9 202.5 163.58 202.5 163.58 198.83 159.9 198.83 156.23 198.83"/><polygon class="cls-3" points="156.23 228.21 156.23 231.88 159.9 231.88 163.58 231.88 163.58 228.21 159.9 228.21 156.23 228.21"/><polygon class="cls-3" points="156.23 257.59 156.23 261.26 159.9 261.26 163.58 261.26 163.58 257.59 159.9 257.59 156.23 257.59"/><rect class="cls-3" x="159.9" y="107.02" width="3.67" height="3.67"/><rect class="cls-3" x="159.9" y="129.05" width="3.67" height="3.67"/><rect class="cls-3" x="159.9" y="191.48" width="3.67" height="3.67"/><rect class="cls-3" x="163.58" y="132.72" width="3.67" height="29.38"/><rect class="cls-3" x="163.58" y="195.16" width="3.67" height="3.67"/><rect class="cls-3" x="167.25" y="107.02" width="3.67" height="3.67"/><polygon class="cls-3" points="167.25 184.14 163.58 184.14 159.9 184.14 159.9 187.81 163.58 187.81 167.25 187.81 170.92 187.81 174.59 187.81 178.27 187.81 181.94 187.81 185.61 187.81 185.61 184.14 181.94 184.14 178.27 184.14 174.59 184.14 170.92 184.14 167.25 184.14"/><polygon class="cls-3" points="174.59 88.66 178.27 88.66 178.27 84.98 174.59 84.98 170.92 84.98 167.25 84.98 167.25 88.66 170.92 88.66 174.59 88.66"/><rect class="cls-3" x="170.92" y="136.4" width="3.67" height="29.38"/><polygon class="cls-3" points="170.92 198.83 167.25 198.83 167.25 202.5 170.92 202.5 174.59 202.5 178.27 202.5 178.27 198.83 174.59 198.83 170.92 198.83"/><rect class="cls-3" x="174.59" y="107.02" width="3.67" height="3.67"/><polygon class="cls-3" points="174.59 129.05 174.59 125.38 178.27 125.38 181.94 125.38 185.61 125.38 185.61 118.03 181.94 118.03 181.94 121.71 178.27 121.71 174.59 121.71 170.92 121.71 167.25 121.71 163.58 121.71 163.58 118.03 159.9 118.03 159.9 125.38 163.58 125.38 167.25 125.38 170.92 125.38 170.92 129.05 167.25 129.05 167.25 132.72 170.92 132.72 174.59 132.72 178.27 132.72 178.27 129.05 174.59 129.05"/><rect class="cls-3" x="178.27" y="132.72" width="3.67" height="29.38"/><rect class="cls-3" x="178.27" y="195.16" width="3.67" height="3.67"/><rect class="cls-3" x="181.94" y="107.02" width="3.67" height="3.67"/><rect class="cls-3" x="181.94" y="129.05" width="3.67" height="3.67"/><rect class="cls-3" x="181.94" y="191.48" width="3.67" height="3.67"/><polygon class="cls-3" points="185.61 202.5 189.28 202.5 189.28 198.83 185.61 198.83 181.94 198.83 181.94 202.5 185.61 202.5"/><polygon class="cls-3" points="181.94 228.21 181.94 231.88 185.61 231.88 189.28 231.88 189.28 228.21 185.61 228.21 181.94 228.21"/><rect class="cls-3" x="185.61" y="132.72" width="3.67" height="25.71"/><polygon class="cls-3" points="189.28 257.59 185.61 257.59 181.94 257.59 181.94 261.26 185.61 261.26 189.28 261.26 189.28 257.59"/><rect class="cls-3" x="189.28" y="129.05" width="3.67" height="3.67"/><rect class="cls-3" x="189.28" y="279.62" width="3.67" height="3.67"/><rect class="cls-3" x="192.96" y="132.72" width="3.67" height="22.03"/><rect class="cls-3" x="192.96" y="184.14" width="3.67" height="14.69"/><rect class="cls-3" x="192.96" y="275.95" width="3.67" height="3.67"/><polygon class="cls-3" points="196.63 129.05 196.63 132.72 200.3 132.72 203.97 132.72 203.97 129.05 200.3 129.05 196.63 129.05"/><polygon class="cls-3" points="200.3 158.43 203.97 158.43 203.97 154.76 200.3 154.76 196.63 154.76 196.63 158.43 200.3 158.43"/><polygon class="cls-3" points="196.63 180.47 196.63 184.14 200.3 184.14 203.97 184.14 203.97 180.47 200.3 180.47 196.63 180.47"/><rect class="cls-3" x="207.65" y="187.81" width="3.67" height="7.34"/><polygon class="cls-4" points="141.54 198.83 145.22 198.83 148.89 198.83 148.89 184.14 145.22 184.14 141.54 184.14 137.87 184.14 137.87 195.16 134.2 195.16 134.2 198.83 137.87 198.83 141.54 198.83"/><polygon class="cls-4" points="141.54 132.72 137.87 132.72 137.87 154.76 141.54 154.76 145.22 154.76 148.89 154.76 148.89 132.72 145.22 132.72 141.54 132.72"/><polygon class="cls-4" points="145.22 180.47 148.89 180.47 152.56 180.47 152.56 158.43 148.89 158.43 145.22 158.43 141.54 158.43 137.87 158.43 137.87 180.47 141.54 180.47 145.22 180.47"/><polygon class="cls-4" points="152.56 279.62 148.89 279.62 145.22 279.62 141.54 279.62 141.54 275.95 137.87 275.95 137.87 283.29 141.54 283.29 141.54 286.96 145.22 286.96 148.89 286.96 152.56 286.96 156.23 286.96 156.23 283.29 152.56 283.29 152.56 279.62"/><rect class="cls-4" x="152.56" y="132.72" width="3.67" height="22.03"/><polygon class="cls-4" points="156.23 202.5 152.56 202.5 152.56 228.21 156.23 228.21 159.9 228.21 163.58 228.21 163.58 202.5 159.9 202.5 156.23 202.5"/><polygon class="cls-4" points="156.23 231.88 152.56 231.88 152.56 257.59 156.23 257.59 159.9 257.59 163.58 257.59 163.58 231.88 159.9 231.88 156.23 231.88"/><polygon class="cls-4" points="156.23 261.26 152.56 261.26 152.56 279.62 156.23 279.62 156.23 283.29 159.9 283.29 159.9 286.96 163.58 286.96 163.58 261.26 159.9 261.26 156.23 261.26"/><polygon class="cls-4" points="163.58 129.05 163.58 132.72 167.25 132.72 167.25 129.05 170.92 129.05 170.92 125.38 167.25 125.38 163.58 125.38 159.9 125.38 159.9 114.36 156.23 114.36 152.56 114.36 148.89 114.36 145.22 114.36 141.54 114.36 141.54 110.69 137.87 110.69 137.87 129.05 141.54 129.05 145.22 129.05 148.89 129.05 148.89 132.72 152.56 132.72 152.56 129.05 156.23 129.05 156.23 132.72 159.9 132.72 159.9 129.05 163.58 129.05"/><path class="cls-4" d="M167.25,184.14h18.36V132.72h-3.67V162.1h-3.67V132.72h-11V162.1h-3.67V132.72H159.9v51.42h7.35Zm3.67-47.74h3.67v29.38h-3.67Z"/><polygon class="cls-4" points="170.92 73.97 174.59 73.97 178.27 73.97 181.94 73.97 181.94 66.62 178.27 66.62 178.27 62.95 174.59 62.95 174.59 59.28 170.92 59.28 170.92 62.95 167.25 62.95 167.25 66.62 163.58 66.62 163.58 73.97 167.25 73.97 170.92 73.97"/><polygon class="cls-4" points="170.92 84.98 174.59 84.98 178.27 84.98 181.94 84.98 181.94 77.64 178.27 77.64 174.59 77.64 170.92 77.64 167.25 77.64 163.58 77.64 163.58 84.98 167.25 84.98 170.92 84.98"/><path class="cls-4" d="M170.92,121.71h11v-33H163.58v33.05h7.34ZM174.59,107h3.68v3.67h-3.68Zm-7.34,0h3.67v3.67h-3.67Z"/><polygon class="cls-4" points="181.94 129.05 185.61 129.05 185.61 132.72 189.28 132.72 189.28 129.05 192.96 129.05 192.96 132.72 196.63 132.72 196.63 129.05 200.3 129.05 203.97 129.05 207.65 129.05 207.65 110.69 203.97 110.69 203.97 114.36 200.3 114.36 196.63 114.36 192.96 114.36 189.28 114.36 185.61 114.36 185.61 125.38 181.94 125.38 178.27 125.38 174.59 125.38 174.59 129.05 178.27 129.05 178.27 132.72 181.94 132.72 181.94 129.05"/><polygon class="cls-4" points="181.94 191.48 185.61 191.48 185.61 195.16 181.94 195.16 181.94 198.83 185.61 198.83 189.28 198.83 192.96 198.83 192.96 184.14 189.28 184.14 185.61 184.14 185.61 187.81 181.94 187.81 178.27 187.81 174.59 187.81 170.92 187.81 167.25 187.81 163.58 187.81 159.9 187.81 159.9 184.14 156.23 184.14 152.56 184.14 152.56 198.83 156.23 198.83 159.9 198.83 163.58 198.83 163.58 195.16 159.9 195.16 159.9 191.48 163.58 191.48 163.58 195.16 167.25 195.16 167.25 198.83 170.92 198.83 174.59 198.83 178.27 198.83 178.27 195.16 181.94 195.16 181.94 191.48"/><polygon class="cls-4" points="185.61 231.88 181.94 231.88 181.94 257.59 185.61 257.59 189.28 257.59 192.96 257.59 192.96 231.88 189.28 231.88 185.61 231.88"/><rect class="cls-4" x="189.28" y="132.72" width="3.67" height="22.03"/><polygon class="cls-4" points="192.96 202.5 189.28 202.5 185.61 202.5 181.94 202.5 181.94 228.21 185.61 228.21 189.28 228.21 192.96 228.21 192.96 202.5"/><polygon class="cls-4" points="192.96 279.62 192.96 261.26 189.28 261.26 185.61 261.26 181.94 261.26 181.94 286.96 185.61 286.96 185.61 283.29 189.28 283.29 189.28 279.62 192.96 279.62"/><polygon class="cls-4" points="200.3 154.76 203.97 154.76 207.65 154.76 207.65 132.72 203.97 132.72 200.3 132.72 196.63 132.72 196.63 154.76 200.3 154.76"/><polygon class="cls-4" points="200.3 158.43 196.63 158.43 192.96 158.43 192.96 180.47 196.63 180.47 200.3 180.47 203.97 180.47 207.65 180.47 207.65 158.43 203.97 158.43 200.3 158.43"/><polygon class="cls-4" points="203.97 279.62 200.3 279.62 196.63 279.62 192.96 279.62 192.96 283.29 189.28 283.29 189.28 286.96 192.96 286.96 196.63 286.96 200.3 286.96 203.97 286.96 203.97 283.29 207.65 283.29 207.65 275.95 203.97 275.95 203.97 279.62"/><polygon class="cls-4" points="207.65 195.16 207.65 184.14 203.97 184.14 200.3 184.14 196.63 184.14 196.63 198.83 200.3 198.83 203.97 198.83 207.65 198.83 211.32 198.83 211.32 195.16 207.65 195.16"/><rect class="cls-5" x="203.97" y="96" width="3.67" height="3.67"/><path class="cls-5" d="M237,59.28V55.6H204v3.68H200.3V88.66H204v3.67h3.68V96h3.67V92.33H215V88.66h22V85h3.68V59.28Zm-11,7.34h-3.67v11H226v3.67H215V77.64h3.67v-11H215V63h11Z"/><rect class="cls-6" x="203.97" y="99.67" width="3.67" height="3.67"/><rect class="cls-6" x="207.65" y="96" width="3.67" height="3.67"/><rect class="cls-6" x="211.32" y="92.33" width="3.67" height="3.67"/><polygon class="cls-6" points="222.34 81.31 226.01 81.31 226.01 77.64 222.34 77.64 222.34 66.62 226.01 66.62 226.01 62.95 222.34 62.95 218.66 62.95 214.99 62.95 214.99 66.62 218.66 66.62 218.66 77.64 214.99 77.64 214.99 81.31 218.66 81.31 222.34 81.31"/><polygon class="cls-6" points="240.7 62.95 240.7 84.98 237.02 84.98 237.02 88.66 233.35 88.66 229.68 88.66 226.01 88.66 222.34 88.66 218.66 88.66 214.99 88.66 214.99 92.33 218.66 92.33 222.34 92.33 226.01 92.33 229.68 92.33 233.35 92.33 237.02 92.33 240.7 92.33 240.7 88.66 244.37 88.66 244.37 62.95 240.7 62.95"/></g></svg>