<svg xmlns="http://www.w3.org/2000/svg" xmlns:xlink="http://www.w3.org/1999/xlink" viewBox="0 0 345 345"><defs><style>.cls-1{fill:url(#radial-gradient);}.cls-2{fill:#808088;}.cls-3{fill:#4060a4;}.cls-4{fill:#eec21f;}.cls-5{fill:#674118;}.cls-6{fill:#404346;}.cls-7{fill:#74b4c3;}.cls-8{fill:#f7e070;}.cls-9{fill:#3e8f72;}.cls-10{fill:#7abfa4;}.cls-11{fill:#fff;}.cls-12{fill:#010101;}</style><radialGradient id="radial-gradient" cx="172.5" cy="172.5" r="172.5" gradientUnits="userSpaceOnUse"><stop offset="0" stop-color="#174170"/><stop offset="1" stop-color="#3a76bc"/></radialGradient></defs><g id="Layer_7" data-name="Layer 7"><rect class="cls-1" width="345" height="345"/></g><g id="Layer_8" data-name="Layer 8"><rect class="cls-2" x="170.92" y="184.14" width="3.67" height="3.67"/><polygon class="cls-3" points="163.58 81.31 163.58 88.66 167.25 88.66 170.92 88.66 170.92 81.31 167.25 81.31 163.58 81.31"/><polygon class="cls-3" points="178.27 81.31 174.59 81.31 174.59 88.66 178.27 88.66 181.94 88.66 181.94 81.31 178.27 81.31"/><polygon class="cls-4" points="163.58 118.03 159.9 118.03 159.9 114.36 156.23 114.36 152.56 114.36 152.56 184.14 156.23 184.14 159.9 184.14 163.58 184.14 167.25 184.14 167.25 121.71 163.58 121.71 163.58 118.03"/><polygon class="cls-4" points="189.28 114.36 185.61 114.36 185.61 118.03 181.94 118.03 181.94 121.71 178.27 121.71 178.27 184.14 181.94 184.14 185.61 184.14 189.28 184.14 192.96 184.14 192.96 114.36 189.28 114.36"/><polygon class="cls-5" points="163.58 184.14 159.9 184.14 156.23 184.14 152.56 184.14 152.56 187.81 156.23 187.81 159.9 187.81 163.58 187.81 167.25 187.81 170.92 187.81 170.92 184.14 167.25 184.14 163.58 184.14"/><polygon class="cls-5" points="189.28 184.14 185.61 184.14 181.94 184.14 178.27 184.14 174.59 184.14 174.59 187.81 178.27 187.81 181.94 187.81 185.61 187.81 189.28 187.81 192.96 187.81 192.96 184.14 189.28 184.14"/><polygon class="cls-6" points="159.9 257.58 156.23 257.58 152.56 257.58 148.89 257.58 148.89 264.93 152.56 264.93 152.56 261.26 156.23 261.26 159.9 261.26 163.58 261.26 163.58 264.93 167.25 264.93 167.25 257.58 163.58 257.58 159.9 257.58"/><polygon class="cls-6" points="192.96 257.58 189.28 257.58 185.61 257.58 181.94 257.58 178.27 257.58 178.27 264.93 181.94 264.93 181.94 261.26 185.61 261.26 189.28 261.26 192.96 261.26 192.96 264.93 196.63 264.93 196.63 257.58 192.96 257.58"/><polygon class="cls-7" points="145.21 114.36 141.54 114.36 141.54 187.81 145.21 187.81 148.89 187.81 152.56 187.81 152.56 114.36 148.89 114.36 145.21 114.36"/><polygon class="cls-7" points="174.59 184.14 178.27 184.14 178.27 125.38 174.59 125.38 170.92 125.38 167.25 125.38 167.25 184.14 170.92 184.14 174.59 184.14"/><polygon class="cls-7" points="181.94 187.81 178.27 187.81 174.59 187.81 170.92 187.81 167.25 187.81 163.58 187.81 159.9 187.81 156.23 187.81 156.23 257.58 159.9 257.58 163.58 257.58 163.58 195.15 159.9 195.15 159.9 191.48 163.58 191.48 163.58 195.15 167.25 195.15 167.25 198.83 170.92 198.83 174.59 198.83 178.27 198.83 178.27 195.15 181.94 195.15 181.94 191.48 185.61 191.48 185.61 195.15 181.94 195.15 181.94 257.58 185.61 257.58 189.28 257.58 189.28 187.81 185.61 187.81 181.94 187.81"/><polygon class="cls-7" points="200.3 114.36 196.63 114.36 192.96 114.36 192.96 187.81 196.63 187.81 200.3 187.81 203.97 187.81 203.97 114.36 200.3 114.36"/><rect class="cls-8" x="137.87" y="114.36" width="3.67" height="73.45"/><rect class="cls-8" x="152.56" y="187.81" width="3.67" height="69.78"/><rect class="cls-8" x="159.9" y="191.48" width="3.67" height="3.67"/><rect class="cls-8" x="163.58" y="195.15" width="3.67" height="3.67"/><polygon class="cls-8" points="170.92 198.83 167.25 198.83 167.25 202.5 170.92 202.5 174.59 202.5 178.27 202.5 178.27 198.83 174.59 198.83 170.92 198.83"/><rect class="cls-8" x="178.27" y="195.15" width="3.67" height="3.67"/><rect class="cls-8" x="181.94" y="191.48" width="3.67" height="3.67"/><rect class="cls-8" x="189.28" y="187.81" width="3.67" height="69.78"/><rect class="cls-8" x="203.97" y="114.36" width="3.67" height="73.45"/><rect class="cls-9" x="134.2" y="187.81" width="3.67" height="7.34"/><rect class="cls-9" x="152.56" y="77.64" width="3.67" height="3.67"/><rect class="cls-9" x="156.23" y="81.31" width="3.67" height="22.03"/><rect class="cls-9" x="159.9" y="62.95" width="3.67" height="3.67"/><rect class="cls-9" x="159.9" y="70.29" width="3.67" height="3.67"/><rect class="cls-9" x="159.9" y="77.64" width="3.67" height="3.67"/><polygon class="cls-9" points="167.25 51.93 163.58 51.93 159.9 51.93 159.9 48.26 156.23 48.26 156.23 59.27 159.9 59.27 159.9 55.6 163.58 55.6 163.58 62.95 167.25 62.95 167.25 51.93"/><rect class="cls-9" x="163.58" y="66.62" width="3.67" height="3.67"/><rect class="cls-9" x="163.58" y="73.96" width="3.67" height="3.67"/><rect class="cls-9" x="170.92" y="55.6" width="3.67" height="7.35"/><path class="cls-9" d="M174.59,88.65h-3.67v25.71h-3.67v11h11v-11h-3.68Zm0,33.06h-3.67V118h3.67Z"/><rect class="cls-9" x="178.27" y="66.62" width="3.67" height="3.67"/><rect class="cls-9" x="178.27" y="73.96" width="3.67" height="3.67"/><polygon class="cls-9" points="185.61 55.6 185.61 59.27 189.28 59.27 189.28 48.26 185.61 48.26 185.61 51.93 181.94 51.93 178.27 51.93 178.27 62.95 181.94 62.95 181.94 55.6 185.61 55.6"/><rect class="cls-9" x="181.94" y="62.95" width="3.67" height="3.67"/><rect class="cls-9" x="181.94" y="70.29" width="3.67" height="3.67"/><rect class="cls-9" x="181.94" y="77.64" width="3.67" height="3.67"/><rect class="cls-9" x="185.61" y="81.31" width="3.67" height="22.03"/><rect class="cls-9" x="189.28" y="77.64" width="3.67" height="3.67"/><rect class="cls-9" x="207.64" y="187.81" width="3.67" height="7.34"/><polygon class="cls-10" points="145.21 187.81 141.54 187.81 137.87 187.81 137.87 195.15 134.2 195.15 134.2 198.83 137.87 198.83 141.54 198.83 145.21 198.83 148.89 198.83 152.56 198.83 152.56 187.81 148.89 187.81 145.21 187.81"/><rect class="cls-10" x="159.9" y="66.62" width="3.67" height="3.67"/><rect class="cls-10" x="159.9" y="73.96" width="3.67" height="3.67"/><polygon class="cls-10" points="163.58 88.66 163.58 81.31 159.9 81.31 159.9 118.03 163.58 118.03 163.58 121.71 167.25 121.71 167.25 114.36 170.92 114.36 170.92 88.66 167.25 88.66 163.58 88.66"/><rect class="cls-10" x="170.92" y="118.03" width="3.67" height="3.67"/><polygon class="cls-10" points="178.27 66.62 181.94 66.62 181.94 62.95 178.27 62.95 178.27 59.27 174.59 59.27 174.59 62.95 170.92 62.95 170.92 59.27 167.25 59.27 167.25 62.95 163.58 62.95 163.58 66.62 167.25 66.62 167.25 70.29 163.58 70.29 163.58 73.97 167.25 73.97 167.25 77.64 163.58 77.64 163.58 81.31 167.25 81.31 170.92 81.31 170.92 88.66 174.59 88.66 174.59 81.31 178.27 81.31 181.94 81.31 181.94 77.64 178.27 77.64 178.27 73.97 181.94 73.97 181.94 70.29 178.27 70.29 178.27 66.62"/><polygon class="cls-10" points="178.27 88.66 174.59 88.66 174.59 114.36 178.27 114.36 178.27 121.71 181.94 121.71 181.94 118.03 185.61 118.03 185.61 81.31 181.94 81.31 181.94 88.66 178.27 88.66"/><rect class="cls-10" x="181.94" y="66.62" width="3.67" height="3.67"/><rect class="cls-10" x="181.94" y="73.96" width="3.67" height="3.67"/><polygon class="cls-10" points="207.64 195.15 207.64 187.81 203.97 187.81 200.3 187.81 196.63 187.81 192.96 187.81 192.96 198.83 196.63 198.83 200.3 198.83 203.97 198.83 207.64 198.83 211.32 198.83 211.32 195.15 207.64 195.15"/><rect class="cls-11" x="203.97" y="96" width="3.67" height="3.67"/><path class="cls-11" d="M237,59.28V55.6H204v3.68H200.3V88.65H204v3.68h3.67V96h3.68V92.33H215V88.65h22V85h3.68V59.28Zm-3.67,7.34h-22v11h18.36V74H226V70.29h7.34v11H207.64V63h25.71Z"/><polygon class="cls-12" points="156.23 261.26 152.56 261.26 152.56 275.95 148.89 275.95 148.89 279.62 145.21 279.62 141.54 279.62 141.54 275.95 137.87 275.95 137.87 283.29 141.54 283.29 141.54 286.96 145.21 286.96 148.89 286.96 152.56 286.96 156.23 286.96 156.23 283.29 159.9 283.29 159.9 286.96 163.58 286.96 163.58 261.26 159.9 261.26 156.23 261.26"/><rect class="cls-12" x="203.97" y="99.67" width="3.67" height="3.67"/><polygon class="cls-12" points="203.97 279.62 200.3 279.62 196.63 279.62 196.63 275.95 192.96 275.95 192.96 261.26 189.28 261.26 185.61 261.26 181.94 261.26 181.94 286.96 185.61 286.96 185.61 283.29 189.28 283.29 189.28 286.96 192.96 286.96 196.63 286.96 200.3 286.96 203.97 286.96 203.97 283.29 207.64 283.29 207.64 275.95 203.97 275.95 203.97 279.62"/><rect class="cls-12" x="207.64" y="96" width="3.67" height="3.67"/><polygon class="cls-12" points="214.99 81.31 218.66 81.31 222.34 81.31 226.01 81.31 229.68 81.31 233.35 81.31 233.35 70.29 229.68 70.29 226.01 70.29 226.01 73.97 229.68 73.97 229.68 77.64 226.01 77.64 222.34 77.64 218.66 77.64 214.99 77.64 211.32 77.64 211.32 66.62 214.99 66.62 218.66 66.62 222.34 66.62 226.01 66.62 229.68 66.62 233.35 66.62 233.35 62.95 229.68 62.95 226.01 62.95 222.34 62.95 218.66 62.95 214.99 62.95 211.32 62.95 207.64 62.95 207.64 81.31 211.32 81.31 214.99 81.31"/><rect class="cls-12" x="211.32" y="92.33" width="3.67" height="3.67"/><polygon class="cls-12" points="240.7 62.95 240.7 84.98 237.02 84.98 237.02 88.66 233.35 88.66 229.68 88.66 226.01 88.66 222.34 88.66 218.66 88.66 214.99 88.66 214.99 92.33 218.66 92.33 222.34 92.33 226.01 92.33 229.68 92.33 233.35 92.33 237.02 92.33 240.7 92.33 240.7 88.66 244.37 88.66 244.37 62.95 240.7 62.95"/></g></svg>