<svg xmlns="http://www.w3.org/2000/svg" xmlns:xlink="http://www.w3.org/1999/xlink" viewBox="0 0 345 345"><defs><style>.cls-1{fill:url(#radial-gradient);}.cls-2{fill:#234474;}.cls-3{fill:#0270a9;}.cls-4{fill:#085c2f;}.cls-5{fill:#228c43;}.cls-6{fill:#fff;}.cls-7{fill:#010101;}</style><radialGradient id="radial-gradient" cx="172.5" cy="172.5" r="172.5" gradientUnits="userSpaceOnUse"><stop offset="0" stop-color="#174170"/><stop offset="1" stop-color="#3a76bc"/></radialGradient></defs><g id="Layer_7" data-name="Layer 7"><rect class="cls-1" width="345" height="345"/></g><g id="Layer_9" data-name="Layer 9"><rect class="cls-2" x="156.48" y="192.25" width="3.64" height="3.64"/><rect class="cls-2" x="160.13" y="195.89" width="3.64" height="3.64"/><polygon class="cls-2" points="174.7 199.53 171.06 199.53 167.41 199.53 163.77 199.53 163.77 203.18 167.41 203.18 171.06 203.18 174.7 203.18 178.34 203.18 181.98 203.18 181.98 199.53 178.34 199.53 174.7 199.53"/><rect class="cls-2" x="181.98" y="195.89" width="3.64" height="3.64"/><rect class="cls-2" x="185.63" y="192.25" width="3.64" height="3.64"/><polygon class="cls-3" points="192.91 184.96 189.27 184.96 185.63 184.96 181.98 184.96 178.34 184.96 174.7 184.96 171.06 184.96 167.41 184.96 163.77 184.96 160.13 184.96 156.48 184.96 152.84 184.96 149.2 184.96 149.2 228.68 152.84 228.68 152.84 225.03 156.48 225.03 156.48 228.68 160.13 228.68 160.13 225.03 163.77 225.03 163.77 228.68 167.41 228.68 167.41 203.18 163.77 203.18 163.77 199.53 160.13 199.53 160.13 195.89 156.48 195.89 156.48 192.25 160.13 192.25 160.13 195.89 163.77 195.89 163.77 199.53 167.41 199.53 171.06 199.53 174.7 199.53 178.34 199.53 181.98 199.53 181.98 195.89 185.63 195.89 185.63 192.25 189.27 192.25 189.27 195.89 185.63 195.89 185.63 199.53 181.98 199.53 181.98 203.18 178.34 203.18 178.34 228.68 181.98 228.68 181.98 225.03 185.63 225.03 185.63 228.68 189.27 228.68 189.27 225.03 192.91 225.03 192.91 228.68 196.56 228.68 196.56 184.96 192.91 184.96"/><rect class="cls-4" x="123.7" y="184.96" width="3.64" height="10.93"/><rect class="cls-4" x="138.27" y="279.68" width="3.64" height="7.29"/><rect class="cls-4" x="141.91" y="130.32" width="3.64" height="14.57"/><rect class="cls-4" x="141.91" y="276.04" width="3.64" height="3.64"/><rect class="cls-4" x="145.55" y="126.68" width="3.64" height="3.64"/><rect class="cls-4" x="145.55" y="272.39" width="3.64" height="3.64"/><rect class="cls-4" x="145.55" y="279.68" width="3.64" height="7.29"/><rect class="cls-4" x="149.2" y="276.04" width="3.64" height="3.64"/><rect class="cls-4" x="152.84" y="86.6" width="3.64" height="10.93"/><rect class="cls-4" x="152.84" y="115.75" width="3.64" height="3.64"/><rect class="cls-4" x="152.84" y="272.39" width="3.64" height="3.64"/><rect class="cls-4" x="152.84" y="279.68" width="3.64" height="7.29"/><polygon class="cls-4" points="160.13 144.89 156.48 144.89 152.84 144.89 149.2 144.89 145.55 144.89 145.55 148.53 149.2 148.53 149.2 184.96 152.84 184.96 152.84 148.53 156.48 148.53 160.13 148.53 163.77 148.53 167.41 148.53 167.41 144.89 163.77 144.89 160.13 144.89"/><polygon class="cls-4" points="167.41 82.96 171.06 82.96 171.06 79.32 167.41 79.32 163.77 79.32 163.77 75.68 160.13 75.68 160.13 82.96 163.77 82.96 167.41 82.96"/><polygon class="cls-4" points="167.41 108.46 167.41 115.75 171.06 115.75 171.06 112.11 174.7 112.11 174.7 108.46 171.06 108.46 167.41 108.46"/><polygon class="cls-4" points="167.41 119.39 163.77 119.39 160.13 119.39 156.48 119.39 156.48 123.03 160.13 123.03 163.77 123.03 167.41 123.03 171.06 123.03 171.06 119.39 167.41 119.39"/><rect class="cls-4" x="167.41" y="141.25" width="3.64" height="3.64"/><rect class="cls-4" x="171.05" y="75.68" width="3.64" height="3.64"/><polygon class="cls-4" points="174.7 86.6 171.06 86.6 171.06 90.25 167.41 90.25 167.41 93.89 171.06 93.89 174.7 93.89 174.7 86.6"/><polygon class="cls-4" points="174.7 97.53 171.06 97.53 167.41 97.53 163.77 97.53 163.77 101.18 167.41 101.18 171.06 101.18 174.7 101.18 174.7 97.53"/><rect class="cls-4" x="171.05" y="123.03" width="3.64" height="18.21"/><polygon class="cls-4" points="178.34 82.96 181.98 82.96 185.63 82.96 185.63 75.68 181.98 75.68 181.98 79.32 178.34 79.32 174.7 79.32 174.7 82.96 178.34 82.96"/><rect class="cls-4" x="174.7" y="141.25" width="3.64" height="3.64"/><polygon class="cls-4" points="181.98 123.03 185.63 123.03 189.27 123.03 189.27 119.39 185.63 119.39 181.98 119.39 178.34 119.39 174.7 119.39 174.7 123.03 178.34 123.03 181.98 123.03"/><path class="cls-4" d="M182,163.11H174.7v-7.29H182v-3.64H163.77v3.64h7.28v7.29h-7.28v-7.29h-3.64V185h3.64v-7.28h7.28V185h3.65v-7.28H182V185h3.65V155.82H182ZM171.05,174h-7.28v-7.28h7.28ZM182,174H174.7v-7.28H182Z"/><rect class="cls-4" x="189.27" y="86.6" width="3.64" height="10.93"/><rect class="cls-4" x="189.27" y="115.75" width="3.64" height="3.64"/><polygon class="cls-4" points="192.91 148.53 192.91 184.96 196.56 184.96 196.56 148.53 200.2 148.53 200.2 144.89 196.56 144.89 192.91 144.89 189.27 144.89 185.63 144.89 181.98 144.89 178.34 144.89 178.34 148.53 181.98 148.53 185.63 148.53 189.27 148.53 192.91 148.53"/><rect class="cls-4" x="189.27" y="272.39" width="3.64" height="3.64"/><rect class="cls-4" x="189.27" y="279.68" width="3.64" height="7.29"/><rect class="cls-4" x="192.91" y="276.04" width="3.64" height="3.64"/><rect class="cls-4" x="196.55" y="126.68" width="3.64" height="3.64"/><rect class="cls-4" x="196.55" y="272.39" width="3.64" height="3.64"/><rect class="cls-4" x="196.55" y="279.68" width="3.64" height="7.29"/><rect class="cls-4" x="200.2" y="130.32" width="3.64" height="14.57"/><rect class="cls-4" x="200.2" y="276.04" width="3.64" height="3.64"/><rect class="cls-4" x="203.84" y="279.68" width="3.64" height="7.29"/><rect class="cls-4" x="218.41" y="184.96" width="3.64" height="10.93"/><rect class="cls-5" x="141.91" y="279.68" width="3.64" height="7.29"/><rect class="cls-5" x="145.55" y="276.04" width="3.64" height="3.64"/><rect class="cls-5" x="149.2" y="279.68" width="3.64" height="7.29"/><path class="cls-5" d="M163.77,119.39h7.28V123h3.65v-3.64h14.57v-51h-3.64V72H182V68.39h-3.64V72H174.7V68.39h-3.65V72h-3.64V68.39h-3.64V72h-3.64V68.39h-3.65v51h7.29Zm10.93-7.29h-3.65v3.65h-3.64v-7.29h7.29Zm0-7.28H163.77V97.53H174.7ZM160.13,75.68h3.64v3.64h7.28V75.68h3.65v3.64H182V75.68h3.65V83H182V86.6H174.7v7.29h-7.29V90.25h3.64V86.6h-7.28V83h-3.64Z"/><polygon class="cls-5" points="160.13 228.68 156.48 228.68 156.48 225.03 152.84 225.03 152.84 246.89 149.2 246.89 149.2 276.04 152.84 276.04 152.84 272.39 156.48 272.39 156.48 276.04 152.84 276.04 152.84 279.68 156.48 279.68 156.48 286.96 160.13 286.96 163.77 286.96 163.77 225.03 160.13 225.03 160.13 228.68"/><polygon class="cls-5" points="167.41 163.1 171.06 163.1 171.06 155.82 167.41 155.82 163.77 155.82 163.77 163.1 167.41 163.1"/><polygon class="cls-5" points="163.77 166.75 163.77 174.03 167.41 174.03 171.06 174.03 171.06 166.75 167.41 166.75 163.77 166.75"/><polygon class="cls-5" points="163.77 177.68 163.77 184.96 167.41 184.96 171.06 184.96 171.06 177.68 167.41 177.68 163.77 177.68"/><polygon class="cls-5" points="171.06 141.25 171.06 123.03 167.41 123.03 163.77 123.03 160.13 123.03 156.48 123.03 156.48 119.39 152.84 119.39 152.84 115.75 149.2 115.75 145.55 115.75 141.91 115.75 138.27 115.75 134.63 115.75 130.98 115.75 127.34 115.75 123.7 115.75 123.7 148.53 127.34 148.53 127.34 195.89 123.7 195.89 123.7 199.53 127.34 199.53 130.98 199.53 134.63 199.53 138.27 199.53 141.91 199.53 145.55 199.53 149.2 199.53 149.2 148.53 145.55 148.53 145.55 144.89 141.91 144.89 141.91 130.32 145.55 130.32 145.55 126.68 149.2 126.68 149.2 130.32 145.55 130.32 145.55 144.89 149.2 144.89 152.84 144.89 156.48 144.89 160.13 144.89 163.77 144.89 167.41 144.89 167.41 141.25 171.06 141.25"/><rect class="cls-5" x="171.05" y="79.32" width="3.64" height="7.29"/><polygon class="cls-5" points="174.7 141.25 171.06 141.25 171.06 144.89 167.41 144.89 167.41 148.53 163.77 148.53 160.13 148.53 156.48 148.53 152.84 148.53 152.84 184.96 156.48 184.96 160.13 184.96 160.13 155.82 163.77 155.82 163.77 152.18 167.41 152.18 171.06 152.18 174.7 152.18 178.34 152.18 181.98 152.18 181.98 155.82 185.63 155.82 185.63 184.96 189.27 184.96 192.91 184.96 192.91 148.53 189.27 148.53 185.63 148.53 181.98 148.53 178.34 148.53 178.34 144.89 174.7 144.89 174.7 141.25"/><polygon class="cls-5" points="174.7 155.82 174.7 163.1 178.34 163.1 181.98 163.1 181.98 155.82 178.34 155.82 174.7 155.82"/><polygon class="cls-5" points="181.98 174.03 181.98 166.75 178.34 166.75 174.7 166.75 174.7 174.03 178.34 174.03 181.98 174.03"/><polygon class="cls-5" points="181.98 177.68 178.34 177.68 174.7 177.68 174.7 184.96 178.34 184.96 181.98 184.96 181.98 177.68"/><polygon class="cls-5" points="189.27 276.04 189.27 272.39 192.91 272.39 192.91 276.04 196.56 276.04 196.56 246.89 192.91 246.89 192.91 225.03 189.27 225.03 189.27 228.68 185.63 228.68 185.63 225.03 181.98 225.03 181.98 286.96 185.63 286.96 189.27 286.96 189.27 279.68 192.91 279.68 192.91 276.04 189.27 276.04"/><rect class="cls-5" x="192.91" y="279.68" width="3.64" height="7.29"/><rect class="cls-5" x="196.55" y="276.04" width="3.64" height="3.64"/><rect class="cls-5" x="200.2" y="279.68" width="3.64" height="7.29"/><polygon class="cls-5" points="222.06 148.53 222.06 115.75 218.41 115.75 214.77 115.75 211.13 115.75 207.48 115.75 203.84 115.75 200.2 115.75 196.56 115.75 192.91 115.75 192.91 119.39 189.27 119.39 189.27 123.03 185.63 123.03 181.98 123.03 178.34 123.03 174.7 123.03 174.7 141.25 178.34 141.25 178.34 144.89 181.98 144.89 185.63 144.89 189.27 144.89 192.91 144.89 196.56 144.89 200.2 144.89 200.2 130.32 196.56 130.32 196.56 126.68 200.2 126.68 200.2 130.32 203.84 130.32 203.84 144.89 200.2 144.89 200.2 148.53 196.56 148.53 196.56 199.53 200.2 199.53 203.84 199.53 207.48 199.53 211.13 199.53 214.77 199.53 218.41 199.53 222.06 199.53 222.06 195.89 218.41 195.89 218.41 148.53 222.06 148.53"/><rect class="cls-6" x="163.77" y="82.96" width="3.64" height="3.64"/><polygon class="cls-6" points="167.41 101.18 163.77 101.18 163.77 104.82 167.41 104.82 171.06 104.82 174.7 104.82 174.7 101.18 171.06 101.18 167.41 101.18"/><rect class="cls-6" x="174.7" y="82.96" width="3.64" height="3.64"/><rect class="cls-6" x="211.13" y="97.53" width="3.64" height="3.64"/><path class="cls-6" d="M243.91,61.1V57.46H211.13V61.1h-3.65V90.25h3.65v3.64h3.64v3.64h3.64V93.89h3.65V90.25h21.85V86.6h3.65V61.1ZM240.27,83h-3.64V75.68H218.41V83h-3.64V64.75h3.64V72h18.22V64.75h3.64Z"/><rect class="cls-7" x="167.41" y="82.96" width="3.64" height="3.64"/><rect class="cls-7" x="178.34" y="82.96" width="3.64" height="3.64"/><polygon class="cls-7" points="185.63 61.1 181.98 61.1 178.34 61.1 174.7 61.1 171.06 61.1 167.41 61.1 163.77 61.1 160.13 61.1 156.48 61.1 152.84 61.1 152.84 72.03 156.48 72.03 156.48 68.39 160.13 68.39 160.13 72.03 163.77 72.03 163.77 68.39 167.41 68.39 167.41 72.03 171.06 72.03 171.06 68.39 174.7 68.39 174.7 72.03 178.34 72.03 178.34 68.39 181.98 68.39 181.98 72.03 185.63 72.03 185.63 68.39 189.27 68.39 189.27 72.03 192.91 72.03 192.91 61.1 189.27 61.1 185.63 61.1"/><rect class="cls-7" x="211.13" y="101.18" width="3.64" height="3.64"/><polygon class="cls-7" points="218.41 75.68 222.06 75.68 225.7 75.68 229.34 75.68 232.98 75.68 236.63 75.68 236.63 82.96 240.27 82.96 240.27 64.75 236.63 64.75 236.63 72.03 232.98 72.03 229.34 72.03 225.7 72.03 222.06 72.03 218.41 72.03 218.41 64.75 214.77 64.75 214.77 82.96 218.41 82.96 218.41 75.68"/><rect class="cls-7" x="214.77" y="97.53" width="3.64" height="3.64"/><rect class="cls-7" x="218.41" y="93.89" width="3.64" height="3.64"/><polygon class="cls-7" points="247.56 64.75 247.56 86.6 243.91 86.6 243.91 90.25 240.27 90.25 236.63 90.25 232.98 90.25 229.34 90.25 225.7 90.25 222.06 90.25 222.06 93.89 225.7 93.89 229.34 93.89 232.98 93.89 236.63 93.89 240.27 93.89 243.91 93.89 247.56 93.89 247.56 90.25 251.2 90.25 251.2 64.75 247.56 64.75"/></g></svg>