<svg xmlns="http://www.w3.org/2000/svg" xmlns:xlink="http://www.w3.org/1999/xlink" viewBox="0 0 345 345"><defs><style>.cls-1{fill:url(#radial-gradient);}.cls-2{fill:#234474;}.cls-3{fill:#0270a9;}.cls-4{fill:#808088;}.cls-5{fill:#404346;}.cls-6{fill:#a0a0a8;}.cls-7{fill:#cca470;}.cls-8{fill:#b62d55;}.cls-9{fill:#ffe300;}.cls-10{fill:#d47d68;}.cls-11{fill:#f3bba9;}.cls-12{fill:#fff;}.cls-13{fill:#010101;}</style><radialGradient id="radial-gradient" cx="172.5" cy="172.5" r="172.5" gradientUnits="userSpaceOnUse"><stop offset="0" stop-color="#174170"/><stop offset="1" stop-color="#3a76bc"/></radialGradient></defs><g id="Layer_7" data-name="Layer 7"><rect class="cls-1" width="345" height="345"/></g><g id="Layer_10" data-name="Layer 10"><rect class="cls-2" x="171.05" y="199.82" width="3.64" height="3.64"/><rect class="cls-2" x="174.7" y="199.82" width="3.64" height="3.64"/><rect class="cls-2" x="178.34" y="196.18" width="3.64" height="3.64"/><rect class="cls-2" x="181.98" y="192.54" width="3.64" height="3.64"/><polygon class="cls-3" points="156.48 210.75 152.84 210.75 152.84 258.11 156.48 258.11 160.13 258.11 163.77 258.11 163.77 210.75 160.13 210.75 156.48 210.75"/><polygon class="cls-3" points="189.27 188.89 185.63 188.89 181.98 188.89 178.34 188.89 174.7 188.89 171.06 188.89 171.06 199.82 174.7 199.82 178.34 199.82 178.34 196.18 181.98 196.18 181.98 192.54 185.63 192.54 185.63 196.18 181.98 196.18 181.98 258.11 185.63 258.11 189.27 258.11 192.91 258.11 192.91 188.89 189.27 188.89"/><polygon class="cls-4" points="152.84 65.03 149.2 65.03 149.2 68.68 152.84 68.68 156.48 68.68 156.48 65.03 152.84 65.03"/><rect class="cls-4" x="156.48" y="68.68" width="3.64" height="3.64"/><polygon class="cls-4" points="160.13 159.75 163.77 159.75 167.41 159.75 167.41 152.46 163.77 152.46 160.13 152.46 160.13 159.75"/><polygon class="cls-4" points="160.13 177.97 163.77 177.97 167.41 177.97 167.41 170.68 163.77 170.68 160.13 170.68 160.13 177.97"/><polygon class="cls-4" points="167.41 141.53 167.41 134.25 163.77 134.25 160.13 134.25 160.13 141.53 163.77 141.53 167.41 141.53"/><polygon class="cls-4" points="163.77 207.11 160.13 207.11 156.48 207.11 152.84 207.11 152.84 210.75 156.48 210.75 160.13 210.75 163.77 210.75 167.41 210.75 171.06 210.75 171.06 207.11 167.41 207.11 163.77 207.11"/><rect class="cls-4" x="171.05" y="57.75" width="3.64" height="3.64"/><polygon class="cls-4" points="178.34 134.25 178.34 141.53 181.98 141.53 185.63 141.53 185.63 134.25 181.98 134.25 178.34 134.25"/><polygon class="cls-4" points="178.34 152.46 178.34 159.75 181.98 159.75 185.63 159.75 185.63 152.46 181.98 152.46 178.34 152.46"/><polygon class="cls-4" points="178.34 170.68 178.34 177.97 181.98 177.97 185.63 177.97 185.63 170.68 181.98 170.68 178.34 170.68"/><polygon class="cls-4" points="181.98 65.03 178.34 65.03 174.7 65.03 171.06 65.03 167.41 65.03 163.77 65.03 160.13 65.03 160.13 68.68 163.77 68.68 167.41 68.68 171.06 68.68 174.7 68.68 178.34 68.68 181.98 68.68 185.63 68.68 185.63 65.03 181.98 65.03"/><rect class="cls-4" x="185.63" y="68.68" width="3.64" height="3.64"/><polygon class="cls-4" points="192.91 65.03 189.27 65.03 189.27 68.68 192.91 68.68 196.56 68.68 196.56 65.03 192.91 65.03"/><rect class="cls-5" x="123.7" y="188.89" width="3.64" height="7.29"/><rect class="cls-5" x="130.98" y="188.89" width="3.64" height="7.29"/><rect class="cls-5" x="149.2" y="174.32" width="3.64" height="14.57"/><rect class="cls-5" x="192.91" y="174.32" width="3.64" height="14.57"/><polygon class="cls-6" points="156.48 65.03 156.48 61.39 152.84 61.39 149.2 61.39 145.56 61.39 145.56 65.03 149.2 65.03 152.84 65.03 156.48 65.03"/><rect class="cls-6" x="152.84" y="68.68" width="3.64" height="3.64"/><polygon class="cls-6" points="163.77 177.97 160.13 177.97 156.48 177.97 152.84 177.97 152.84 207.11 156.48 207.11 160.13 207.11 163.77 207.11 167.41 207.11 171.06 207.11 171.06 177.97 167.41 177.97 163.77 177.97"/><polygon class="cls-6" points="171.06 65.03 174.7 65.03 178.34 65.03 181.98 65.03 181.98 61.39 178.34 61.39 174.7 61.39 171.06 61.39 167.41 61.39 163.77 61.39 163.77 65.03 167.41 65.03 171.06 65.03"/><polygon class="cls-6" points="178.34 68.68 174.7 68.68 171.06 68.68 167.41 68.68 163.77 68.68 160.13 68.68 160.13 72.32 163.77 72.32 167.41 72.32 171.06 72.32 174.7 72.32 178.34 72.32 181.98 72.32 185.63 72.32 185.63 68.68 181.98 68.68 178.34 68.68"/><rect class="cls-6" x="189.27" y="68.68" width="3.64" height="3.64"/><polygon class="cls-6" points="196.56 61.39 192.91 61.39 189.27 61.39 189.27 65.03 192.91 65.03 196.56 65.03 200.2 65.03 200.2 61.39 196.56 61.39"/><polygon class="cls-7" points="152.84 108.75 149.2 108.75 149.2 112.39 145.56 112.39 145.56 116.03 149.2 116.03 152.84 116.03 156.48 116.03 160.13 116.03 160.13 97.82 156.48 97.82 156.48 86.89 152.84 86.89 152.84 108.75"/><rect class="cls-7" x="156.48" y="72.32" width="3.64" height="14.57"/><polygon class="cls-7" points="174.7 108.75 171.06 108.75 171.06 112.39 167.41 112.39 167.41 116.03 171.06 116.03 174.7 116.03 178.34 116.03 178.34 112.39 174.7 112.39 174.7 108.75"/><polygon class="cls-7" points="174.7 97.82 171.06 97.82 167.41 97.82 163.77 97.82 163.77 112.39 167.41 112.39 167.41 101.46 171.06 101.46 174.7 101.46 178.34 101.46 178.34 112.39 181.98 112.39 181.98 97.82 178.34 97.82 174.7 97.82"/><rect class="cls-7" x="185.63" y="72.32" width="3.64" height="14.57"/><polygon class="cls-7" points="196.56 112.39 196.56 108.75 192.91 108.75 192.91 86.89 189.27 86.89 189.27 97.82 185.63 97.82 185.63 116.03 189.27 116.03 192.91 116.03 196.56 116.03 200.2 116.03 200.2 112.39 196.56 112.39"/><polygon class="cls-8" points="145.56 199.82 141.91 199.82 138.27 199.82 138.27 265.39 141.91 265.39 145.56 265.39 149.2 265.39 149.2 258.11 152.84 258.11 152.84 199.82 149.2 199.82 145.56 199.82"/><polygon class="cls-8" points="156.48 116.03 152.84 116.03 149.2 116.03 145.56 116.03 141.91 116.03 138.27 116.03 138.27 126.96 141.91 126.96 141.91 123.32 145.56 123.32 145.56 119.68 149.2 119.68 152.84 119.68 156.48 119.68 160.13 119.68 160.13 116.03 156.48 116.03"/><polygon class="cls-8" points="163.77 119.68 160.13 119.68 160.13 123.32 163.77 123.32 167.41 123.32 167.41 119.68 163.77 119.68"/><polygon class="cls-8" points="171.06 123.32 167.41 123.32 167.41 126.96 171.06 126.96 174.7 126.96 178.34 126.96 178.34 123.32 174.7 123.32 171.06 123.32"/><polygon class="cls-8" points="178.34 119.68 178.34 123.32 181.98 123.32 185.63 123.32 185.63 119.68 181.98 119.68 178.34 119.68"/><polygon class="cls-8" points="178.34 203.47 174.7 203.47 171.06 203.47 171.06 210.75 167.41 210.75 163.77 210.75 163.77 258.11 167.41 258.11 167.41 265.39 171.06 265.39 174.7 265.39 178.34 265.39 178.34 258.11 181.98 258.11 181.98 199.82 178.34 199.82 178.34 203.47"/><polygon class="cls-8" points="200.2 199.82 196.56 199.82 192.91 199.82 192.91 258.11 196.56 258.11 196.56 265.39 200.2 265.39 203.84 265.39 207.49 265.39 207.49 199.82 203.84 199.82 200.2 199.82"/><polygon class="cls-8" points="203.84 116.03 200.2 116.03 196.56 116.03 192.91 116.03 189.27 116.03 185.63 116.03 185.63 119.68 189.27 119.68 192.91 119.68 196.56 119.68 200.2 119.68 200.2 123.32 203.84 123.32 203.84 126.96 207.49 126.96 207.49 116.03 203.84 116.03"/><polygon class="cls-9" points="156.48 261.75 152.84 261.75 152.84 276.32 149.2 276.32 149.2 279.97 145.56 279.97 141.91 279.97 141.91 276.32 138.27 276.32 138.27 283.61 141.91 283.61 141.91 287.25 145.56 287.25 149.2 287.25 152.84 287.25 156.48 287.25 156.48 283.61 160.13 283.61 160.13 287.25 163.77 287.25 163.77 261.75 160.13 261.75 156.48 261.75"/><polygon class="cls-9" points="185.63 188.89 189.27 188.89 192.91 188.89 192.91 185.25 189.27 185.25 185.63 185.25 181.98 185.25 178.34 185.25 174.7 185.25 171.06 185.25 171.06 188.89 174.7 188.89 178.34 188.89 181.98 188.89 185.63 188.89"/><polygon class="cls-9" points="203.84 276.32 203.84 279.97 200.2 279.97 196.56 279.97 196.56 276.32 192.91 276.32 192.91 261.75 189.27 261.75 185.63 261.75 181.98 261.75 181.98 287.25 185.63 287.25 185.63 283.61 189.27 283.61 189.27 287.25 192.91 287.25 196.56 287.25 200.2 287.25 203.84 287.25 203.84 283.61 207.49 283.61 207.49 276.32 203.84 276.32"/><rect class="cls-10" x="156.48" y="86.89" width="3.64" height="10.93"/><polygon class="cls-10" points="171.06 90.53 167.41 90.53 167.41 94.18 171.06 94.18 174.7 94.18 174.7 83.25 171.06 83.25 171.06 90.53"/><rect class="cls-10" x="185.63" y="86.89" width="3.64" height="10.93"/><rect class="cls-10" x="207.48" y="188.89" width="3.64" height="7.29"/><polygon class="cls-11" points="145.56 119.68 145.56 123.32 141.91 123.32 141.91 126.96 138.27 126.96 138.27 174.32 141.91 174.32 145.56 174.32 149.2 174.32 152.84 174.32 152.84 119.68 149.2 119.68 145.56 119.68"/><polygon class="cls-11" points="145.56 188.89 141.91 188.89 138.27 188.89 138.27 196.18 134.63 196.18 134.63 199.82 138.27 199.82 141.91 199.82 145.56 199.82 149.2 199.82 152.84 199.82 152.84 188.89 149.2 188.89 145.56 188.89"/><polygon class="cls-11" points="174.7 105.11 171.06 105.11 167.41 105.11 167.41 112.39 171.06 112.39 171.06 108.75 174.7 108.75 174.7 112.39 178.34 112.39 178.34 105.11 174.7 105.11"/><path class="cls-11" d="M178.34,72.32H160.13v47.36h7.28v3.64h10.93v-3.64h7.29V72.32h-7.29ZM182,112.39h-3.64V116H167.41v-3.64h-3.64V97.82H182Zm0-25.5H174.7v7.29h-7.29V90.53h3.64V86.89h-7.28V83.25H182Z"/><polygon class="cls-11" points="200.2 174.32 203.84 174.32 207.49 174.32 207.49 126.96 203.84 126.96 203.84 123.32 200.2 123.32 200.2 119.68 196.56 119.68 192.91 119.68 192.91 174.32 196.56 174.32 200.2 174.32"/><polygon class="cls-11" points="207.49 196.18 207.49 188.89 203.84 188.89 200.2 188.89 196.56 188.89 192.91 188.89 192.91 199.82 196.56 199.82 200.2 199.82 203.84 199.82 207.49 199.82 211.13 199.82 211.13 196.18 207.49 196.18"/><rect class="cls-12" x="163.77" y="83.25" width="3.64" height="3.64"/><polygon class="cls-12" points="171.06 101.46 167.41 101.46 167.41 105.11 171.06 105.11 174.7 105.11 178.34 105.11 178.34 101.46 174.7 101.46 171.06 101.46"/><rect class="cls-12" x="174.7" y="83.25" width="3.64" height="3.64"/><rect class="cls-12" x="203.84" y="97.82" width="3.64" height="3.64"/><path class="cls-12" d="M236.63,61.39V57.75H203.84v3.64H200.2V90.53h3.64v3.65h3.64v3.64h3.65V94.18h3.64V90.53h21.86V86.89h3.64V61.39ZM233,68.68H222.06V83.25h-3.65V68.68H207.48V65H233Z"/><rect class="cls-13" x="120.05" y="196.18" width="3.64" height="14.57"/><rect class="cls-13" x="127.34" y="188.89" width="3.64" height="7.29"/><rect class="cls-13" x="134.63" y="188.89" width="3.64" height="7.29"/><polygon class="cls-13" points="149.2 174.32 145.56 174.32 141.91 174.32 138.27 174.32 138.27 188.89 141.91 188.89 145.56 188.89 149.2 188.89 149.2 174.32"/><polygon class="cls-13" points="160.13 258.11 156.48 258.11 152.84 258.11 149.2 258.11 149.2 265.39 152.84 265.39 152.84 261.75 156.48 261.75 160.13 261.75 163.77 261.75 163.77 265.39 167.41 265.39 167.41 258.11 163.77 258.11 160.13 258.11"/><rect class="cls-13" x="167.41" y="83.25" width="3.64" height="3.64"/><rect class="cls-13" x="178.34" y="83.25" width="3.64" height="3.64"/><path class="cls-13" d="M182,185.25h10.93V119.68h-7.28v3.64h-7.29V127H167.41v-3.64h-7.28v-3.64h-7.29V178h7.29v-7.28h7.28V178h3.64v7.29H182Zm-14.57-25.5h-7.28v-7.29h7.28Zm0-18.21h-7.28v-7.29h7.28Zm10.93-7.29h7.29v7.29h-7.29Zm0,18.21h7.29v7.29h-7.29Zm0,18.22h7.29V178h-7.29Z"/><polygon class="cls-13" points="189.27 258.11 185.63 258.11 181.98 258.11 178.34 258.11 178.34 265.39 181.98 265.39 181.98 261.75 185.63 261.75 189.27 261.75 192.91 261.75 192.91 265.39 196.56 265.39 196.56 258.11 192.91 258.11 189.27 258.11"/><polygon class="cls-13" points="200.2 174.32 196.56 174.32 196.56 188.89 200.2 188.89 203.84 188.89 207.49 188.89 207.49 174.32 203.84 174.32 200.2 174.32"/><rect class="cls-13" x="203.84" y="101.46" width="3.64" height="3.64"/><rect class="cls-13" x="207.48" y="97.82" width="3.64" height="3.64"/><polygon class="cls-13" points="214.77 68.68 218.41 68.68 218.41 83.25 222.06 83.25 222.06 68.68 225.7 68.68 229.34 68.68 232.99 68.68 232.99 65.03 229.34 65.03 225.7 65.03 222.06 65.03 218.41 65.03 214.77 65.03 211.13 65.03 207.49 65.03 207.49 68.68 211.13 68.68 214.77 68.68"/><rect class="cls-13" x="211.13" y="94.18" width="3.64" height="3.64"/><polygon class="cls-13" points="240.27 65.03 240.27 86.89 236.63 86.89 236.63 90.53 232.99 90.53 229.34 90.53 225.7 90.53 222.06 90.53 218.41 90.53 214.77 90.53 214.77 94.18 218.41 94.18 222.06 94.18 225.7 94.18 229.34 94.18 232.99 94.18 236.63 94.18 240.27 94.18 240.27 90.53 243.91 90.53 243.91 65.03 240.27 65.03"/></g></svg>