<svg xmlns="http://www.w3.org/2000/svg" xmlns:xlink="http://www.w3.org/1999/xlink" viewBox="0 0 345 345"><defs><style>.cls-1{fill:url(#radial-gradient);}.cls-2{fill:#ffe300;}.cls-3{fill:#84152b;}.cls-4{fill:#b62d55;}.cls-5{fill:#fff;}.cls-6{fill:#010101;}</style><radialGradient id="radial-gradient" cx="172.5" cy="172.5" r="172.5" gradientUnits="userSpaceOnUse"><stop offset="0" stop-color="#174170"/><stop offset="1" stop-color="#3a76bc"/></radialGradient></defs><g id="Layer_7" data-name="Layer 7"><rect class="cls-1" width="345" height="345"/></g><g id="Layer_11" data-name="Layer 11"><polygon class="cls-2" points="152.84 145.18 149.2 145.18 149.2 141.53 145.56 141.53 145.56 137.89 141.91 137.89 141.91 134.25 138.27 134.25 138.27 156.11 141.91 156.11 145.56 156.11 149.2 156.11 152.84 156.11 152.84 145.18"/><polygon class="cls-2" points="156.48 188.89 152.84 188.89 152.84 228.97 156.48 228.97 160.13 228.97 160.13 192.54 156.48 192.54 156.48 188.89"/><polygon class="cls-2" points="167.41 83.25 171.06 83.25 174.7 83.25 178.34 83.25 181.99 83.25 185.63 83.25 185.63 68.68 181.99 68.68 181.99 65.03 178.34 65.03 174.7 65.03 174.7 75.96 171.06 75.96 171.06 65.03 167.41 65.03 163.77 65.03 163.77 68.68 160.13 68.68 160.13 83.25 163.77 83.25 167.41 83.25"/><polygon class="cls-2" points="163.77 119.68 167.41 119.68 171.06 119.68 171.06 105.11 167.41 105.11 167.41 101.46 171.06 101.46 174.7 101.46 178.34 101.46 178.34 105.11 174.7 105.11 174.7 119.68 178.34 119.68 181.99 119.68 181.99 97.82 185.63 97.82 185.63 90.53 181.99 90.53 178.34 90.53 174.7 90.53 171.06 90.53 167.41 90.53 163.77 90.53 160.13 90.53 160.13 97.82 163.77 97.82 163.77 119.68"/><polygon class="cls-2" points="189.27 130.61 192.91 130.61 192.91 116.03 189.27 116.03 189.27 126.96 185.63 126.96 181.99 126.96 178.34 126.96 174.7 126.96 171.06 126.96 167.41 126.96 163.77 126.96 160.13 126.96 156.48 126.96 156.48 116.03 152.84 116.03 152.84 130.61 156.48 130.61 160.13 130.61 163.77 130.61 167.41 130.61 171.06 130.61 174.7 130.61 178.34 130.61 181.99 130.61 185.63 130.61 189.27 130.61"/><polygon class="cls-2" points="189.27 192.54 185.63 192.54 185.63 228.97 189.27 228.97 192.91 228.97 192.91 188.89 189.27 188.89 189.27 192.54"/><polygon class="cls-2" points="203.84 134.25 203.84 137.89 200.2 137.89 200.2 141.53 196.56 141.53 196.56 145.18 192.91 145.18 192.91 156.11 196.56 156.11 200.2 156.11 203.84 156.11 207.49 156.11 207.49 134.25 203.84 134.25"/><rect class="cls-3" x="134.63" y="188.89" width="3.64" height="7.29"/><rect class="cls-3" x="138.27" y="130.61" width="3.64" height="3.64"/><rect class="cls-3" x="141.91" y="134.25" width="3.64" height="3.64"/><rect class="cls-3" x="145.56" y="137.89" width="3.64" height="3.64"/><rect class="cls-3" x="149.2" y="141.53" width="3.64" height="3.64"/><rect class="cls-3" x="149.2" y="276.32" width="3.64" height="3.64"/><polygon class="cls-3" points="152.84 185.25 152.84 156.11 149.2 156.11 145.56 156.11 141.91 156.11 141.91 159.75 145.56 159.75 149.2 159.75 149.2 181.61 145.56 181.61 141.91 181.61 141.91 185.25 145.56 185.25 149.2 185.25 149.2 199.82 152.84 199.82 152.84 188.89 156.48 188.89 156.48 185.25 152.84 185.25"/><rect class="cls-3" x="152.84" y="279.97" width="3.64" height="3.64"/><rect class="cls-3" x="156.48" y="188.89" width="3.64" height="3.64"/><polygon class="cls-3" points="156.48 228.97 156.48 232.61 160.13 232.61 163.77 232.61 163.77 228.97 160.13 228.97 156.48 228.97"/><polygon class="cls-3" points="156.48 258.11 156.48 261.75 160.13 261.75 163.77 261.75 163.77 258.11 160.13 258.11 156.48 258.11"/><polygon class="cls-3" points="163.77 126.96 167.41 126.96 171.06 126.96 174.7 126.96 178.34 126.96 181.99 126.96 185.63 126.96 189.27 126.96 189.27 119.68 185.63 119.68 185.63 123.32 181.99 123.32 178.34 123.32 174.7 123.32 171.06 123.32 167.41 123.32 163.77 123.32 160.13 123.32 160.13 119.68 156.48 119.68 156.48 126.96 160.13 126.96 163.77 126.96"/><rect class="cls-3" x="160.13" y="192.54" width="3.64" height="3.64"/><polygon class="cls-3" points="163.77 145.18 160.13 145.18 156.48 145.18 152.84 145.18 152.84 148.82 156.48 148.82 160.13 148.82 163.77 148.82 167.41 148.82 167.41 145.18 163.77 145.18"/><rect class="cls-3" x="163.77" y="152.46" width="3.64" height="3.64"/><polygon class="cls-3" points="167.41 181.61 167.41 177.96 163.77 177.96 163.77 163.39 167.41 163.39 167.41 159.75 163.77 159.75 163.77 156.11 160.13 156.11 160.13 185.25 163.77 185.25 163.77 181.61 167.41 181.61"/><rect class="cls-3" x="163.77" y="185.25" width="3.64" height="3.64"/><rect class="cls-3" x="163.77" y="196.18" width="3.64" height="3.64"/><polygon class="cls-3" points="171.06 159.75 174.7 159.75 178.34 159.75 178.34 156.11 174.7 156.11 171.06 156.11 167.41 156.11 167.41 159.75 171.06 159.75"/><polygon class="cls-3" points="171.06 148.82 167.41 148.82 167.41 152.46 171.06 152.46 174.7 152.46 178.34 152.46 178.34 148.82 174.7 148.82 171.06 148.82"/><polygon class="cls-3" points="171.06 181.61 167.41 181.61 167.41 185.25 171.06 185.25 174.7 185.25 178.34 185.25 178.34 181.61 174.7 181.61 171.06 181.61"/><polygon class="cls-3" points="171.06 188.89 167.41 188.89 167.41 192.54 171.06 192.54 174.7 192.54 178.34 192.54 178.34 188.89 174.7 188.89 171.06 188.89"/><polygon class="cls-3" points="171.06 199.82 167.41 199.82 167.41 203.47 171.06 203.47 174.7 203.47 178.34 203.47 178.34 199.82 174.7 199.82 171.06 199.82"/><rect class="cls-3" x="178.34" y="152.46" width="3.64" height="3.64"/><polygon class="cls-3" points="178.34 159.75 178.34 163.39 181.99 163.39 181.99 177.96 178.34 177.96 178.34 181.61 181.99 181.61 181.99 185.25 185.63 185.25 185.63 156.11 181.99 156.11 181.99 159.75 178.34 159.75"/><rect class="cls-3" x="178.34" y="185.25" width="3.64" height="3.64"/><rect class="cls-3" x="178.34" y="196.18" width="3.64" height="3.64"/><rect class="cls-3" x="181.98" y="192.54" width="3.64" height="3.64"/><polygon class="cls-3" points="185.63 145.18 181.99 145.18 178.34 145.18 178.34 148.82 181.99 148.82 185.63 148.82 189.27 148.82 192.91 148.82 192.91 145.18 189.27 145.18 185.63 145.18"/><rect class="cls-3" x="185.63" y="188.89" width="3.64" height="3.64"/><polygon class="cls-3" points="189.27 232.61 189.27 228.97 185.63 228.97 181.99 228.97 181.99 232.61 185.63 232.61 189.27 232.61"/><polygon class="cls-3" points="189.27 258.11 185.63 258.11 181.99 258.11 181.99 261.75 185.63 261.75 189.27 261.75 189.27 258.11"/><rect class="cls-3" x="189.27" y="279.97" width="3.64" height="3.64"/><rect class="cls-3" x="192.91" y="141.53" width="3.64" height="3.64"/><rect class="cls-3" x="192.91" y="276.32" width="3.64" height="3.64"/><rect class="cls-3" x="196.56" y="137.89" width="3.64" height="3.64"/><polygon class="cls-3" points="196.56 156.11 192.91 156.11 192.91 185.25 189.27 185.25 189.27 188.89 192.91 188.89 192.91 199.82 196.56 199.82 196.56 185.25 200.2 185.25 203.84 185.25 203.84 181.61 200.2 181.61 196.56 181.61 196.56 159.75 200.2 159.75 203.84 159.75 203.84 156.11 200.2 156.11 196.56 156.11"/><rect class="cls-3" x="200.2" y="134.25" width="3.64" height="3.64"/><rect class="cls-3" x="203.84" y="130.61" width="3.64" height="3.64"/><rect class="cls-3" x="207.49" y="188.89" width="3.64" height="7.29"/><polygon class="cls-4" points="141.91 199.82 145.56 199.82 149.2 199.82 149.2 185.25 145.56 185.25 141.91 185.25 138.27 185.25 138.27 196.18 134.63 196.18 134.63 199.82 138.27 199.82 141.91 199.82"/><polygon class="cls-4" points="145.56 181.61 149.2 181.61 149.2 159.75 145.56 159.75 141.91 159.75 138.27 159.75 138.27 181.61 141.91 181.61 145.56 181.61"/><polygon class="cls-4" points="152.84 279.97 149.2 279.97 145.56 279.97 141.91 279.97 141.91 276.32 138.27 276.32 138.27 283.61 141.91 283.61 141.91 287.25 145.56 287.25 149.2 287.25 152.84 287.25 156.48 287.25 156.48 283.61 152.84 283.61 152.84 279.97"/><rect class="cls-4" x="156.48" y="86.89" width="3.64" height="10.93"/><polygon class="cls-4" points="156.48 232.61 152.84 232.61 152.84 258.11 156.48 258.11 160.13 258.11 163.77 258.11 163.77 232.61 160.13 232.61 156.48 232.61"/><polygon class="cls-4" points="156.48 261.75 152.84 261.75 152.84 279.97 156.48 279.97 156.48 283.61 160.13 283.61 160.13 287.25 163.77 287.25 163.77 261.75 160.13 261.75 156.48 261.75"/><rect class="cls-4" x="160.13" y="65.03" width="3.64" height="3.64"/><rect class="cls-4" x="160.13" y="196.18" width="3.64" height="32.79"/><polygon class="cls-4" points="167.41 86.89 171.06 86.89 174.7 86.89 178.34 86.89 181.99 86.89 185.63 86.89 185.63 83.25 181.99 83.25 178.34 83.25 174.7 83.25 171.06 83.25 167.41 83.25 163.77 83.25 160.13 83.25 160.13 86.89 163.77 86.89 167.41 86.89"/><rect class="cls-4" x="163.77" y="156.11" width="3.64" height="3.64"/><rect class="cls-4" x="163.77" y="181.61" width="3.64" height="3.64"/><polygon class="cls-4" points="171.06 65.03 171.06 75.96 174.7 75.96 174.7 65.03 178.34 65.03 181.99 65.03 181.99 61.39 178.34 61.39 174.7 61.39 171.06 61.39 167.41 61.39 163.77 61.39 163.77 65.03 167.41 65.03 171.06 65.03"/><path class="cls-4" d="M174.7,148.82h3.64v-3.64h14.57v-3.65h3.65v-3.64h3.64v-3.64h3.64v-3.64h3.65V116H192.91v14.58H152.84V116H138.27v14.58h3.64v3.64h3.65v3.64h3.64v3.64h3.64v3.65h14.57v3.64h7.29Zm-7.29-7.29v-3.64h-3.64v-3.64H182v3.64h-3.64v3.64H174.7v3.65h-3.64v-3.65Z"/><polygon class="cls-4" points="171.06 152.46 167.41 152.46 167.41 156.11 171.06 156.11 174.7 156.11 178.34 156.11 178.34 152.46 174.7 152.46 171.06 152.46"/><polygon class="cls-4" points="171.06 159.75 167.41 159.75 167.41 163.39 163.77 163.39 163.77 177.96 167.41 177.96 167.41 181.61 171.06 181.61 174.7 181.61 178.34 181.61 178.34 177.96 181.99 177.96 181.99 163.39 178.34 163.39 178.34 159.75 174.7 159.75 171.06 159.75"/><polygon class="cls-4" points="174.7 185.25 171.06 185.25 167.41 185.25 167.41 188.89 171.06 188.89 174.7 188.89 178.34 188.89 178.34 185.25 174.7 185.25"/><rect class="cls-4" x="178.34" y="156.11" width="3.64" height="3.64"/><rect class="cls-4" x="178.34" y="181.61" width="3.64" height="3.64"/><polygon class="cls-4" points="181.99 192.54 185.63 192.54 185.63 188.89 189.27 188.89 189.27 185.25 192.91 185.25 192.91 148.82 189.27 148.82 185.63 148.82 181.99 148.82 178.34 148.82 178.34 152.46 181.99 152.46 181.99 156.11 185.63 156.11 185.63 185.25 181.99 185.25 181.99 188.89 178.34 188.89 178.34 192.54 174.7 192.54 171.06 192.54 167.41 192.54 167.41 188.89 163.77 188.89 163.77 185.25 160.13 185.25 160.13 156.11 163.77 156.11 163.77 152.46 167.41 152.46 167.41 148.82 163.77 148.82 160.13 148.82 156.48 148.82 152.84 148.82 152.84 185.25 156.48 185.25 156.48 188.89 160.13 188.89 160.13 192.54 163.77 192.54 163.77 196.18 167.41 196.18 167.41 199.82 171.06 199.82 174.7 199.82 178.34 199.82 178.34 196.18 181.99 196.18 181.99 192.54"/><rect class="cls-4" x="181.98" y="65.03" width="3.64" height="3.64"/><polygon class="cls-4" points="181.99 119.68 178.34 119.68 174.7 119.68 174.7 105.11 178.34 105.11 178.34 101.46 174.7 101.46 171.06 101.46 167.41 101.46 167.41 105.11 171.06 105.11 171.06 119.68 167.41 119.68 163.77 119.68 163.77 97.82 160.13 97.82 160.13 123.32 163.77 123.32 167.41 123.32 171.06 123.32 174.7 123.32 178.34 123.32 181.99 123.32 185.63 123.32 185.63 97.82 181.99 97.82 181.99 119.68"/><rect class="cls-4" x="181.98" y="196.18" width="3.64" height="32.79"/><rect class="cls-4" x="185.63" y="86.89" width="3.64" height="10.93"/><polygon class="cls-4" points="185.63 232.61 181.99 232.61 181.99 258.11 185.63 258.11 189.27 258.11 192.91 258.11 192.91 232.61 189.27 232.61 185.63 232.61"/><polygon class="cls-4" points="192.91 279.97 192.91 261.75 189.27 261.75 185.63 261.75 181.99 261.75 181.99 287.25 185.63 287.25 185.63 283.61 189.27 283.61 189.27 279.97 192.91 279.97"/><polygon class="cls-4" points="200.2 159.75 196.56 159.75 196.56 181.61 200.2 181.61 203.84 181.61 207.49 181.61 207.49 159.75 203.84 159.75 200.2 159.75"/><polygon class="cls-4" points="203.84 279.97 200.2 279.97 196.56 279.97 192.91 279.97 192.91 283.61 189.27 283.61 189.27 287.25 192.91 287.25 196.56 287.25 200.2 287.25 203.84 287.25 203.84 283.61 207.49 283.61 207.49 276.32 203.84 276.32 203.84 279.97"/><polygon class="cls-4" points="207.49 196.18 207.49 185.25 203.84 185.25 200.2 185.25 196.56 185.25 196.56 199.82 200.2 199.82 203.84 199.82 207.49 199.82 211.13 199.82 211.13 196.18 207.49 196.18"/><polygon class="cls-5" points="174.7 134.25 171.06 134.25 167.41 134.25 163.77 134.25 163.77 137.89 167.41 137.89 167.41 141.53 171.06 141.53 171.06 145.18 174.7 145.18 174.7 141.53 178.34 141.53 178.34 137.89 181.99 137.89 181.99 134.25 178.34 134.25 174.7 134.25"/><polygon class="cls-5" points="178.34 86.89 174.7 86.89 171.06 86.89 167.41 86.89 163.77 86.89 160.13 86.89 160.13 90.53 163.77 90.53 167.41 90.53 171.06 90.53 174.7 90.53 178.34 90.53 181.99 90.53 185.63 90.53 185.63 86.89 181.99 86.89 178.34 86.89"/><rect class="cls-5" x="203.84" y="97.82" width="3.64" height="3.64"/><path class="cls-5" d="M236.63,61.39V57.75H203.84v3.64H200.2V90.53h3.64v3.65h3.65v3.64h3.64V94.18h3.64V90.53h21.86V86.89h3.64V61.39ZM225.7,68.68h-3.64V79.61h3.64v3.64H214.77V79.61h3.64V68.68h-3.64V65H225.7Z"/><rect class="cls-6" x="203.84" y="101.46" width="3.64" height="3.64"/><rect class="cls-6" x="207.49" y="97.82" width="3.64" height="3.64"/><rect class="cls-6" x="211.13" y="94.18" width="3.64" height="3.64"/><polygon class="cls-6" points="222.06 83.25 225.7 83.25 225.7 79.61 222.06 79.61 222.06 68.68 225.7 68.68 225.7 65.03 222.06 65.03 218.41 65.03 214.77 65.03 214.77 68.68 218.41 68.68 218.41 79.61 214.77 79.61 214.77 83.25 218.41 83.25 222.06 83.25"/><polygon class="cls-6" points="240.27 65.03 240.27 86.89 236.63 86.89 236.63 90.53 232.99 90.53 229.34 90.53 225.7 90.53 222.06 90.53 218.41 90.53 214.77 90.53 214.77 94.18 218.41 94.18 222.06 94.18 225.7 94.18 229.34 94.18 232.99 94.18 236.63 94.18 240.27 94.18 240.27 90.53 243.91 90.53 243.91 65.03 240.27 65.03"/></g></svg>