<svg xmlns="http://www.w3.org/2000/svg" xmlns:xlink="http://www.w3.org/1999/xlink" viewBox="0 0 345 345"><defs><style>.cls-1{fill:url(#radial-gradient);}.cls-2{fill:#d47d68;}.cls-3{fill:#ccd2d3;}.cls-4{fill:#f3bba9;}.cls-5{fill:#234474;}.cls-6{fill:#0270a9;}.cls-7{fill:#84152b;}.cls-8{fill:#b62d55;}.cls-9{fill:#fff;}.cls-10{fill:#010101;}</style><radialGradient id="radial-gradient" cx="172.5" cy="172.5" r="172.5" gradientUnits="userSpaceOnUse"><stop offset="0" stop-color="#174170"/><stop offset="1" stop-color="#3a76bc"/></radialGradient></defs><g id="Layer_7" data-name="Layer 7"><rect class="cls-1" width="345" height="345"/></g><g id="Layer_13" data-name="Layer 13"><polygon class="cls-2" points="167.41 97.82 163.77 97.82 163.77 101.46 167.41 101.46 171.06 101.46 174.7 101.46 174.7 97.82 171.06 97.82 167.41 97.82"/><polygon class="cls-2" points="167.41 108.75 167.41 116.03 171.06 116.03 171.06 112.39 174.7 112.39 174.7 108.75 171.06 108.75 167.41 108.75"/><polygon class="cls-2" points="171.06 86.89 171.06 90.53 167.41 90.53 167.41 94.18 171.06 94.18 174.7 94.18 174.7 86.89 171.06 86.89"/><rect class="cls-3" x="171.06" y="185.25" width="3.64" height="3.64"/><path class="cls-4" d="M182,94.18V90.53H174.7v3.65h-7.29V90.53h-3.64v3.65h-3.64v25.5h3.64v3.64H182v-3.64h3.64V94.18Zm-7.29,18.21h-3.64V116h-3.65v-7.28h7.29Zm0-7.28H163.77V97.82H174.7Z"/><rect class="cls-5" x="149.2" y="130.61" width="3.64" height="14.57"/><rect class="cls-5" x="160.13" y="192.54" width="3.64" height="3.64"/><rect class="cls-5" x="163.77" y="196.18" width="3.64" height="3.64"/><polygon class="cls-5" points="171.06 199.82 167.41 199.82 167.41 203.47 171.06 203.47 174.7 203.47 178.34 203.47 178.34 199.82 174.7 199.82 171.06 199.82"/><rect class="cls-5" x="178.34" y="196.18" width="3.64" height="3.64"/><rect class="cls-5" x="181.99" y="192.54" width="3.64" height="3.64"/><rect class="cls-5" x="192.91" y="130.61" width="3.64" height="14.57"/><path class="cls-6" d="M160.13,94.18h3.64V90.53h7.29V86.89h-7.29V83.25h7.29v3.64h3.64V83.25H182v3.64H174.7v3.64H182v3.65h3.64v3.64h3.64V86.89h-3.64V65H182V61.39H163.77V65h-3.64V86.89h-3.65V97.82h3.65Zm7.28-25.5h3.65V65h3.64v3.65h3.64V79.61H174.7V76h-3.64v3.65h-3.65Z"/><rect class="cls-6" x="171.06" y="68.68" width="3.64" height="3.64"/><polygon class="cls-6" points="185.63 188.89 185.63 185.25 181.99 185.25 181.99 188.89 178.34 188.89 174.7 188.89 171.06 188.89 167.41 188.89 163.77 188.89 163.77 185.25 160.13 185.25 160.13 188.89 156.49 188.89 152.84 188.89 152.84 258.11 156.49 258.11 160.13 258.11 163.77 258.11 163.77 196.18 160.13 196.18 160.13 192.54 163.77 192.54 163.77 196.18 167.41 196.18 167.41 199.82 171.06 199.82 174.7 199.82 178.34 199.82 178.34 196.18 181.99 196.18 181.99 192.54 185.63 192.54 185.63 196.18 181.99 196.18 181.99 258.11 185.63 258.11 189.27 258.11 192.91 258.11 192.91 188.89 189.27 188.89 185.63 188.89"/><path class="cls-6" d="M203.84,116H185.63v3.65H182v3.64H163.77v-3.64h-3.64V116H138.27v36.43h3.64v-3.64h3.65v-3.64h3.64V130.61h3.64v14.57h40.07V130.61h3.65v14.57h3.64v3.64h3.64v3.64h3.65V116ZM182,134.25h-3.65v3.64H182v3.65h-3.65v-3.65H174.7v-3.64h-3.64v3.64h-3.65v3.65h-3.64v-3.65h3.64v-3.64h-3.64v-3.64h3.64v3.64h3.65V127h3.64v7.29h3.64v-3.64H182Z"/><rect class="cls-7" x="134.63" y="188.89" width="3.64" height="7.29"/><polygon class="cls-7" points="152.84 177.96 152.84 174.32 149.2 174.32 145.56 174.32 141.91 174.32 138.27 174.32 134.63 174.32 134.63 181.61 138.27 181.61 138.27 177.96 141.91 177.96 145.56 177.96 149.2 177.96 152.84 177.96"/><polygon class="cls-7" points="160.13 258.11 156.49 258.11 152.84 258.11 149.2 258.11 149.2 265.39 152.84 265.39 152.84 261.75 156.49 261.75 160.13 261.75 163.77 261.75 163.77 265.39 167.41 265.39 167.41 258.11 163.77 258.11 160.13 258.11"/><polygon class="cls-7" points="189.27 258.11 185.63 258.11 181.99 258.11 178.34 258.11 178.34 265.39 181.99 265.39 181.99 261.75 185.63 261.75 189.27 261.75 192.91 261.75 192.91 265.39 196.56 265.39 196.56 258.11 192.91 258.11 189.27 258.11"/><polygon class="cls-7" points="207.49 174.32 203.84 174.32 200.2 174.32 196.56 174.32 192.91 174.32 192.91 177.96 196.56 177.96 200.2 177.96 203.84 177.96 207.49 177.96 207.49 181.61 211.13 181.61 211.13 174.32 207.49 174.32"/><rect class="cls-7" x="207.49" y="188.89" width="3.64" height="7.29"/><polygon class="cls-8" points="141.91 199.82 145.56 199.82 149.2 199.82 152.84 199.82 152.84 177.96 149.2 177.96 145.56 177.96 141.91 177.96 138.27 177.96 138.27 196.18 134.63 196.18 134.63 199.82 138.27 199.82 141.91 199.82"/><rect class="cls-8" x="149.2" y="145.18" width="3.64" height="29.14"/><rect class="cls-8" x="156.48" y="145.18" width="3.64" height="40.07"/><polygon class="cls-8" points="156.49 261.75 152.84 261.75 152.84 276.32 149.2 276.32 149.2 279.97 145.56 279.97 141.91 279.97 141.91 276.32 138.27 276.32 138.27 283.61 141.91 283.61 141.91 287.25 145.56 287.25 149.2 287.25 152.84 287.25 156.49 287.25 156.49 283.61 160.13 283.61 160.13 287.25 163.77 287.25 163.77 261.75 160.13 261.75 156.49 261.75"/><rect class="cls-8" x="163.77" y="145.18" width="3.64" height="40.07"/><rect class="cls-8" x="171.06" y="145.18" width="3.64" height="40.07"/><rect class="cls-8" x="178.34" y="145.18" width="3.64" height="40.07"/><rect class="cls-8" x="185.63" y="145.18" width="3.64" height="40.07"/><rect class="cls-8" x="192.91" y="145.18" width="3.64" height="29.14"/><polygon class="cls-8" points="203.84 279.97 200.2 279.97 196.56 279.97 196.56 276.32 192.91 276.32 192.91 261.75 189.27 261.75 185.63 261.75 181.99 261.75 181.99 287.25 185.63 287.25 185.63 283.61 189.27 283.61 189.27 287.25 192.91 287.25 196.56 287.25 200.2 287.25 203.84 287.25 203.84 283.61 207.49 283.61 207.49 276.32 203.84 276.32 203.84 279.97"/><polygon class="cls-8" points="207.49 196.18 207.49 177.96 203.84 177.96 200.2 177.96 196.56 177.96 192.91 177.96 192.91 199.82 196.56 199.82 200.2 199.82 203.84 199.82 207.49 199.82 211.13 199.82 211.13 196.18 207.49 196.18"/><polygon class="cls-9" points="145.56 148.82 141.91 148.82 141.91 152.46 138.27 152.46 138.27 174.32 141.91 174.32 145.56 174.32 149.2 174.32 149.2 145.18 145.56 145.18 145.56 148.82"/><polygon class="cls-9" points="152.84 75.96 149.2 75.96 149.2 79.61 152.84 79.61 152.84 83.25 156.49 83.25 156.49 75.96 152.84 75.96"/><rect class="cls-9" x="152.84" y="145.18" width="3.64" height="40.07"/><rect class="cls-9" x="156.48" y="83.25" width="3.64" height="3.64"/><rect class="cls-9" x="160.13" y="145.18" width="3.64" height="40.07"/><rect class="cls-9" x="163.77" y="83.25" width="3.64" height="3.64"/><rect class="cls-9" x="163.77" y="130.61" width="3.64" height="3.64"/><rect class="cls-9" x="163.77" y="137.89" width="3.64" height="3.64"/><polygon class="cls-9" points="171.06 75.96 174.7 75.96 174.7 79.61 178.34 79.61 178.34 68.68 174.7 68.68 174.7 72.32 171.06 72.32 171.06 68.68 167.41 68.68 167.41 79.61 171.06 79.61 171.06 75.96"/><polygon class="cls-9" points="171.06 105.11 174.7 105.11 174.7 101.46 171.06 101.46 167.41 101.46 163.77 101.46 163.77 105.11 167.41 105.11 171.06 105.11"/><rect class="cls-9" x="167.41" y="134.25" width="3.64" height="3.64"/><rect class="cls-9" x="167.41" y="145.18" width="3.64" height="40.07"/><rect class="cls-9" x="171.06" y="65.03" width="3.64" height="3.64"/><rect class="cls-9" x="171.06" y="126.96" width="3.64" height="7.29"/><rect class="cls-9" x="174.7" y="83.25" width="3.64" height="3.64"/><rect class="cls-9" x="174.7" y="134.25" width="3.64" height="3.64"/><rect class="cls-9" x="174.7" y="145.18" width="3.64" height="40.07"/><rect class="cls-9" x="178.34" y="130.61" width="3.64" height="3.64"/><rect class="cls-9" x="178.34" y="137.89" width="3.64" height="3.64"/><rect class="cls-9" x="181.99" y="145.18" width="3.64" height="40.07"/><rect class="cls-9" x="185.63" y="83.25" width="3.64" height="3.64"/><rect class="cls-9" x="189.27" y="145.18" width="3.64" height="40.07"/><polygon class="cls-9" points="196.56 75.96 192.91 75.96 189.27 75.96 189.27 83.25 192.91 83.25 192.91 79.61 196.56 79.61 196.56 75.96"/><polygon class="cls-9" points="203.84 148.82 200.2 148.82 200.2 145.18 196.56 145.18 196.56 174.32 200.2 174.32 203.84 174.32 207.49 174.32 207.49 152.46 203.84 152.46 203.84 148.82"/><rect class="cls-9" x="203.84" y="97.82" width="3.64" height="3.64"/><path class="cls-9" d="M236.63,61.39V57.75H203.84v3.64H200.2V90.53h3.64v3.65h3.65v3.64h3.64V94.18h3.64V90.53h21.86V86.89h3.64V61.39ZM233,68.68H211.13V79.61H233v3.64h-25.5V65H233Z"/><polygon class="cls-10" points="152.84 185.25 152.84 188.89 156.49 188.89 160.13 188.89 160.13 185.25 156.49 185.25 152.84 185.25"/><polygon class="cls-10" points="163.77 185.25 163.77 188.89 167.41 188.89 171.06 188.89 171.06 185.25 167.41 185.25 163.77 185.25"/><rect class="cls-10" x="167.41" y="83.25" width="3.64" height="3.64"/><polygon class="cls-10" points="174.7 185.25 174.7 188.89 178.34 188.89 181.99 188.89 181.99 185.25 178.34 185.25 174.7 185.25"/><rect class="cls-10" x="178.34" y="83.25" width="3.64" height="3.64"/><polygon class="cls-10" points="185.63 185.25 185.63 188.89 189.27 188.89 192.91 188.89 192.91 185.25 189.27 185.25 185.63 185.25"/><rect class="cls-10" x="203.84" y="101.46" width="3.64" height="3.64"/><rect class="cls-10" x="207.49" y="97.82" width="3.64" height="3.64"/><polygon class="cls-10" points="214.77 83.25 218.41 83.25 222.06 83.25 225.7 83.25 229.34 83.25 232.99 83.25 232.99 79.61 229.34 79.61 225.7 79.61 222.06 79.61 218.41 79.61 214.77 79.61 211.13 79.61 211.13 68.68 214.77 68.68 218.41 68.68 222.06 68.68 225.7 68.68 229.34 68.68 232.99 68.68 232.99 65.03 229.34 65.03 225.7 65.03 222.06 65.03 218.41 65.03 214.77 65.03 211.13 65.03 207.49 65.03 207.49 83.25 211.13 83.25 214.77 83.25"/><rect class="cls-10" x="211.13" y="94.18" width="3.64" height="3.64"/><polygon class="cls-10" points="240.27 65.03 240.27 86.89 236.63 86.89 236.63 90.53 232.99 90.53 229.34 90.53 225.7 90.53 222.06 90.53 218.41 90.53 214.77 90.53 214.77 94.18 218.41 94.18 222.06 94.18 225.7 94.18 229.34 94.18 232.99 94.18 236.63 94.18 240.27 94.18 240.27 90.53 243.91 90.53 243.91 65.03 240.27 65.03"/></g></svg>