<svg xmlns="http://www.w3.org/2000/svg" xmlns:xlink="http://www.w3.org/1999/xlink" viewBox="0 0 345 345"><defs><style>.cls-1{fill:url(#radial-gradient);}.cls-2{fill:#b62d55;}.cls-3{fill:#404346;}.cls-4{fill:#fff;}.cls-5{fill:#010101;}</style><radialGradient id="radial-gradient" cx="172.5" cy="172.5" r="172.5" gradientUnits="userSpaceOnUse"><stop offset="0" stop-color="#174170"/><stop offset="1" stop-color="#3a76bc"/></radialGradient></defs><g id="Layer_7" data-name="Layer 7"><rect class="cls-1" width="345" height="345"/></g><g id="Layer_18" data-name="Layer 18"><rect class="cls-2" x="171.29" y="123.47" width="3.56" height="3.56"/><rect class="cls-2" x="174.85" y="127.03" width="3.56" height="3.56"/><polygon class="cls-2" points="178.41 105.69 178.41 102.13 174.85 102.13 174.85 105.69 171.29 105.69 171.29 102.13 167.74 102.13 167.74 105.69 164.18 105.69 160.62 105.69 160.62 109.25 157.07 109.25 157.07 127.03 160.62 127.03 160.62 130.59 164.18 130.59 164.18 134.15 167.74 134.15 171.29 134.15 174.85 134.15 174.85 130.59 171.29 130.59 167.74 130.59 167.74 127.03 164.18 127.03 164.18 112.8 167.74 112.8 167.74 116.36 171.29 116.36 171.29 112.8 174.85 112.8 174.85 116.36 178.41 116.36 178.41 112.8 181.97 112.8 181.97 105.69 178.41 105.69"/><rect class="cls-3" x="125.05" y="191.06" width="3.56" height="7.11"/><rect class="cls-3" x="142.84" y="134.14" width="3.56" height="3.56"/><polygon class="cls-3" points="149.95 201.73 149.95 137.7 146.39 137.7 146.39 176.83 142.84 176.83 139.28 176.83 135.72 176.83 132.16 176.83 128.61 176.83 125.05 176.83 125.05 183.95 128.61 183.95 128.61 180.39 132.16 180.39 135.72 180.39 139.28 180.39 142.84 180.39 146.39 180.39 146.39 201.73 149.95 201.73"/><rect class="cls-3" x="160.62" y="194.62" width="3.56" height="3.56"/><polygon class="cls-3" points="160.62 258.65 157.07 258.65 153.51 258.65 149.95 258.65 149.95 265.76 153.51 265.76 153.51 262.2 157.07 262.2 160.62 262.2 164.18 262.2 164.18 265.76 167.74 265.76 167.74 258.65 164.18 258.65 160.62 258.65"/><rect class="cls-3" x="164.18" y="198.17" width="3.56" height="3.56"/><polygon class="cls-3" points="178.41 201.73 174.85 201.73 171.29 201.73 167.74 201.73 167.74 205.29 171.29 205.29 174.85 205.29 178.41 205.29 178.41 201.73"/><rect class="cls-3" x="178.41" y="198.17" width="3.56" height="3.56"/><rect class="cls-3" x="181.97" y="194.62" width="3.56" height="3.56"/><polygon class="cls-3" points="189.08 258.65 185.52 258.65 181.97 258.65 178.41 258.65 178.41 265.76 181.97 265.76 181.97 262.2 185.52 262.2 189.08 262.2 192.64 262.2 192.64 265.76 196.19 265.76 196.19 258.65 192.64 258.65 189.08 258.65"/><rect class="cls-3" x="199.75" y="134.14" width="3.56" height="3.56"/><polygon class="cls-3" points="217.54 176.83 213.98 176.83 210.42 176.83 206.87 176.83 203.31 176.83 199.75 176.83 199.75 137.7 196.19 137.7 196.19 201.73 199.75 201.73 199.75 180.39 203.31 180.39 206.87 180.39 210.42 180.39 213.98 180.39 217.54 180.39 217.54 183.95 221.1 183.95 221.1 176.83 217.54 176.83"/><rect class="cls-3" x="217.54" y="191.06" width="3.56" height="7.11"/><polygon class="cls-4" points="153.51 134.15 149.95 134.15 149.95 137.7 153.51 137.7 157.07 137.7 157.07 134.15 153.51 134.15"/><polygon class="cls-4" points="153.51 141.26 149.95 141.26 149.95 144.82 153.51 144.82 157.07 144.82 157.07 141.26 153.51 141.26"/><polygon class="cls-4" points="153.51 148.37 149.95 148.37 149.95 151.93 153.51 151.93 157.07 151.93 157.07 148.37 153.51 148.37"/><polygon class="cls-4" points="153.51 155.49 149.95 155.49 149.95 159.04 153.51 159.04 157.07 159.04 157.07 155.49 153.51 155.49"/><polygon class="cls-4" points="164.18 141.26 164.18 137.7 160.62 137.7 157.07 137.7 157.07 141.26 160.62 141.26 164.18 141.26"/><polygon class="cls-4" points="164.18 148.37 164.18 144.82 160.62 144.82 157.07 144.82 157.07 148.37 160.62 148.37 164.18 148.37"/><polygon class="cls-4" points="164.18 155.49 164.18 151.93 160.62 151.93 157.07 151.93 157.07 155.49 160.62 155.49 164.18 155.49"/><polygon class="cls-4" points="160.62 159.04 157.07 159.04 157.07 162.6 160.62 162.6 164.18 162.6 164.18 159.04 160.62 159.04"/><polygon class="cls-4" points="164.18 95.02 167.74 95.02 171.29 95.02 174.85 95.02 178.41 95.02 181.97 95.02 181.97 91.46 185.52 91.46 185.52 77.23 181.97 77.23 181.97 84.34 178.41 84.34 178.41 87.9 174.85 87.9 174.85 91.46 171.29 91.46 171.29 87.9 167.74 87.9 167.74 84.34 164.18 84.34 164.18 77.23 160.62 77.23 160.62 91.46 164.18 91.46 164.18 95.02"/><rect class="cls-4" x="164.18" y="102.13" width="3.56" height="3.56"/><rect class="cls-4" x="164.18" y="112.8" width="3.56" height="3.56"/><rect class="cls-4" x="171.29" y="102.13" width="3.56" height="3.56"/><rect class="cls-4" x="171.29" y="112.8" width="3.56" height="3.56"/><polygon class="cls-4" points="178.41 159.04 181.97 159.04 181.97 155.49 178.41 155.49 178.41 151.93 181.97 151.93 181.97 148.37 178.41 148.37 178.41 144.82 181.97 144.82 181.97 141.26 178.41 141.26 174.85 141.26 171.29 141.26 167.74 141.26 164.18 141.26 164.18 144.82 167.74 144.82 167.74 148.37 164.18 148.37 164.18 151.93 167.74 151.93 167.74 155.49 164.18 155.49 164.18 159.04 167.74 159.04 167.74 162.6 164.18 162.6 164.18 183.95 167.74 183.95 167.74 187.5 171.29 187.5 171.29 191.06 174.85 191.06 174.85 187.5 178.41 187.5 178.41 183.95 181.97 183.95 181.97 162.6 178.41 162.6 178.41 159.04"/><rect class="cls-4" x="178.41" y="102.13" width="3.56" height="3.56"/><rect class="cls-4" x="178.41" y="112.8" width="3.56" height="3.56"/><polygon class="cls-4" points="181.97 137.7 181.97 141.26 185.52 141.26 189.08 141.26 189.08 137.7 185.52 137.7 181.97 137.7"/><polygon class="cls-4" points="181.97 144.82 181.97 148.37 185.52 148.37 189.08 148.37 189.08 144.82 185.52 144.82 181.97 144.82"/><polygon class="cls-4" points="181.97 151.93 181.97 155.49 185.52 155.49 189.08 155.49 189.08 151.93 185.52 151.93 181.97 151.93"/><polygon class="cls-4" points="181.97 159.04 181.97 162.6 185.52 162.6 189.08 162.6 189.08 159.04 185.52 159.04 181.97 159.04"/><polygon class="cls-4" points="189.08 134.15 189.08 137.7 192.64 137.7 196.19 137.7 196.19 134.15 192.64 134.15 189.08 134.15"/><polygon class="cls-4" points="192.64 144.82 196.19 144.82 196.19 141.26 192.64 141.26 189.08 141.26 189.08 144.82 192.64 144.82"/><polygon class="cls-4" points="192.64 151.93 196.19 151.93 196.19 148.37 192.64 148.37 189.08 148.37 189.08 151.93 192.64 151.93"/><polygon class="cls-4" points="192.64 159.04 196.19 159.04 196.19 155.49 192.64 155.49 189.08 155.49 189.08 159.04 192.64 159.04"/><rect class="cls-4" x="203.31" y="102.13" width="3.56" height="3.56"/><path class="cls-4" d="M235.32,66.56V63h-32v3.56h-3.56V95h3.56v3.56h3.56v3.56h3.55V98.57H214V95h21.34V91.46h3.56V66.56Zm-3.55,10.67h-3.56v3.56h-3.56v3.55H221.1V87.9h-3.56V84.34H214V80.79h-3.56V77.23h-3.55V70.11h3.55v7.12H214v3.56h3.56v3.55h3.56V80.79h3.55V77.23h3.56V70.11h3.56Z"/><polygon class="cls-5" points="142.84 201.73 146.39 201.73 146.39 180.39 142.84 180.39 139.28 180.39 135.72 180.39 132.16 180.39 128.61 180.39 128.61 198.17 125.05 198.17 125.05 201.73 128.61 201.73 132.16 201.73 135.72 201.73 139.28 201.73 142.84 201.73"/><polygon class="cls-5" points="153.51 137.7 149.95 137.7 149.95 141.26 153.51 141.26 157.07 141.26 157.07 137.7 153.51 137.7"/><polygon class="cls-5" points="153.51 144.82 149.95 144.82 149.95 148.37 153.51 148.37 157.07 148.37 157.07 144.82 153.51 144.82"/><polygon class="cls-5" points="153.51 151.93 149.95 151.93 149.95 155.49 153.51 155.49 157.07 155.49 157.07 151.93 153.51 151.93"/><polygon class="cls-5" points="157.07 262.2 153.51 262.2 153.51 276.43 149.95 276.43 149.95 279.99 146.39 279.99 142.84 279.99 142.84 276.43 139.28 276.43 139.28 283.55 142.84 283.55 142.84 287.1 146.39 287.1 149.95 287.1 153.51 287.1 157.07 287.1 157.07 283.55 160.62 283.55 160.62 287.1 164.18 287.1 164.18 262.2 160.62 262.2 157.07 262.2"/><polygon class="cls-5" points="164.18 144.82 164.18 141.26 160.62 141.26 157.07 141.26 157.07 144.82 160.62 144.82 164.18 144.82"/><polygon class="cls-5" points="164.18 151.93 164.18 148.37 160.62 148.37 157.07 148.37 157.07 151.93 160.62 151.93 164.18 151.93"/><polygon class="cls-5" points="164.18 159.04 164.18 155.49 160.62 155.49 157.07 155.49 157.07 159.04 160.62 159.04 164.18 159.04"/><polygon class="cls-5" points="164.18 84.34 167.74 84.34 167.74 87.9 171.29 87.9 171.29 91.46 174.85 91.46 174.85 87.9 178.41 87.9 178.41 84.34 181.97 84.34 181.97 77.23 185.52 77.23 185.52 70.11 181.97 70.11 181.97 66.56 178.41 66.56 174.85 66.56 171.29 66.56 167.74 66.56 164.18 66.56 164.18 70.11 160.62 70.11 160.62 77.23 164.18 77.23 164.18 84.34"/><rect class="cls-5" x="164.18" y="144.82" width="3.56" height="3.56"/><rect class="cls-5" x="164.18" y="151.93" width="3.56" height="3.56"/><rect class="cls-5" x="164.18" y="159.05" width="3.56" height="3.56"/><rect class="cls-5" x="178.41" y="144.82" width="3.56" height="3.56"/><rect class="cls-5" x="178.41" y="151.93" width="3.56" height="3.56"/><rect class="cls-5" x="178.41" y="159.05" width="3.56" height="3.56"/><polygon class="cls-5" points="181.97 141.26 181.97 144.82 185.52 144.82 189.08 144.82 189.08 141.26 185.52 141.26 181.97 141.26"/><polygon class="cls-5" points="181.97 148.37 181.97 151.93 185.52 151.93 189.08 151.93 189.08 148.37 185.52 148.37 181.97 148.37"/><polygon class="cls-5" points="181.97 155.49 181.97 159.04 185.52 159.04 189.08 159.04 189.08 155.49 185.52 155.49 181.97 155.49"/><polygon class="cls-5" points="185.52 162.6 181.97 162.6 181.97 183.95 178.41 183.95 178.41 187.5 174.85 187.5 174.85 191.06 171.29 191.06 171.29 187.5 167.74 187.5 167.74 183.95 164.18 183.95 164.18 162.6 160.62 162.6 157.07 162.6 157.07 159.04 153.51 159.04 149.95 159.04 149.95 230.19 153.51 230.19 153.51 258.65 157.07 258.65 160.62 258.65 164.18 258.65 164.18 226.63 167.74 226.63 167.74 201.73 164.18 201.73 164.18 198.17 160.62 198.17 160.62 194.62 164.18 194.62 164.18 198.17 167.74 198.17 167.74 201.73 171.29 201.73 174.85 201.73 178.41 201.73 178.41 198.17 181.97 198.17 181.97 194.62 185.52 194.62 185.52 198.17 181.97 198.17 181.97 201.73 178.41 201.73 178.41 226.63 181.97 226.63 181.97 258.65 185.52 258.65 189.08 258.65 192.64 258.65 192.64 230.19 196.19 230.19 196.19 159.04 192.64 159.04 189.08 159.04 189.08 162.6 185.52 162.6"/><polygon class="cls-5" points="189.08 137.7 189.08 141.26 192.64 141.26 196.19 141.26 196.19 137.7 192.64 137.7 189.08 137.7"/><polygon class="cls-5" points="192.64 148.37 196.19 148.37 196.19 144.82 192.64 144.82 189.08 144.82 189.08 148.37 192.64 148.37"/><polygon class="cls-5" points="192.64 155.49 196.19 155.49 196.19 151.93 192.64 151.93 189.08 151.93 189.08 155.49 192.64 155.49"/><rect class="cls-5" x="203.31" y="105.69" width="3.56" height="3.56"/><polygon class="cls-5" points="203.31 279.99 199.75 279.99 196.19 279.99 196.19 276.43 192.64 276.43 192.64 262.2 189.08 262.2 185.52 262.2 181.97 262.2 181.97 287.1 185.52 287.1 185.52 283.55 189.08 283.55 189.08 287.1 192.64 287.1 196.19 287.1 199.75 287.1 203.31 287.1 203.31 283.55 206.87 283.55 206.87 276.43 203.31 276.43 203.31 279.99"/><rect class="cls-5" x="206.87" y="70.11" width="3.56" height="7.11"/><rect class="cls-5" x="206.87" y="102.13" width="3.56" height="3.56"/><rect class="cls-5" x="210.42" y="77.23" width="3.56" height="3.56"/><rect class="cls-5" x="210.42" y="98.57" width="3.56" height="3.56"/><rect class="cls-5" x="213.98" y="80.79" width="3.56" height="3.56"/><polygon class="cls-5" points="213.98 119.92 210.42 119.92 206.87 119.92 203.31 119.92 199.75 119.92 196.19 119.92 192.64 119.92 189.08 119.92 189.08 91.46 185.52 91.46 181.97 91.46 181.97 95.02 178.41 95.02 174.85 95.02 171.29 95.02 167.74 95.02 164.18 95.02 164.18 91.46 160.62 91.46 157.07 91.46 157.07 109.25 160.62 109.25 160.62 105.69 164.18 105.69 164.18 102.13 167.74 102.13 171.29 102.13 174.85 102.13 178.41 102.13 181.97 102.13 181.97 116.36 178.41 116.36 174.85 116.36 171.29 116.36 167.74 116.36 164.18 116.36 164.18 127.03 167.74 127.03 167.74 130.59 171.29 130.59 174.85 130.59 174.85 127.03 171.29 127.03 171.29 123.47 174.85 123.47 174.85 127.03 178.41 127.03 178.41 130.59 174.85 130.59 174.85 134.15 171.29 134.15 167.74 134.15 164.18 134.15 164.18 130.59 160.62 130.59 160.62 127.03 157.07 127.03 157.07 119.92 153.51 119.92 149.95 119.92 146.39 119.92 142.84 119.92 139.28 119.92 135.72 119.92 132.16 119.92 128.61 119.92 125.05 119.92 125.05 151.93 128.61 151.93 128.61 176.83 132.16 176.83 135.72 176.83 139.28 176.83 142.84 176.83 146.39 176.83 146.39 137.7 142.84 137.7 142.84 134.15 146.39 134.15 146.39 137.7 149.95 137.7 149.95 134.15 153.51 134.15 157.07 134.15 157.07 137.7 160.62 137.7 164.18 137.7 164.18 141.26 167.74 141.26 171.29 141.26 174.85 141.26 178.41 141.26 181.97 141.26 181.97 137.7 185.52 137.7 189.08 137.7 189.08 134.15 192.64 134.15 196.19 134.15 196.19 137.7 199.75 137.7 199.75 134.15 203.31 134.15 203.31 137.7 199.75 137.7 199.75 176.83 203.31 176.83 206.87 176.83 210.42 176.83 213.98 176.83 217.54 176.83 217.54 151.93 221.1 151.93 221.1 119.92 217.54 119.92 213.98 119.92"/><polygon class="cls-5" points="217.54 180.39 213.98 180.39 210.42 180.39 206.87 180.39 203.31 180.39 199.75 180.39 199.75 201.73 203.31 201.73 206.87 201.73 210.42 201.73 213.98 201.73 217.54 201.73 221.1 201.73 221.1 198.17 217.54 198.17 217.54 180.39"/><rect class="cls-5" x="217.54" y="84.34" width="3.56" height="3.56"/><rect class="cls-5" x="221.1" y="80.79" width="3.56" height="3.56"/><rect class="cls-5" x="224.65" y="77.23" width="3.56" height="3.56"/><rect class="cls-5" x="228.21" y="70.11" width="3.56" height="7.11"/><polygon class="cls-5" points="238.88 70.11 238.88 91.46 235.32 91.46 235.32 95.02 231.77 95.02 228.21 95.02 224.65 95.02 221.1 95.02 217.54 95.02 213.98 95.02 213.98 98.57 217.54 98.57 221.1 98.57 224.65 98.57 228.21 98.57 231.77 98.57 235.32 98.57 238.88 98.57 238.88 95.02 242.44 95.02 242.44 70.11 238.88 70.11"/></g></svg>