<svg id="Layer_1" data-name="Layer 1" xmlns="http://www.w3.org/2000/svg" viewBox="0 0 140 140"><defs><style>.cls-1{fill:#fff;}.cls-2{fill-rule:evenodd;}</style></defs><path class="cls-1" d="M110,20H20V120H120V20ZM100,60H60V80h40v20H40V40h60Z"/><polygon class="cls-2" points="80 40 75.53 40 70 40 60 40 50 40 40 40 40 100 50 100 60 100 70 100 74.49 100 80 100 87.25 100 100 100 100 80 87.25 80 80 80 74.49 80 70 80 60 80 60 60 70 60 75.53 60 80 60 87.77 60 100 60 100 40 87.77 40 80 40"/><path class="cls-2" d="M120,0H0V140H140V0Zm0,70H110l10,10v40H20V20h90l10,10Z"/></svg>