<svg id="Layer_1" data-name="Layer 1" xmlns="http://www.w3.org/2000/svg" viewBox="0 0 660 252"><defs><style>.cls-1{fill:#3978bd;}.cls-2{fill:#010101;}</style></defs><polygon class="cls-1" points="24 240 12 240 12 228 12 216 0 216 0 228 0 240 0 252 12 252 24 252 36 252 36 240 24 240"/><polygon class="cls-1" points="648 216 648 228 648 240 636 240 624 240 624 252 636 252 648 252 660 252 660 240 660 228 660 216 648 216"/><polygon class="cls-1" points="648 0 636 0 624 0 624 12 636 12 648 12 648 24 648 36 660 36 660 24 660 12 660 0 648 0"/><polygon class="cls-1" points="24 0 12 0 0 0 0 12 0 24 0 36 12 36 12 24 12 12 24 12 36 12 36 0 24 0"/><path class="cls-2" d="M84.35,168.26v-24h-36v24h-12v12h12v24h60v-36Zm-24-12h12v12h-12Zm36,36h-36v-12h36Z" transform="translate(-0.35 -0.26)"/><polygon class="cls-2" points="516 180 516 168 504 168 504 156 504 144 492 144 492 156 492 168 480 168 468 168 468 156 468 144 456 144 456 156 456 168 456 180 456 192 456 204 468 204 468 192 468 180 480 180 492 180 504 180 504 192 504 204 516 204 528 204 528 192 516 192 516 180"/><polygon class="cls-2" points="588 144 576 144 564 144 564 156 576 156 588 156 600 156 600 168 600 180 588 180 576 180 564 180 564 168 564 156 552 156 552 168 552 180 552 192 552 204 564 204 564 192 576 192 588 192 600 192 600 204 612 204 612 192 612 180 612 168 612 156 612 144 600 144 588 144"/><polygon class="cls-2" points="288 156 288 144 276 144 264 144 252 144 240 144 240 156 252 156 264 156 276 156 276 168 264 168 252 168 252 180 264 180 276 180 288 180 288 192 276 192 264 192 252 192 240 192 240 204 252 204 264 204 276 204 288 204 300 204 300 192 300 180 300 168 288 168 288 156"/><path class="cls-2" d="M408.35,156.26v36h-12v-24h-48v-24h-12v60h84v-60h-12Zm-24,36h-36v-12h36Z" transform="translate(-0.35 -0.26)"/><path class="cls-2" d="M180.35,144.26h-36v60h60v-60Zm12,24v24h-36v-36h36Z" transform="translate(-0.35 -0.26)"/><path class="cls-2" d="M288.35,48.26h-36v24h-12v12h12v24h12v-24h48v-36Zm12,24h-36v-12h36Z" transform="translate(-0.35 -0.26)"/><polygon class="cls-2" points="180 48 168 48 156 48 156 60 156 72 144 72 144 84 144 96 144 108 156 108 168 108 180 108 192 108 204 108 204 96 192 96 180 96 168 96 156 96 156 84 168 84 180 84 192 84 192 72 180 72 168 72 168 60 180 60 192 60 204 60 204 48 192 48 180 48"/><polygon class="cls-2" points="468 108 480 108 492 108 504 108 504 96 492 96 480 96 468 96 456 96 456 84 468 84 480 84 492 84 492 72 480 72 468 72 468 60 480 60 492 60 504 60 504 48 492 48 480 48 468 48 456 48 456 60 456 72 444 72 444 84 444 96 444 108 456 108 468 108"/><polygon class="cls-2" points="588 36 576 36 576 48 588 48 600 48 600 36 588 36"/><polygon class="cls-2" points="612 96 612 84 612 72 612 60 612 48 600 48 600 60 600 72 600 84 588 84 588 96 600 96 600 108 612 108 624 108 624 96 612 96"/><polygon class="cls-2" points="564 96 564 84 564 72 564 60 564 48 552 48 540 48 540 60 552 60 552 72 552 84 552 96 552 108 564 108 576 108 588 108 588 96 576 96 564 96"/><polygon class="cls-2" points="84 48 72 48 60 48 48 48 48 60 48 72 48 84 48 96 48 108 60 108 72 108 84 108 96 108 108 108 108 96 96 96 84 96 72 96 60 96 60 84 60 72 60 60 72 60 84 60 96 60 96 72 108 72 108 60 108 48 96 48 84 48"/><polygon class="cls-2" points="360 96 360 84 360 72 360 60 372 60 384 60 396 60 396 72 408 72 408 60 408 48 396 48 384 48 372 48 360 48 348 48 348 60 348 72 348 84 348 96 348 108 360 108 360 96"/></svg>